<svg class="main-svg" xmlns="http://www.w3.org/2000/svg" xmlns:xlink="http://www.w3.org/1999/xlink" width="700" height="480" style="" viewBox="0 0 700 480"><rect x="0" y="0" width="700" height="480" style="fill: rgb(255, 255, 255); fill-opacity: 1;"/><defs id="defs-90e6f4"><g class="clips"><clipPath id="clip90e6f4xyplot" class="plotclip"><rect width="499" height="365"/></clipPath><clipPath class="axesclip" id="clip90e6f4x"><rect x="54" y="0" width="499" height="480"/></clipPath><clipPath class="axesclip" id="clip90e6f4y"><rect x="0" y="60" width="700" height="365"/></clipPath><clipPath class="axesclip" id="clip90e6f4xy"><rect x="54" y="60" width="499" height="365"/></clipPath></g><g class="gradients"/><g class="patterns"/></defs><g class="bglayer"/><g class="layer-below"><g class="imagelayer"/><g class="shapelayer"/></g><g class="cartesianlayer"><g class="subplot xy"><g class="layer-subplot"><g class="shapelayer"/><g class="imagelayer"/></g><g class="minor-gridlayer"><g class="x"/><g class="y"/></g><g class="gridlayer"><g class="x"><path class="xgrid crisp" transform="translate(83.95,0)" d="M0,60v365" style="stroke: rgb(255, 255, 255); stroke-opacity: 1; stroke-width: 1px;"/><path class="xgrid crisp" transform="translate(132.74,0)" d="M0,60v365" style="stroke: rgb(255, 255, 255); stroke-opacity: 1; stroke-width: 1px;"/><path class="xgrid crisp" transform="translate(181.53,0)" d="M0,60v365" style="stroke: rgb(255, 255, 255); stroke-opacity: 1; stroke-width: 1px;"/><path class="xgrid crisp" transform="translate(230.32,0)" d="M0,60v365" style="stroke: rgb(255, 255, 255); stroke-opacity: 1; stroke-width: 1px;"/><path class="xgrid crisp" transform="translate(279.11,0)" d="M0,60v365" style="stroke: rgb(255, 255, 255); stroke-opacity: 1; stroke-width: 1px;"/><path class="xgrid crisp" transform="translate(327.89,0)" d="M0,60v365" style="stroke: rgb(255, 255, 255); stroke-opacity: 1; stroke-width: 1px;"/><path class="xgrid crisp" transform="translate(376.68,0)" d="M0,60v365" style="stroke: rgb(255, 255, 255); stroke-opacity: 1; stroke-width: 1px;"/><path class="xgrid crisp" transform="translate(425.47,0)" d="M0,60v365" style="stroke: rgb(255, 255, 255); stroke-opacity: 1; stroke-width: 1px;"/><path class="xgrid crisp" transform="translate(474.26,0)" d="M0,60v365" style="stroke: rgb(255, 255, 255); stroke-opacity: 1; stroke-width: 1px;"/><path class="xgrid crisp" transform="translate(523.05,0)" d="M0,60v365" style="stroke: rgb(255, 255, 255); stroke-opacity: 1; stroke-width: 1px;"/></g><g class="y"><path class="ygrid crisp" transform="translate(0,401.75)" d="M54,0h499" style="stroke: rgb(224, 224, 224); stroke-opacity: 1; stroke-width: 1px;"/><path class="ygrid crisp" transform="translate(0,351.72)" d="M54,0h499" style="stroke: rgb(224, 224, 224); stroke-opacity: 1; stroke-width: 1px;"/><path class="ygrid crisp" transform="translate(0,301.7)" d="M54,0h499" style="stroke: rgb(224, 224, 224); stroke-opacity: 1; stroke-width: 1px;"/><path class="ygrid crisp" transform="translate(0,251.67)" d="M54,0h499" style="stroke: rgb(224, 224, 224); stroke-opacity: 1; stroke-width: 1px;"/><path class="ygrid crisp" transform="translate(0,201.64)" d="M54,0h499" style="stroke: rgb(224, 224, 224); stroke-opacity: 1; stroke-width: 1px;"/><path class="ygrid crisp" transform="translate(0,151.62)" d="M54,0h499" style="stroke: rgb(224, 224, 224); stroke-opacity: 1; stroke-width: 1px;"/><path class="ygrid crisp" transform="translate(0,101.59)" d="M54,0h499" style="stroke: rgb(224, 224, 224); stroke-opacity: 1; stroke-width: 1px;"/></g></g><g class="zerolinelayer"/><g class="layer-between"><g class="shapelayer"/><g class="imagelayer"/></g><path class="xlines-below"/><path class="ylines-below"/><g class="overlines-below"/><g class="xaxislayer-below"/><g class="yaxislayer-below"/><g class="overaxes-below"/><g class="overplot"><g class="xy" transform="translate(54,60)" clip-path="url(#clip90e6f4xyplot)"><g class="scatterlayer mlayer"><g class="trace scatter tracea98730" style="stroke-miterlimit: 2; opacity: 1;"><g class="fills"/><g class="errorbars"><g class="errorbar" style="opacity: 1;"><path class="yerror" d="M25.95,339.68h8m-4,0V342.07m-4,0h8" style="vector-effect: none; stroke-width: 2px; stroke: rgb(212, 168, 67); stroke-opacity: 1;"/></g><g class="errorbar" style="opacity: 1;"><path class="yerror" d="M74.74,306.85h8m-4,0V318.72m-4,0h8" style="vector-effect: none; stroke-width: 2px; stroke: rgb(212, 168, 67); stroke-opacity: 1;"/></g><g class="errorbar" style="opacity: 1;"><path class="yerror" d="M123.53,275.94h8m-4,0V296.97m-4,0h8" style="vector-effect: none; stroke-width: 2px; stroke: rgb(212, 168, 67); stroke-opacity: 1;"/></g><g class="errorbar" style="opacity: 1;"><path class="yerror" d="M172.32,249.48h8m-4,0V280.43m-4,0h8" style="vector-effect: none; stroke-width: 2px; stroke: rgb(212, 168, 67); stroke-opacity: 1;"/></g><g class="errorbar" style="opacity: 1;"><path class="yerror" d="M221.11,225.7h8m-4,0V265.59m-4,0h8" style="vector-effect: none; stroke-width: 2px; stroke: rgb(212, 168, 67); stroke-opacity: 1;"/></g><g class="errorbar" style="opacity: 1;"><path class="yerror" d="M269.89,204.04h8m-4,0V252.15m-4,0h8" style="vector-effect: none; stroke-width: 2px; stroke: rgb(212, 168, 67); stroke-opacity: 1;"/></g><g class="errorbar" style="opacity: 1;"><path class="yerror" d="M318.68,188.44h8m-4,0V244.05m-4,0h8" style="vector-effect: none; stroke-width: 2px; stroke: rgb(212, 168, 67); stroke-opacity: 1;"/></g><g class="errorbar" style="opacity: 1;"><path class="yerror" d="M367.47,173.35h8m-4,0V236.32m-4,0h8" style="vector-effect: none; stroke-width: 2px; stroke: rgb(212, 168, 67); stroke-opacity: 1;"/></g><g class="errorbar" style="opacity: 1;"><path class="yerror" d="M416.26,161.05h8m-4,0V230.19m-4,0h8" style="vector-effect: none; stroke-width: 2px; stroke: rgb(212, 168, 67); stroke-opacity: 1;"/></g><g class="errorbar" style="opacity: 1;"><path class="yerror" d="M465.05,146.39h8m-4,0V222.04m-4,0h8" style="vector-effect: none; stroke-width: 2px; stroke: rgb(212, 168, 67); stroke-opacity: 1;"/></g></g><g class="lines"><path class="js-line" d="M29.95,340.87L78.74,312.79L127.53,286.46L176.32,264.96L225.11,245.65L273.89,228.09L322.68,216.25L371.47,204.84L420.26,195.62L469.05,184.21" style="vector-effect: none; fill: none; stroke: rgb(212, 168, 67); stroke-opacity: 1; stroke-width: 3px; opacity: 1;"/></g><g class="points"><path class="point" transform="translate(29.95,340.87)" d="M4,0A4,4 0 1,1 0,-4A4,4 0 0,1 4,0Z" style="opacity: 1; stroke-width: 0px; fill: rgb(212, 168, 67); fill-opacity: 1;"/><path class="point" transform="translate(78.74,312.79)" d="M4,0A4,4 0 1,1 0,-4A4,4 0 0,1 4,0Z" style="opacity: 1; stroke-width: 0px; fill: rgb(212, 168, 67); fill-opacity: 1;"/><path class="point" transform="translate(127.53,286.46)" d="M4,0A4,4 0 1,1 0,-4A4,4 0 0,1 4,0Z" style="opacity: 1; stroke-width: 0px; fill: rgb(212, 168, 67); fill-opacity: 1;"/><path class="point" transform="translate(176.32,264.96)" d="M4,0A4,4 0 1,1 0,-4A4,4 0 0,1 4,0Z" style="opacity: 1; stroke-width: 0px; fill: rgb(212, 168, 67); fill-opacity: 1;"/><path class="point" transform="translate(225.11,245.65)" d="M4,0A4,4 0 1,1 0,-4A4,4 0 0,1 4,0Z" style="opacity: 1; stroke-width: 0px; fill: rgb(212, 168, 67); fill-opacity: 1;"/><path class="point" transform="translate(273.89,228.09)" d="M4,0A4,4 0 1,1 0,-4A4,4 0 0,1 4,0Z" style="opacity: 1; stroke-width: 0px; fill: rgb(212, 168, 67); fill-opacity: 1;"/><path class="point" transform="translate(322.68,216.25)" d="M4,0A4,4 0 1,1 0,-4A4,4 0 0,1 4,0Z" style="opacity: 1; stroke-width: 0px; fill: rgb(212, 168, 67); fill-opacity: 1;"/><path class="point" transform="translate(371.47,204.84)" d="M4,0A4,4 0 1,1 0,-4A4,4 0 0,1 4,0Z" style="opacity: 1; stroke-width: 0px; fill: rgb(212, 168, 67); fill-opacity: 1;"/><path class="point" transform="translate(420.26,195.62)" d="M4,0A4,4 0 1,1 0,-4A4,4 0 0,1 4,0Z" style="opacity: 1; stroke-width: 0px; fill: rgb(212, 168, 67); fill-opacity: 1;"/><path class="point" transform="translate(469.05,184.21)" d="M4,0A4,4 0 1,1 0,-4A4,4 0 0,1 4,0Z" style="opacity: 1; stroke-width: 0px; fill: rgb(212, 168, 67); fill-opacity: 1;"/></g><g class="text"/></g><g class="trace scatter trace8a5abd" style="stroke-miterlimit: 2; opacity: 1;"><g class="fills"/><g class="errorbars"><g class="errorbar" style="opacity: 1;"><path class="yerror" d="M25.95,341.75h8m-4,0V341.75m-4,0h8" style="vector-effect: none; stroke-width: 2px; stroke: rgb(16, 163, 127); stroke-opacity: 1;"/></g><g class="errorbar" style="opacity: 1;"><path class="yerror" d="M74.74,295.73h8m-4,0V303.56m-4,0h8" style="vector-effect: none; stroke-width: 2px; stroke: rgb(16, 163, 127); stroke-opacity: 1;"/></g><g class="errorbar" style="opacity: 1;"><path class="yerror" d="M123.53,256.57h8m-4,0V271.85m-4,0h8" style="vector-effect: none; stroke-width: 2px; stroke: rgb(16, 163, 127); stroke-opacity: 1;"/></g><g class="errorbar" style="opacity: 1;"><path class="yerror" d="M172.32,216.24h8m-4,0V238.81m-4,0h8" style="vector-effect: none; stroke-width: 2px; stroke: rgb(16, 163, 127); stroke-opacity: 1;"/></g><g class="errorbar" style="opacity: 1;"><path class="yerror" d="M221.11,180.37h8m-4,0V209.64m-4,0h8" style="vector-effect: none; stroke-width: 2px; stroke: rgb(16, 163, 127); stroke-opacity: 1;"/></g><g class="errorbar" style="opacity: 1;"><path class="yerror" d="M269.89,148.31h8m-4,0V185m-4,0h8" style="vector-effect: none; stroke-width: 2px; stroke: rgb(16, 163, 127); stroke-opacity: 1;"/></g><g class="errorbar" style="opacity: 1;"><path class="yerror" d="M318.68,118.52h8m-4,0V162.27m-4,0h8" style="vector-effect: none; stroke-width: 2px; stroke: rgb(16, 163, 127); stroke-opacity: 1;"/></g><g class="errorbar" style="opacity: 1;"><path class="yerror" d="M367.47,87.99h8m-4,0V138.6m-4,0h8" style="vector-effect: none; stroke-width: 2px; stroke: rgb(16, 163, 127); stroke-opacity: 1;"/></g><g class="errorbar" style="opacity: 1;"><path class="yerror" d="M416.26,60.2h8m-4,0V117.2m-4,0h8" style="vector-effect: none; stroke-width: 2px; stroke: rgb(16, 163, 127); stroke-opacity: 1;"/></g><g class="errorbar" style="opacity: 1;"><path class="yerror" d="M465.05,31h8m-4,0V94.71m-4,0h8" style="vector-effect: none; stroke-width: 2px; stroke: rgb(16, 163, 127); stroke-opacity: 1;"/></g></g><g class="lines"><path class="js-line" d="M29.95,341.75L78.74,299.64L127.53,264.21L176.32,227.52L225.11,195.01L273.89,166.66L322.68,140.39L371.47,113.3L420.26,88.7L469.05,62.85" style="vector-effect: none; fill: none; stroke: rgb(16, 163, 127); stroke-opacity: 1; stroke-width: 3px; opacity: 1;"/></g><g class="points"><path class="point" transform="translate(29.95,341.75)" d="M4,0A4,4 0 1,1 0,-4A4,4 0 0,1 4,0Z" style="opacity: 1; stroke-width: 0px; fill: rgb(16, 163, 127); fill-opacity: 1;"/><path class="point" transform="translate(78.74,299.64)" d="M4,0A4,4 0 1,1 0,-4A4,4 0 0,1 4,0Z" style="opacity: 1; stroke-width: 0px; fill: rgb(16, 163, 127); fill-opacity: 1;"/><path class="point" transform="translate(127.53,264.21)" d="M4,0A4,4 0 1,1 0,-4A4,4 0 0,1 4,0Z" style="opacity: 1; stroke-width: 0px; fill: rgb(16, 163, 127); fill-opacity: 1;"/><path class="point" transform="translate(176.32,227.52)" d="M4,0A4,4 0 1,1 0,-4A4,4 0 0,1 4,0Z" style="opacity: 1; stroke-width: 0px; fill: rgb(16, 163, 127); fill-opacity: 1;"/><path class="point" transform="translate(225.11,195.01)" d="M4,0A4,4 0 1,1 0,-4A4,4 0 0,1 4,0Z" style="opacity: 1; stroke-width: 0px; fill: rgb(16, 163, 127); fill-opacity: 1;"/><path class="point" transform="translate(273.89,166.66)" d="M4,0A4,4 0 1,1 0,-4A4,4 0 0,1 4,0Z" style="opacity: 1; stroke-width: 0px; fill: rgb(16, 163, 127); fill-opacity: 1;"/><path class="point" transform="translate(322.68,140.39)" d="M4,0A4,4 0 1,1 0,-4A4,4 0 0,1 4,0Z" style="opacity: 1; stroke-width: 0px; fill: rgb(16, 163, 127); fill-opacity: 1;"/><path class="point" transform="translate(371.47,113.3)" d="M4,0A4,4 0 1,1 0,-4A4,4 0 0,1 4,0Z" style="opacity: 1; stroke-width: 0px; fill: rgb(16, 163, 127); fill-opacity: 1;"/><path class="point" transform="translate(420.26,88.7)" d="M4,0A4,4 0 1,1 0,-4A4,4 0 0,1 4,0Z" style="opacity: 1; stroke-width: 0px; fill: rgb(16, 163, 127); fill-opacity: 1;"/><path class="point" transform="translate(469.05,62.85)" d="M4,0A4,4 0 1,1 0,-4A4,4 0 0,1 4,0Z" style="opacity: 1; stroke-width: 0px; fill: rgb(16, 163, 127); fill-opacity: 1;"/></g><g class="text"/></g><g class="trace scatter trace64f1b6" style="stroke-miterlimit: 2; opacity: 1;"><g class="fills"/><g class="errorbars"><g class="errorbar" style="opacity: 1;"><path class="yerror" d="M25.95,340.52h8m-4,0V342.14m-4,0h8" style="vector-effect: none; stroke-width: 2px; stroke: rgb(116, 170, 156); stroke-opacity: 1;"/></g><g class="errorbar" style="opacity: 1;"><path class="yerror" d="M74.74,294.95h8m-4,0V301.83m-4,0h8" style="vector-effect: none; stroke-width: 2px; stroke: rgb(116, 170, 156); stroke-opacity: 1;"/></g><g class="errorbar" style="opacity: 1;"><path class="yerror" d="M123.53,255.69h8m-4,0V269.39m-4,0h8" style="vector-effect: none; stroke-width: 2px; stroke: rgb(116, 170, 156); stroke-opacity: 1;"/></g><g class="errorbar" style="opacity: 1;"><path class="yerror" d="M172.32,214.05h8m-4,0V235.16m-4,0h8" style="vector-effect: none; stroke-width: 2px; stroke: rgb(116, 170, 156); stroke-opacity: 1;"/></g><g class="errorbar" style="opacity: 1;"><path class="yerror" d="M221.11,177.13h8m-4,0V205.38m-4,0h8" style="vector-effect: none; stroke-width: 2px; stroke: rgb(116, 170, 156); stroke-opacity: 1;"/></g><g class="errorbar" style="opacity: 1;"><path class="yerror" d="M269.89,141.41h8m-4,0V177.73m-4,0h8" style="vector-effect: none; stroke-width: 2px; stroke: rgb(116, 170, 156); stroke-opacity: 1;"/></g><g class="errorbar" style="opacity: 1;"><path class="yerror" d="M318.68,106.06h8m-4,0V150.55m-4,0h8" style="vector-effect: none; stroke-width: 2px; stroke: rgb(116, 170, 156); stroke-opacity: 1;"/></g><g class="errorbar" style="opacity: 1;"><path class="yerror" d="M367.47,77.84h8m-4,0V127.91m-4,0h8" style="vector-effect: none; stroke-width: 2px; stroke: rgb(116, 170, 156); stroke-opacity: 1;"/></g><g class="errorbar" style="opacity: 1;"><path class="yerror" d="M416.26,46.2h8m-4,0V103.68m-4,0h8" style="vector-effect: none; stroke-width: 2px; stroke: rgb(116, 170, 156); stroke-opacity: 1;"/></g><g class="errorbar" style="opacity: 1;"><path class="yerror" d="M465.05,18.25h8m-4,0V84.11m-4,0h8" style="vector-effect: none; stroke-width: 2px; stroke: rgb(116, 170, 156); stroke-opacity: 1;"/></g></g><g class="lines"><path class="js-line" d="M29.95,341.33L78.74,298.39L127.53,262.54L176.32,224.6L225.11,191.25L322.68,128.3L371.47,102.87L420.26,74.94L469.05,51.18" style="vector-effect: none; fill: none; stroke: rgb(116, 170, 156); stroke-opacity: 1; stroke-width: 3px; opacity: 1;"/></g><g class="points"><path class="point" transform="translate(29.95,341.33)" d="M4,0A4,4 0 1,1 0,-4A4,4 0 0,1 4,0Z" style="opacity: 1; stroke-width: 0px; fill: rgb(116, 170, 156); fill-opacity: 1;"/><path class="point" transform="translate(78.74,298.39)" d="M4,0A4,4 0 1,1 0,-4A4,4 0 0,1 4,0Z" style="opacity: 1; stroke-width: 0px; fill: rgb(116, 170, 156); fill-opacity: 1;"/><path class="point" transform="translate(127.53,262.54)" d="M4,0A4,4 0 1,1 0,-4A4,4 0 0,1 4,0Z" style="opacity: 1; stroke-width: 0px; fill: rgb(116, 170, 156); fill-opacity: 1;"/><path class="point" transform="translate(176.32,224.6)" d="M4,0A4,4 0 1,1 0,-4A4,4 0 0,1 4,0Z" style="opacity: 1; stroke-width: 0px; fill: rgb(116, 170, 156); fill-opacity: 1;"/><path class="point" transform="translate(225.11,191.25)" d="M4,0A4,4 0 1,1 0,-4A4,4 0 0,1 4,0Z" style="opacity: 1; stroke-width: 0px; fill: rgb(116, 170, 156); fill-opacity: 1;"/><path class="point" transform="translate(273.89,159.57)" d="M4,0A4,4 0 1,1 0,-4A4,4 0 0,1 4,0Z" style="opacity: 1; stroke-width: 0px; fill: rgb(116, 170, 156); fill-opacity: 1;"/><path class="point" transform="translate(322.68,128.3)" d="M4,0A4,4 0 1,1 0,-4A4,4 0 0,1 4,0Z" style="opacity: 1; stroke-width: 0px; fill: rgb(116, 170, 156); fill-opacity: 1;"/><path class="point" transform="translate(371.47,102.87)" d="M4,0A4,4 0 1,1 0,-4A4,4 0 0,1 4,0Z" style="opacity: 1; stroke-width: 0px; fill: rgb(116, 170, 156); fill-opacity: 1;"/><path class="point" transform="translate(420.26,74.94)" d="M4,0A4,4 0 1,1 0,-4A4,4 0 0,1 4,0Z" style="opacity: 1; stroke-width: 0px; fill: rgb(116, 170, 156); fill-opacity: 1;"/><path class="point" transform="translate(469.05,51.18)" d="M4,0A4,4 0 1,1 0,-4A4,4 0 0,1 4,0Z" style="opacity: 1; stroke-width: 0px; fill: rgb(116, 170, 156); fill-opacity: 1;"/></g><g class="text"/></g><g class="trace scatter tracef92920" style="stroke-miterlimit: 2; opacity: 1;"><g class="fills"/><g class="errorbars"><g class="errorbar" style="opacity: 1;"><path class="yerror" d="M25.95,341.75h8m-4,0V341.75m-4,0h8" style="vector-effect: none; stroke-width: 2px; stroke: rgb(66, 133, 244); stroke-opacity: 1;"/></g><g class="errorbar" style="opacity: 1;"><path class="yerror" d="M74.74,297.61h8m-4,0V306.85m-4,0h8" style="vector-effect: none; stroke-width: 2px; stroke: rgb(66, 133, 244); stroke-opacity: 1;"/></g><g class="errorbar" style="opacity: 1;"><path class="yerror" d="M123.53,256.73h8m-4,0V273.69m-4,0h8" style="vector-effect: none; stroke-width: 2px; stroke: rgb(66, 133, 244); stroke-opacity: 1;"/></g><g class="errorbar" style="opacity: 1;"><path class="yerror" d="M172.32,218.28h8m-4,0V243.11m-4,0h8" style="vector-effect: none; stroke-width: 2px; stroke: rgb(66, 133, 244); stroke-opacity: 1;"/></g><g class="errorbar" style="opacity: 1;"><path class="yerror" d="M221.11,182.68h8m-4,0V214.67m-4,0h8" style="vector-effect: none; stroke-width: 2px; stroke: rgb(66, 133, 244); stroke-opacity: 1;"/></g><g class="errorbar" style="opacity: 1;"><path class="yerror" d="M269.89,147.9h8m-4,0V188.42m-4,0h8" style="vector-effect: none; stroke-width: 2px; stroke: rgb(66, 133, 244); stroke-opacity: 1;"/></g><g class="errorbar" style="opacity: 1;"><path class="yerror" d="M318.68,114.14h8m-4,0V164.15m-4,0h8" style="vector-effect: none; stroke-width: 2px; stroke: rgb(66, 133, 244); stroke-opacity: 1;"/></g><g class="errorbar" style="opacity: 1;"><path class="yerror" d="M367.47,83.37h8m-4,0V141.89m-4,0h8" style="vector-effect: none; stroke-width: 2px; stroke: rgb(66, 133, 244); stroke-opacity: 1;"/></g><g class="errorbar" style="opacity: 1;"><path class="yerror" d="M416.26,50.96h8m-4,0V118.27m-4,0h8" style="vector-effect: none; stroke-width: 2px; stroke: rgb(66, 133, 244); stroke-opacity: 1;"/></g><g class="errorbar" style="opacity: 1;"><path class="yerror" d="M465.05,20.49h8m-4,0V95.71m-4,0h8" style="vector-effect: none; stroke-width: 2px; stroke: rgb(66, 133, 244); stroke-opacity: 1;"/></g></g><g class="lines"><path class="js-line" d="M29.95,341.75L78.74,302.23L127.53,265.21L176.32,230.69L225.11,198.67L273.89,168.16L322.68,139.14L371.47,112.63L420.26,84.61L469.05,58.1" style="vector-effect: none; fill: none; stroke: rgb(66, 133, 244); stroke-opacity: 1; stroke-width: 3px; opacity: 1;"/></g><g class="points"><path class="point" transform="translate(29.95,341.75)" d="M4,0A4,4 0 1,1 0,-4A4,4 0 0,1 4,0Z" style="opacity: 1; stroke-width: 0px; fill: rgb(66, 133, 244); fill-opacity: 1;"/><path class="point" transform="translate(78.74,302.23)" d="M4,0A4,4 0 1,1 0,-4A4,4 0 0,1 4,0Z" style="opacity: 1; stroke-width: 0px; fill: rgb(66, 133, 244); fill-opacity: 1;"/><path class="point" transform="translate(127.53,265.21)" d="M4,0A4,4 0 1,1 0,-4A4,4 0 0,1 4,0Z" style="opacity: 1; stroke-width: 0px; fill: rgb(66, 133, 244); fill-opacity: 1;"/><path class="point" transform="translate(176.32,230.69)" d="M4,0A4,4 0 1,1 0,-4A4,4 0 0,1 4,0Z" style="opacity: 1; stroke-width: 0px; fill: rgb(66, 133, 244); fill-opacity: 1;"/><path class="point" transform="translate(225.11,198.67)" d="M4,0A4,4 0 1,1 0,-4A4,4 0 0,1 4,0Z" style="opacity: 1; stroke-width: 0px; fill: rgb(66, 133, 244); fill-opacity: 1;"/><path class="point" transform="translate(273.89,168.16)" d="M4,0A4,4 0 1,1 0,-4A4,4 0 0,1 4,0Z" style="opacity: 1; stroke-width: 0px; fill: rgb(66, 133, 244); fill-opacity: 1;"/><path class="point" transform="translate(322.68,139.14)" d="M4,0A4,4 0 1,1 0,-4A4,4 0 0,1 4,0Z" style="opacity: 1; stroke-width: 0px; fill: rgb(66, 133, 244); fill-opacity: 1;"/><path class="point" transform="translate(371.47,112.63)" d="M4,0A4,4 0 1,1 0,-4A4,4 0 0,1 4,0Z" style="opacity: 1; stroke-width: 0px; fill: rgb(66, 133, 244); fill-opacity: 1;"/><path class="point" transform="translate(420.26,84.61)" d="M4,0A4,4 0 1,1 0,-4A4,4 0 0,1 4,0Z" style="opacity: 1; stroke-width: 0px; fill: rgb(66, 133, 244); fill-opacity: 1;"/><path class="point" transform="translate(469.05,58.1)" d="M4,0A4,4 0 1,1 0,-4A4,4 0 0,1 4,0Z" style="opacity: 1; stroke-width: 0px; fill: rgb(66, 133, 244); fill-opacity: 1;"/></g><g class="text"/></g></g></g></g><path class="xlines-above crisp" d="M0,0" style="fill: none;"/><path class="ylines-above crisp" d="M0,0" style="fill: none;"/><g class="overlines-above"/><g class="xaxislayer-above"><g class="xtick"><text text-anchor="middle" x="0" y="439" transform="translate(83.95,0)" style="font-family: Inter, Arial; font-size: 13px; fill: rgb(26, 26, 46); fill-opacity: 1; white-space: pre; opacity: 1;">1</text></g><g class="xtick"><text text-anchor="middle" x="0" y="439" style="font-family: Inter, Arial; font-size: 13px; fill: rgb(26, 26, 46); fill-opacity: 1; white-space: pre; opacity: 1;" transform="translate(132.74,0)">2</text></g><g class="xtick"><text text-anchor="middle" x="0" y="439" style="font-family: Inter, Arial; font-size: 13px; fill: rgb(26, 26, 46); fill-opacity: 1; white-space: pre; opacity: 1;" transform="translate(181.53,0)">3</text></g><g class="xtick"><text text-anchor="middle" x="0" y="439" style="font-family: Inter, Arial; font-size: 13px; fill: rgb(26, 26, 46); fill-opacity: 1; white-space: pre; opacity: 1;" transform="translate(230.32,0)">4</text></g><g class="xtick"><text text-anchor="middle" x="0" y="439" style="font-family: Inter, Arial; font-size: 13px; fill: rgb(26, 26, 46); fill-opacity: 1; white-space: pre; opacity: 1;" transform="translate(279.11,0)">5</text></g><g class="xtick"><text text-anchor="middle" x="0" y="439" style="font-family: Inter, Arial; font-size: 13px; fill: rgb(26, 26, 46); fill-opacity: 1; white-space: pre; opacity: 1;" transform="translate(327.89,0)">6</text></g><g class="xtick"><text text-anchor="middle" x="0" y="439" style="font-family: Inter, Arial; font-size: 13px; fill: rgb(26, 26, 46); fill-opacity: 1; white-space: pre; opacity: 1;" transform="translate(376.68,0)">7</text></g><g class="xtick"><text text-anchor="middle" x="0" y="439" style="font-family: Inter, Arial; font-size: 13px; fill: rgb(26, 26, 46); fill-opacity: 1; white-space: pre; opacity: 1;" transform="translate(425.47,0)">8</text></g><g class="xtick"><text text-anchor="middle" x="0" y="439" style="font-family: Inter, Arial; font-size: 13px; fill: rgb(26, 26, 46); fill-opacity: 1; white-space: pre; opacity: 1;" transform="translate(474.26,0)">9</text></g><g class="xtick"><text text-anchor="middle" x="0" y="439" style="font-family: Inter, Arial; font-size: 13px; fill: rgb(26, 26, 46); fill-opacity: 1; white-space: pre; opacity: 1;" transform="translate(523.05,0)">10</text></g></g><g class="yaxislayer-above"><g class="ytick"><text text-anchor="end" x="53" y="4.55" transform="translate(0,401.75)" style="font-family: Inter, Arial; font-size: 13px; fill: rgb(26, 26, 46); fill-opacity: 1; white-space: pre; opacity: 1;">2</text></g><g class="ytick"><text text-anchor="end" x="53" y="4.55" style="font-family: Inter, Arial; font-size: 13px; fill: rgb(26, 26, 46); fill-opacity: 1; white-space: pre; opacity: 1;" transform="translate(0,351.72)">4</text></g><g class="ytick"><text text-anchor="end" x="53" y="4.55" style="font-family: Inter, Arial; font-size: 13px; fill: rgb(26, 26, 46); fill-opacity: 1; white-space: pre; opacity: 1;" transform="translate(0,301.7)">6</text></g><g class="ytick"><text text-anchor="end" x="53" y="4.55" style="font-family: Inter, Arial; font-size: 13px; fill: rgb(26, 26, 46); fill-opacity: 1; white-space: pre; opacity: 1;" transform="translate(0,251.67)">8</text></g><g class="ytick"><text text-anchor="end" x="53" y="4.55" style="font-family: Inter, Arial; font-size: 13px; fill: rgb(26, 26, 46); fill-opacity: 1; white-space: pre; opacity: 1;" transform="translate(0,201.64)">10</text></g><g class="ytick"><text text-anchor="end" x="53" y="4.55" style="font-family: Inter, Arial; font-size: 13px; fill: rgb(26, 26, 46); fill-opacity: 1; white-space: pre; opacity: 1;" transform="translate(0,151.62)">12</text></g><g class="ytick"><text text-anchor="end" x="53" y="4.55" style="font-family: Inter, Arial; font-size: 13px; fill: rgb(26, 26, 46); fill-opacity: 1; white-space: pre; opacity: 1;" transform="translate(0,101.59)">14</text></g></g><g class="overaxes-above"/></g></g><g class="polarlayer"/><g class="smithlayer"/><g class="ternarylayer"/><g class="geolayer"/><g class="funnelarealayer"/><g class="pielayer"/><g class="iciclelayer"/><g class="treemaplayer"/><g class="sunburstlayer"/><g class="glimages"/><defs id="topdefs-90e6f4"><g class="clips"/><clipPath id="legend90e6f4"><rect width="125" height="86" x="0" y="0"/></clipPath></defs><g class="layer-above"><g class="imagelayer"/><g class="shapelayer"><g class="shape-group" data-index="0" clip-path="url(#clip90e6f4x)"><path data-index="0" fill-rule="evenodd" d="M327.89,425H523.05V60H327.89Z" style="opacity: 0.1; stroke: rgb(0, 0, 0); stroke-opacity: 0; fill: rgb(102, 102, 102); fill-opacity: 1; stroke-width: 0px;"/></g></g></g><g class="infolayer"><g class="legend" pointer-events="all" transform="translate(562.98,60)"><rect class="bg" shape-rendering="crispEdges" width="125" height="86" x="0" y="0" style="stroke: rgb(68, 68, 68); stroke-opacity: 1; fill: rgb(255, 255, 255); fill-opacity: 1; stroke-width: 0px;"/><g class="scrollbox" transform="" clip-path="url(#legend90e6f4)"><g class="groups"><g class="traces" transform="translate(0,14.5)" style="opacity: 1;"><text class="legendtext" text-anchor="start" x="40" y="4.680000000000001" style="font-family: Inter, Arial; font-size: 12px; fill: rgb(26, 26, 46); fill-opacity: 1; white-space: pre;">Claude Sonnet</text><g class="layers" style="opacity: 1;"><g class="legendfill"/><g class="legendlines"><path class="js-line" d="M5,0h30" style="fill: none; stroke: rgb(212, 168, 67); stroke-opacity: 1; stroke-width: 3px;"/></g><g class="legendsymbols"><g class="legendpoints"><path class="scatterpts" transform="translate(20,0)" d="M4,0A4,4 0 1,1 0,-4A4,4 0 0,1 4,0Z" style="opacity: 1; stroke-width: 0px; fill: rgb(212, 168, 67); fill-opacity: 1;"/></g></g></g><rect class="legendtoggle" x="0" y="-9.5" width="119.40625" height="19" style="fill: rgb(0, 0, 0); fill-opacity: 0;"/></g><g class="traces" transform="translate(0,33.5)" style="opacity: 1;"><text class="legendtext" text-anchor="start" x="40" y="4.680000000000001" style="font-family: Inter, Arial; font-size: 12px; fill: rgb(26, 26, 46); fill-opacity: 1; white-space: pre;">GPT-4o</text><g class="layers" style="opacity: 1;"><g class="legendfill"/><g class="legendlines"><path class="js-line" d="M5,0h30" style="fill: none; stroke: rgb(16, 163, 127); stroke-opacity: 1; stroke-width: 3px;"/></g><g class="legendsymbols"><g class="legendpoints"><path class="scatterpts" transform="translate(20,0)" d="M4,0A4,4 0 1,1 0,-4A4,4 0 0,1 4,0Z" style="opacity: 1; stroke-width: 0px; fill: rgb(16, 163, 127); fill-opacity: 1;"/></g></g></g><rect class="legendtoggle" x="0" y="-9.5" width="119.40625" height="19" style="fill: rgb(0, 0, 0); fill-opacity: 0;"/></g><g class="traces" transform="translate(0,52.5)" style="opacity: 1;"><text class="legendtext" text-anchor="start" x="40" y="4.680000000000001" style="font-family: Inter, Arial; font-size: 12px; fill: rgb(26, 26, 46); fill-opacity: 1; white-space: pre;">GPT-4o-mini</text><g class="layers" style="opacity: 1;"><g class="legendfill"/><g class="legendlines"><path class="js-line" d="M5,0h30" style="fill: none; stroke: rgb(116, 170, 156); stroke-opacity: 1; stroke-width: 3px;"/></g><g class="legendsymbols"><g class="legendpoints"><path class="scatterpts" transform="translate(20,0)" d="M4,0A4,4 0 1,1 0,-4A4,4 0 0,1 4,0Z" style="opacity: 1; stroke-width: 0px; fill: rgb(116, 170, 156); fill-opacity: 1;"/></g></g></g><rect class="legendtoggle" x="0" y="-9.5" width="119.40625" height="19" style="fill: rgb(0, 0, 0); fill-opacity: 0;"/></g><g class="traces" transform="translate(0,71.5)" style="opacity: 1;"><text class="legendtext" text-anchor="start" x="40" y="4.680000000000001" style="font-family: Inter, Arial; font-size: 12px; fill: rgb(26, 26, 46); fill-opacity: 1; white-space: pre;">Gemini Flash</text><g class="layers" style="opacity: 1;"><g class="legendfill"/><g class="legendlines"><path class="js-line" d="M5,0h30" style="fill: none; stroke: rgb(66, 133, 244); stroke-opacity: 1; stroke-width: 3px;"/></g><g class="legendsymbols"><g class="legendpoints"><path class="scatterpts" transform="translate(20,0)" d="M4,0A4,4 0 1,1 0,-4A4,4 0 0,1 4,0Z" style="opacity: 1; stroke-width: 0px; fill: rgb(66, 133, 244); fill-opacity: 1;"/></g></g></g><rect class="legendtoggle" x="0" y="-9.5" width="119.40625" height="19" style="fill: rgb(0, 0, 0); fill-opacity: 0;"/></g></g></g><rect class="scrollbar" rx="20" ry="3" width="0" height="0" x="0" y="0" style="fill: rgb(128, 139, 164); fill-opacity: 1;"/></g><g class="g-gtitle"><text class="gtitle" x="35" y="30" text-anchor="start" dy="0em" style="opacity: 1; font-family: Inter, Arial; font-size: 18px; fill: rgb(26, 26, 46); fill-opacity: 1; white-space: pre;">Repertoire Exhaustion: Cumulative Tactics by Turn</text></g><g class="g-xtitle"><text class="xtitle" x="303.5" y="467.7" text-anchor="middle" style="opacity: 1; font-family: Inter, Arial; font-size: 16px; fill: rgb(26, 26, 46); fill-opacity: 1; white-space: pre;">Turn Number</text></g><g class="g-ytitle"><text class="ytitle" transform="rotate(-90,18.43125,242.5)" x="18.43125" y="242.5" text-anchor="middle" style="opacity: 1; font-family: Inter, Arial; font-size: 16px; fill: rgb(26, 26, 46); fill-opacity: 1; white-space: pre;">Cumulative Unique Tactics (95% CI)</text></g><g class="annotation" data-index="0" style="opacity: 1;"><g class="annotation-text-g" transform="rotate(0,476.04999999999995,67.5)"><g class="cursor-pointer" transform="translate(429,60)"><rect class="bg" x="0.5" y="0.5" width="93" height="14" style="stroke-width: 1px; stroke: rgb(0, 0, 0); stroke-opacity: 0; fill: rgb(0, 0, 0); fill-opacity: 0;"/><text class="annotation-text" text-anchor="middle" x="46.75" y="11" style="font-family: Inter, Arial; font-size: 10px; fill: rgb(102, 102, 102); fill-opacity: 1; white-space: pre;">Diminishing Returns</text></g></g></g></g></svg>