<svg class="main-svg" xmlns="http://www.w3.org/2000/svg" xmlns:xlink="http://www.w3.org/1999/xlink" width="700" height="420" style="" viewBox="0 0 700 420"><rect x="0" y="0" width="700" height="420" style="fill: rgb(255, 255, 255); fill-opacity: 1;"/><defs id="defs-534696"><g class="clips"><clipPath id="clip534696xyplot" class="plotclip"><rect width="494" height="320"/></clipPath><clipPath class="axesclip" id="clip534696x"><rect x="54" y="0" width="494" height="420"/></clipPath><clipPath class="axesclip" id="clip534696y"><rect x="0" y="60" width="700" height="320"/></clipPath><clipPath class="axesclip" id="clip534696xy"><rect x="54" y="60" width="494" height="320"/></clipPath></g><g class="gradients"/><g class="patterns"/></defs><g class="bglayer"/><g class="layer-below"><g class="imagelayer"/><g class="shapelayer"/></g><g class="cartesianlayer"><g class="subplot xy"><g class="layer-subplot"><g class="shapelayer"/><g class="imagelayer"/></g><g class="minor-gridlayer"><g class="x"/><g class="y"/></g><g class="gridlayer"><g class="x"><path class="xgrid crisp" transform="translate(177.5,0)" d="M0,60v320" style="stroke: rgb(224, 224, 224); stroke-opacity: 1; stroke-width: 1px;"/><path class="xgrid crisp" transform="translate(424.5,0)" d="M0,60v320" style="stroke: rgb(224, 224, 224); stroke-opacity: 1; stroke-width: 1px;"/></g><g class="y"><path class="ygrid crisp" transform="translate(0,364)" d="M54,0h494" style="stroke: rgb(224, 224, 224); stroke-opacity: 1; stroke-width: 1px;"/><path class="ygrid crisp" transform="translate(0,324.95)" d="M54,0h494" style="stroke: rgb(224, 224, 224); stroke-opacity: 1; stroke-width: 1px;"/><path class="ygrid crisp" transform="translate(0,285.9)" d="M54,0h494" style="stroke: rgb(224, 224, 224); stroke-opacity: 1; stroke-width: 1px;"/><path class="ygrid crisp" transform="translate(0,207.8)" d="M54,0h494" style="stroke: rgb(224, 224, 224); stroke-opacity: 1; stroke-width: 1px;"/><path class="ygrid crisp" transform="translate(0,168.75)" d="M54,0h494" style="stroke: rgb(224, 224, 224); stroke-opacity: 1; stroke-width: 1px;"/><path class="ygrid crisp" transform="translate(0,129.69)" d="M54,0h494" style="stroke: rgb(224, 224, 224); stroke-opacity: 1; stroke-width: 1px;"/><path class="ygrid crisp" transform="translate(0,90.64)" d="M54,0h494" style="stroke: rgb(224, 224, 224); stroke-opacity: 1; stroke-width: 1px;"/></g></g><g class="zerolinelayer"><path class="yzl zl crisp" transform="translate(0,246.85)" d="M54,0h494" style="stroke: rgb(255, 255, 255); stroke-opacity: 1; stroke-width: 2px;"/></g><g class="layer-between"><g class="shapelayer"/><g class="imagelayer"/></g><path class="xlines-below"/><path class="ylines-below"/><g class="overlines-below"/><g class="xaxislayer-below"/><g class="yaxislayer-below"/><g class="overaxes-below"/><g class="overplot"><g class="xy" transform="translate(54,60)" clip-path="url(#clip534696xyplot)"><g class="boxlayer mlayer"><g class="trace boxes" style="opacity: 1;"><path class="box" d="M62.99,147.8H184.02M62.99,169.76H184.02V133.15H62.99ZM123.5,169.76V223.46M123.5,133.15V78.24M93.24,223.46H153.76M93.24,78.24H153.76" style="vector-effect: none; stroke-width: 2px; stroke: rgb(46, 204, 113); stroke-opacity: 1; fill: rgb(46, 204, 113); fill-opacity: 0.5;"/><g class="points"><path class="point" transform="translate(123.5,250.31)" d="M3,0A3,3 0 1,1 0,-3A3,3 0 0,1 3,0Z" style="opacity: 1; stroke-width: 0px; fill: rgb(46, 204, 113); fill-opacity: 1;"/><path class="point" transform="translate(123.5,247.86)" d="M3,0A3,3 0 1,1 0,-3A3,3 0 0,1 3,0Z" style="opacity: 1; stroke-width: 0px; fill: rgb(46, 204, 113); fill-opacity: 1;"/><path class="point" transform="translate(123.5,247.86)" d="M3,0A3,3 0 1,1 0,-3A3,3 0 0,1 3,0Z" style="opacity: 1; stroke-width: 0px; fill: rgb(46, 204, 113); fill-opacity: 1;"/><path class="point" transform="translate(123.5,242.98)" d="M3,0A3,3 0 1,1 0,-3A3,3 0 0,1 3,0Z" style="opacity: 1; stroke-width: 0px; fill: rgb(46, 204, 113); fill-opacity: 1;"/><path class="point" transform="translate(123.5,238.1)" d="M3,0A3,3 0 1,1 0,-3A3,3 0 0,1 3,0Z" style="opacity: 1; stroke-width: 0px; fill: rgb(46, 204, 113); fill-opacity: 1;"/><path class="point" transform="translate(123.5,238.1)" d="M3,0A3,3 0 1,1 0,-3A3,3 0 0,1 3,0Z" style="opacity: 1; stroke-width: 0px; fill: rgb(46, 204, 113); fill-opacity: 1;"/><path class="point" transform="translate(123.5,238.1)" d="M3,0A3,3 0 1,1 0,-3A3,3 0 0,1 3,0Z" style="opacity: 1; stroke-width: 0px; fill: rgb(46, 204, 113); fill-opacity: 1;"/><path class="point" transform="translate(123.5,235.66)" d="M3,0A3,3 0 1,1 0,-3A3,3 0 0,1 3,0Z" style="opacity: 1; stroke-width: 0px; fill: rgb(46, 204, 113); fill-opacity: 1;"/><path class="point" transform="translate(123.5,235.66)" d="M3,0A3,3 0 1,1 0,-3A3,3 0 0,1 3,0Z" style="opacity: 1; stroke-width: 0px; fill: rgb(46, 204, 113); fill-opacity: 1;"/><path class="point" transform="translate(123.5,235.66)" d="M3,0A3,3 0 1,1 0,-3A3,3 0 0,1 3,0Z" style="opacity: 1; stroke-width: 0px; fill: rgb(46, 204, 113); fill-opacity: 1;"/><path class="point" transform="translate(123.5,235.66)" d="M3,0A3,3 0 1,1 0,-3A3,3 0 0,1 3,0Z" style="opacity: 1; stroke-width: 0px; fill: rgb(46, 204, 113); fill-opacity: 1;"/><path class="point" transform="translate(123.5,234.44)" d="M3,0A3,3 0 1,1 0,-3A3,3 0 0,1 3,0Z" style="opacity: 1; stroke-width: 0px; fill: rgb(46, 204, 113); fill-opacity: 1;"/><path class="point" transform="translate(123.5,233.22)" d="M3,0A3,3 0 1,1 0,-3A3,3 0 0,1 3,0Z" style="opacity: 1; stroke-width: 0px; fill: rgb(46, 204, 113); fill-opacity: 1;"/><path class="point" transform="translate(123.5,233.22)" d="M3,0A3,3 0 1,1 0,-3A3,3 0 0,1 3,0Z" style="opacity: 1; stroke-width: 0px; fill: rgb(46, 204, 113); fill-opacity: 1;"/><path class="point" transform="translate(123.5,233.22)" d="M3,0A3,3 0 1,1 0,-3A3,3 0 0,1 3,0Z" style="opacity: 1; stroke-width: 0px; fill: rgb(46, 204, 113); fill-opacity: 1;"/><path class="point" transform="translate(123.5,230.78)" d="M3,0A3,3 0 1,1 0,-3A3,3 0 0,1 3,0Z" style="opacity: 1; stroke-width: 0px; fill: rgb(46, 204, 113); fill-opacity: 1;"/><path class="point" transform="translate(123.5,230.78)" d="M3,0A3,3 0 1,1 0,-3A3,3 0 0,1 3,0Z" style="opacity: 1; stroke-width: 0px; fill: rgb(46, 204, 113); fill-opacity: 1;"/><path class="point" transform="translate(123.5,230.78)" d="M3,0A3,3 0 1,1 0,-3A3,3 0 0,1 3,0Z" style="opacity: 1; stroke-width: 0px; fill: rgb(46, 204, 113); fill-opacity: 1;"/><path class="point" transform="translate(123.5,230.78)" d="M3,0A3,3 0 1,1 0,-3A3,3 0 0,1 3,0Z" style="opacity: 1; stroke-width: 0px; fill: rgb(46, 204, 113); fill-opacity: 1;"/><path class="point" transform="translate(123.5,230.78)" d="M3,0A3,3 0 1,1 0,-3A3,3 0 0,1 3,0Z" style="opacity: 1; stroke-width: 0px; fill: rgb(46, 204, 113); fill-opacity: 1;"/><path class="point" transform="translate(123.5,228.34)" d="M3,0A3,3 0 1,1 0,-3A3,3 0 0,1 3,0Z" style="opacity: 1; stroke-width: 0px; fill: rgb(46, 204, 113); fill-opacity: 1;"/><path class="point" transform="translate(123.5,228.34)" d="M3,0A3,3 0 1,1 0,-3A3,3 0 0,1 3,0Z" style="opacity: 1; stroke-width: 0px; fill: rgb(46, 204, 113); fill-opacity: 1;"/><path class="point" transform="translate(123.5,228.34)" d="M3,0A3,3 0 1,1 0,-3A3,3 0 0,1 3,0Z" style="opacity: 1; stroke-width: 0px; fill: rgb(46, 204, 113); fill-opacity: 1;"/><path class="point" transform="translate(123.5,228.34)" d="M3,0A3,3 0 1,1 0,-3A3,3 0 0,1 3,0Z" style="opacity: 1; stroke-width: 0px; fill: rgb(46, 204, 113); fill-opacity: 1;"/><path class="point" transform="translate(123.5,228.34)" d="M3,0A3,3 0 1,1 0,-3A3,3 0 0,1 3,0Z" style="opacity: 1; stroke-width: 0px; fill: rgb(46, 204, 113); fill-opacity: 1;"/><path class="point" transform="translate(123.5,228.34)" d="M3,0A3,3 0 1,1 0,-3A3,3 0 0,1 3,0Z" style="opacity: 1; stroke-width: 0px; fill: rgb(46, 204, 113); fill-opacity: 1;"/><path class="point" transform="translate(123.5,228.34)" d="M3,0A3,3 0 1,1 0,-3A3,3 0 0,1 3,0Z" style="opacity: 1; stroke-width: 0px; fill: rgb(46, 204, 113); fill-opacity: 1;"/><path class="point" transform="translate(123.5,228.34)" d="M3,0A3,3 0 1,1 0,-3A3,3 0 0,1 3,0Z" style="opacity: 1; stroke-width: 0px; fill: rgb(46, 204, 113); fill-opacity: 1;"/><path class="point" transform="translate(123.5,228.34)" d="M3,0A3,3 0 1,1 0,-3A3,3 0 0,1 3,0Z" style="opacity: 1; stroke-width: 0px; fill: rgb(46, 204, 113); fill-opacity: 1;"/><path class="point" transform="translate(123.5,228.34)" d="M3,0A3,3 0 1,1 0,-3A3,3 0 0,1 3,0Z" style="opacity: 1; stroke-width: 0px; fill: rgb(46, 204, 113); fill-opacity: 1;"/><path class="point" transform="translate(123.5,228.34)" d="M3,0A3,3 0 1,1 0,-3A3,3 0 0,1 3,0Z" style="opacity: 1; stroke-width: 0px; fill: rgb(46, 204, 113); fill-opacity: 1;"/><path class="point" transform="translate(123.5,228.34)" d="M3,0A3,3 0 1,1 0,-3A3,3 0 0,1 3,0Z" style="opacity: 1; stroke-width: 0px; fill: rgb(46, 204, 113); fill-opacity: 1;"/><path class="point" transform="translate(123.5,227.12)" d="M3,0A3,3 0 1,1 0,-3A3,3 0 0,1 3,0Z" style="opacity: 1; stroke-width: 0px; fill: rgb(46, 204, 113); fill-opacity: 1;"/><path class="point" transform="translate(123.5,225.9)" d="M3,0A3,3 0 1,1 0,-3A3,3 0 0,1 3,0Z" style="opacity: 1; stroke-width: 0px; fill: rgb(46, 204, 113); fill-opacity: 1;"/><path class="point" transform="translate(123.5,225.9)" d="M3,0A3,3 0 1,1 0,-3A3,3 0 0,1 3,0Z" style="opacity: 1; stroke-width: 0px; fill: rgb(46, 204, 113); fill-opacity: 1;"/><path class="point" transform="translate(123.5,225.9)" d="M3,0A3,3 0 1,1 0,-3A3,3 0 0,1 3,0Z" style="opacity: 1; stroke-width: 0px; fill: rgb(46, 204, 113); fill-opacity: 1;"/><path class="point" transform="translate(123.5,225.9)" d="M3,0A3,3 0 1,1 0,-3A3,3 0 0,1 3,0Z" style="opacity: 1; stroke-width: 0px; fill: rgb(46, 204, 113); fill-opacity: 1;"/><path class="point" transform="translate(123.5,225.9)" d="M3,0A3,3 0 1,1 0,-3A3,3 0 0,1 3,0Z" style="opacity: 1; stroke-width: 0px; fill: rgb(46, 204, 113); fill-opacity: 1;"/><path class="point" transform="translate(123.5,77.02)" d="M3,0A3,3 0 1,1 0,-3A3,3 0 0,1 3,0Z" style="opacity: 1; stroke-width: 0px; fill: rgb(46, 204, 113); fill-opacity: 1;"/><path class="point" transform="translate(123.5,77.02)" d="M3,0A3,3 0 1,1 0,-3A3,3 0 0,1 3,0Z" style="opacity: 1; stroke-width: 0px; fill: rgb(46, 204, 113); fill-opacity: 1;"/><path class="point" transform="translate(123.5,73.36)" d="M3,0A3,3 0 1,1 0,-3A3,3 0 0,1 3,0Z" style="opacity: 1; stroke-width: 0px; fill: rgb(46, 204, 113); fill-opacity: 1;"/><path class="point" transform="translate(123.5,69.69)" d="M3,0A3,3 0 1,1 0,-3A3,3 0 0,1 3,0Z" style="opacity: 1; stroke-width: 0px; fill: rgb(46, 204, 113); fill-opacity: 1;"/><path class="point" transform="translate(123.5,69.69)" d="M3,0A3,3 0 1,1 0,-3A3,3 0 0,1 3,0Z" style="opacity: 1; stroke-width: 0px; fill: rgb(46, 204, 113); fill-opacity: 1;"/><path class="point" transform="translate(123.5,69.69)" d="M3,0A3,3 0 1,1 0,-3A3,3 0 0,1 3,0Z" style="opacity: 1; stroke-width: 0px; fill: rgb(46, 204, 113); fill-opacity: 1;"/><path class="point" transform="translate(123.5,69.69)" d="M3,0A3,3 0 1,1 0,-3A3,3 0 0,1 3,0Z" style="opacity: 1; stroke-width: 0px; fill: rgb(46, 204, 113); fill-opacity: 1;"/><path class="point" transform="translate(123.5,69.69)" d="M3,0A3,3 0 1,1 0,-3A3,3 0 0,1 3,0Z" style="opacity: 1; stroke-width: 0px; fill: rgb(46, 204, 113); fill-opacity: 1;"/><path class="point" transform="translate(123.5,66.03)" d="M3,0A3,3 0 1,1 0,-3A3,3 0 0,1 3,0Z" style="opacity: 1; stroke-width: 0px; fill: rgb(46, 204, 113); fill-opacity: 1;"/><path class="point" transform="translate(123.5,64.81)" d="M3,0A3,3 0 1,1 0,-3A3,3 0 0,1 3,0Z" style="opacity: 1; stroke-width: 0px; fill: rgb(46, 204, 113); fill-opacity: 1;"/><path class="point" transform="translate(123.5,64.81)" d="M3,0A3,3 0 1,1 0,-3A3,3 0 0,1 3,0Z" style="opacity: 1; stroke-width: 0px; fill: rgb(46, 204, 113); fill-opacity: 1;"/><path class="point" transform="translate(123.5,63.59)" d="M3,0A3,3 0 1,1 0,-3A3,3 0 0,1 3,0Z" style="opacity: 1; stroke-width: 0px; fill: rgb(46, 204, 113); fill-opacity: 1;"/><path class="point" transform="translate(123.5,59.93)" d="M3,0A3,3 0 1,1 0,-3A3,3 0 0,1 3,0Z" style="opacity: 1; stroke-width: 0px; fill: rgb(46, 204, 113); fill-opacity: 1;"/><path class="point" transform="translate(123.5,59.93)" d="M3,0A3,3 0 1,1 0,-3A3,3 0 0,1 3,0Z" style="opacity: 1; stroke-width: 0px; fill: rgb(46, 204, 113); fill-opacity: 1;"/><path class="point" transform="translate(123.5,59.93)" d="M3,0A3,3 0 1,1 0,-3A3,3 0 0,1 3,0Z" style="opacity: 1; stroke-width: 0px; fill: rgb(46, 204, 113); fill-opacity: 1;"/><path class="point" transform="translate(123.5,58.71)" d="M3,0A3,3 0 1,1 0,-3A3,3 0 0,1 3,0Z" style="opacity: 1; stroke-width: 0px; fill: rgb(46, 204, 113); fill-opacity: 1;"/><path class="point" transform="translate(123.5,57.49)" d="M3,0A3,3 0 1,1 0,-3A3,3 0 0,1 3,0Z" style="opacity: 1; stroke-width: 0px; fill: rgb(46, 204, 113); fill-opacity: 1;"/><path class="point" transform="translate(123.5,57.49)" d="M3,0A3,3 0 1,1 0,-3A3,3 0 0,1 3,0Z" style="opacity: 1; stroke-width: 0px; fill: rgb(46, 204, 113); fill-opacity: 1;"/><path class="point" transform="translate(123.5,57.49)" d="M3,0A3,3 0 1,1 0,-3A3,3 0 0,1 3,0Z" style="opacity: 1; stroke-width: 0px; fill: rgb(46, 204, 113); fill-opacity: 1;"/><path class="point" transform="translate(123.5,57.49)" d="M3,0A3,3 0 1,1 0,-3A3,3 0 0,1 3,0Z" style="opacity: 1; stroke-width: 0px; fill: rgb(46, 204, 113); fill-opacity: 1;"/><path class="point" transform="translate(123.5,55.05)" d="M3,0A3,3 0 1,1 0,-3A3,3 0 0,1 3,0Z" style="opacity: 1; stroke-width: 0px; fill: rgb(46, 204, 113); fill-opacity: 1;"/><path class="point" transform="translate(123.5,55.05)" d="M3,0A3,3 0 1,1 0,-3A3,3 0 0,1 3,0Z" style="opacity: 1; stroke-width: 0px; fill: rgb(46, 204, 113); fill-opacity: 1;"/><path class="point" transform="translate(123.5,55.05)" d="M3,0A3,3 0 1,1 0,-3A3,3 0 0,1 3,0Z" style="opacity: 1; stroke-width: 0px; fill: rgb(46, 204, 113); fill-opacity: 1;"/><path class="point" transform="translate(123.5,53.83)" d="M3,0A3,3 0 1,1 0,-3A3,3 0 0,1 3,0Z" style="opacity: 1; stroke-width: 0px; fill: rgb(46, 204, 113); fill-opacity: 1;"/><path class="point" transform="translate(123.5,52.61)" d="M3,0A3,3 0 1,1 0,-3A3,3 0 0,1 3,0Z" style="opacity: 1; stroke-width: 0px; fill: rgb(46, 204, 113); fill-opacity: 1;"/><path class="point" transform="translate(123.5,50.17)" d="M3,0A3,3 0 1,1 0,-3A3,3 0 0,1 3,0Z" style="opacity: 1; stroke-width: 0px; fill: rgb(46, 204, 113); fill-opacity: 1;"/><path class="point" transform="translate(123.5,50.17)" d="M3,0A3,3 0 1,1 0,-3A3,3 0 0,1 3,0Z" style="opacity: 1; stroke-width: 0px; fill: rgb(46, 204, 113); fill-opacity: 1;"/><path class="point" transform="translate(123.5,50.17)" d="M3,0A3,3 0 1,1 0,-3A3,3 0 0,1 3,0Z" style="opacity: 1; stroke-width: 0px; fill: rgb(46, 204, 113); fill-opacity: 1;"/><path class="point" transform="translate(123.5,50.17)" d="M3,0A3,3 0 1,1 0,-3A3,3 0 0,1 3,0Z" style="opacity: 1; stroke-width: 0px; fill: rgb(46, 204, 113); fill-opacity: 1;"/><path class="point" transform="translate(123.5,47.73)" d="M3,0A3,3 0 1,1 0,-3A3,3 0 0,1 3,0Z" style="opacity: 1; stroke-width: 0px; fill: rgb(46, 204, 113); fill-opacity: 1;"/><path class="point" transform="translate(123.5,28.2)" d="M3,0A3,3 0 1,1 0,-3A3,3 0 0,1 3,0Z" style="opacity: 1; stroke-width: 0px; fill: rgb(46, 204, 113); fill-opacity: 1;"/><path class="point" transform="translate(123.5,26.98)" d="M3,0A3,3 0 1,1 0,-3A3,3 0 0,1 3,0Z" style="opacity: 1; stroke-width: 0px; fill: rgb(46, 204, 113); fill-opacity: 1;"/><path class="point" transform="translate(123.5,25.76)" d="M3,0A3,3 0 1,1 0,-3A3,3 0 0,1 3,0Z" style="opacity: 1; stroke-width: 0px; fill: rgb(46, 204, 113); fill-opacity: 1;"/><path class="point" transform="translate(123.5,23.32)" d="M3,0A3,3 0 1,1 0,-3A3,3 0 0,1 3,0Z" style="opacity: 1; stroke-width: 0px; fill: rgb(46, 204, 113); fill-opacity: 1;"/><path class="point" transform="translate(123.5,23.32)" d="M3,0A3,3 0 1,1 0,-3A3,3 0 0,1 3,0Z" style="opacity: 1; stroke-width: 0px; fill: rgb(46, 204, 113); fill-opacity: 1;"/><path class="point" transform="translate(123.5,20.88)" d="M3,0A3,3 0 1,1 0,-3A3,3 0 0,1 3,0Z" style="opacity: 1; stroke-width: 0px; fill: rgb(46, 204, 113); fill-opacity: 1;"/><path class="point" transform="translate(123.5,18.44)" d="M3,0A3,3 0 1,1 0,-3A3,3 0 0,1 3,0Z" style="opacity: 1; stroke-width: 0px; fill: rgb(46, 204, 113); fill-opacity: 1;"/><path class="point" transform="translate(123.5,16)" d="M3,0A3,3 0 1,1 0,-3A3,3 0 0,1 3,0Z" style="opacity: 1; stroke-width: 0px; fill: rgb(46, 204, 113); fill-opacity: 1;"/></g><path class="mean" d="M62.99,151.87H184.02" style="fill: none; vector-effect: non-scaling-stroke; stroke-width: 2; stroke-dasharray: 4px, 2px; stroke: rgb(46, 204, 113); stroke-opacity: 1;"/></g><g class="trace boxes" style="opacity: 1;"><path class="box" d="M309.99,250.31H431.02M309.99,260.07H431.02V242.98H309.99ZM370.5,260.07V284.47M370.5,242.98V223.46M340.24,284.47H400.76M340.24,223.46H400.76" style="vector-effect: none; stroke-width: 2px; stroke: rgb(201, 54, 62); stroke-opacity: 1; fill: rgb(201, 54, 62); fill-opacity: 0.5;"/><g class="points"><path class="point" transform="translate(370.5,304)" d="M3,0A3,3 0 1,1 0,-3A3,3 0 0,1 3,0Z" style="opacity: 1; stroke-width: 0px; fill: rgb(201, 54, 62); fill-opacity: 1;"/><path class="point" transform="translate(370.5,302.78)" d="M3,0A3,3 0 1,1 0,-3A3,3 0 0,1 3,0Z" style="opacity: 1; stroke-width: 0px; fill: rgb(201, 54, 62); fill-opacity: 1;"/><path class="point" transform="translate(370.5,301.56)" d="M3,0A3,3 0 1,1 0,-3A3,3 0 0,1 3,0Z" style="opacity: 1; stroke-width: 0px; fill: rgb(201, 54, 62); fill-opacity: 1;"/><path class="point" transform="translate(370.5,299.12)" d="M3,0A3,3 0 1,1 0,-3A3,3 0 0,1 3,0Z" style="opacity: 1; stroke-width: 0px; fill: rgb(201, 54, 62); fill-opacity: 1;"/><path class="point" transform="translate(370.5,299.12)" d="M3,0A3,3 0 1,1 0,-3A3,3 0 0,1 3,0Z" style="opacity: 1; stroke-width: 0px; fill: rgb(201, 54, 62); fill-opacity: 1;"/><path class="point" transform="translate(370.5,296.68)" d="M3,0A3,3 0 1,1 0,-3A3,3 0 0,1 3,0Z" style="opacity: 1; stroke-width: 0px; fill: rgb(201, 54, 62); fill-opacity: 1;"/><path class="point" transform="translate(370.5,294.24)" d="M3,0A3,3 0 1,1 0,-3A3,3 0 0,1 3,0Z" style="opacity: 1; stroke-width: 0px; fill: rgb(201, 54, 62); fill-opacity: 1;"/><path class="point" transform="translate(370.5,294.24)" d="M3,0A3,3 0 1,1 0,-3A3,3 0 0,1 3,0Z" style="opacity: 1; stroke-width: 0px; fill: rgb(201, 54, 62); fill-opacity: 1;"/><path class="point" transform="translate(370.5,291.8)" d="M3,0A3,3 0 1,1 0,-3A3,3 0 0,1 3,0Z" style="opacity: 1; stroke-width: 0px; fill: rgb(201, 54, 62); fill-opacity: 1;"/></g><path class="mean" d="M309.99,253.36H431.02" style="fill: none; vector-effect: non-scaling-stroke; stroke-width: 2; stroke-dasharray: 4px, 2px; stroke: rgb(201, 54, 62); stroke-opacity: 1;"/></g></g></g></g><path class="xlines-above crisp" d="M0,0" style="fill: none;"/><path class="ylines-above crisp" d="M0,0" style="fill: none;"/><g class="overlines-above"/><g class="xaxislayer-above"><g class="xtick"><text text-anchor="middle" x="0" y="394" transform="translate(177.5,0)" style="font-family: Inter, Arial; font-size: 13px; fill: rgb(26, 26, 46); fill-opacity: 1; white-space: pre; opacity: 1;">Misinformation</text></g><g class="xtick"><text text-anchor="middle" x="0" y="394" transform="translate(424.5,0)" style="font-family: Inter, Arial; font-size: 13px; fill: rgb(26, 26, 46); fill-opacity: 1; white-space: pre; opacity: 1;">True Claim</text></g></g><g class="yaxislayer-above"><g class="ytick"><text text-anchor="end" x="53" y="4.55" transform="translate(0,364)" style="font-family: Inter, Arial; font-size: 13px; fill: rgb(26, 26, 46); fill-opacity: 1; white-space: pre; opacity: 1;">−6</text></g><g class="ytick"><text text-anchor="end" x="53" y="4.55" style="font-family: Inter, Arial; font-size: 13px; fill: rgb(26, 26, 46); fill-opacity: 1; white-space: pre; opacity: 1;" transform="translate(0,324.95)">−4</text></g><g class="ytick"><text text-anchor="end" x="53" y="4.55" style="font-family: Inter, Arial; font-size: 13px; fill: rgb(26, 26, 46); fill-opacity: 1; white-space: pre; opacity: 1;" transform="translate(0,285.9)">−2</text></g><g class="ytick"><text text-anchor="end" x="53" y="4.55" style="font-family: Inter, Arial; font-size: 13px; fill: rgb(26, 26, 46); fill-opacity: 1; white-space: pre; opacity: 1;" transform="translate(0,246.85)">0</text></g><g class="ytick"><text text-anchor="end" x="53" y="4.55" style="font-family: Inter, Arial; font-size: 13px; fill: rgb(26, 26, 46); fill-opacity: 1; white-space: pre; opacity: 1;" transform="translate(0,207.8)">2</text></g><g class="ytick"><text text-anchor="end" x="53" y="4.55" style="font-family: Inter, Arial; font-size: 13px; fill: rgb(26, 26, 46); fill-opacity: 1; white-space: pre; opacity: 1;" transform="translate(0,168.75)">4</text></g><g class="ytick"><text text-anchor="end" x="53" y="4.55" style="font-family: Inter, Arial; font-size: 13px; fill: rgb(26, 26, 46); fill-opacity: 1; white-space: pre; opacity: 1;" transform="translate(0,129.69)">6</text></g><g class="ytick"><text text-anchor="end" x="53" y="4.55" style="font-family: Inter, Arial; font-size: 13px; fill: rgb(26, 26, 46); fill-opacity: 1; white-space: pre; opacity: 1;" transform="translate(0,90.64)">8</text></g></g><g class="overaxes-above"/></g></g><g class="polarlayer"/><g class="smithlayer"/><g class="ternarylayer"/><g class="geolayer"/><g class="funnelarealayer"/><g class="pielayer"/><g class="iciclelayer"/><g class="treemaplayer"/><g class="sunburstlayer"/><g class="glimages"/><defs id="topdefs-534696"><g class="clips"/><clipPath id="legend534696"><rect width="130" height="50" x="0" y="0"/></clipPath></defs><g class="layer-above"><g class="imagelayer"/><g class="shapelayer"><g class="shape-group" data-index="0" clip-path="url(#clip534696y)"><path data-index="0" fill-rule="evenodd" d="M54,246.85L548,246.85" style="opacity: 1; stroke: rgb(102, 102, 102); stroke-opacity: 1; fill: rgb(0, 0, 0); fill-opacity: 0; stroke-dasharray: 9px, 9px; stroke-width: 2px;"/></g></g></g><g class="infolayer"><g class="legend" pointer-events="all" transform="translate(557.88,60)"><rect class="bg" shape-rendering="crispEdges" style="stroke: rgb(68, 68, 68); stroke-opacity: 1; fill: rgb(255, 255, 255); fill-opacity: 1; stroke-width: 0px;" width="130" height="50" x="0" y="0"/><g class="scrollbox" transform="" clip-path="url(#legend534696)"><g class="groups"><g class="traces" transform="translate(0,14.950000000000001)" style="opacity: 1;"><text class="legendtext" text-anchor="start" x="40" y="5.07" style="font-family: Inter, Arial; font-size: 13px; fill: rgb(26, 26, 46); fill-opacity: 1; white-space: pre;">Misinformation</text><g class="layers" style="opacity: 1;"><g class="legendfill"/><g class="legendlines"/><g class="legendsymbols"><g class="legendpoints"><path class="legendbox" d="M6,6H-6V-6H6Z" transform="translate(20,0)" style="stroke-width: 2px; fill: rgb(46, 204, 113); fill-opacity: 0.5; stroke: rgb(46, 204, 113); stroke-opacity: 1;"/></g></g></g><rect class="legendtoggle" x="0" y="-9.950000000000001" width="124.53125" height="19.900000000000002" style="fill: rgb(0, 0, 0); fill-opacity: 0;"/></g><g class="traces" transform="translate(0,34.85)" style="opacity: 1;"><text class="legendtext" text-anchor="start" x="40" y="5.07" style="font-family: Inter, Arial; font-size: 13px; fill: rgb(26, 26, 46); fill-opacity: 1; white-space: pre;">True Claim</text><g class="layers" style="opacity: 1;"><g class="legendfill"/><g class="legendlines"/><g class="legendsymbols"><g class="legendpoints"><path class="legendbox" d="M6,6H-6V-6H6Z" transform="translate(20,0)" style="stroke-width: 2px; fill: rgb(201, 54, 62); fill-opacity: 0.5; stroke: rgb(201, 54, 62); stroke-opacity: 1;"/></g></g></g><rect class="legendtoggle" x="0" y="-9.950000000000001" width="124.53125" height="19.900000000000002" style="fill: rgb(0, 0, 0); fill-opacity: 0;"/></g></g></g><rect class="scrollbar" rx="20" ry="3" width="0" height="0" style="fill: rgb(128, 139, 164); fill-opacity: 1;" x="0" y="0"/></g><g class="g-gtitle"><text class="gtitle" x="35" y="30" text-anchor="start" dy="0em" style="opacity: 1; font-family: Inter, Arial; font-size: 18px; fill: rgb(26, 26, 46); fill-opacity: 1; white-space: pre;">Score Margin by Condition</text></g><g class="g-xtitle"/><g class="g-ytitle"><text class="ytitle" transform="rotate(-90,18.071875,220)" x="18.071875" y="220" text-anchor="middle" style="opacity: 1; font-family: Inter, Arial; font-size: 16px; fill: rgb(26, 26, 46); fill-opacity: 1; white-space: pre;">Margin (+= debunker)</text></g></g></svg>