<svg class="main-svg" xmlns="http://www.w3.org/2000/svg" xmlns:xlink="http://www.w3.org/1999/xlink" width="700" height="450" style="" viewBox="0 0 700 450"><rect x="0" y="0" width="700" height="450" style="fill: rgb(255, 255, 255); fill-opacity: 1;"/><defs id="defs-5b6eb8"><g class="clips"><clipPath id="clip5b6eb8xyplot" class="plotclip"><rect width="370" height="335"/></clipPath><clipPath class="axesclip" id="clip5b6eb8x"><rect x="179" y="0" width="370" height="450"/></clipPath><clipPath class="axesclip" id="clip5b6eb8y"><rect x="0" y="60" width="700" height="335"/></clipPath><clipPath class="axesclip" id="clip5b6eb8xy"><rect x="179" y="60" width="370" height="335"/></clipPath></g><g class="gradients"/><g class="patterns"/></defs><g class="bglayer"/><g class="layer-below"><g class="imagelayer"/><g class="shapelayer"/></g><g class="cartesianlayer"><g class="subplot xy"><g class="layer-subplot"><g class="shapelayer"/><g class="imagelayer"/></g><g class="minor-gridlayer"><g class="x"/><g class="y"/></g><g class="gridlayer"><g class="x"><path class="xgrid crisp" transform="translate(272.22,0)" d="M0,60v335" style="stroke: rgb(224, 224, 224); stroke-opacity: 1; stroke-width: 1px;"/><path class="xgrid crisp" transform="translate(348.16999999999996,0)" d="M0,60v335" style="stroke: rgb(224, 224, 224); stroke-opacity: 1; stroke-width: 1px;"/><path class="xgrid crisp" transform="translate(424.11,0)" d="M0,60v335" style="stroke: rgb(224, 224, 224); stroke-opacity: 1; stroke-width: 1px;"/><path class="xgrid crisp" transform="translate(500.06,0)" d="M0,60v335" style="stroke: rgb(224, 224, 224); stroke-opacity: 1; stroke-width: 1px;"/></g><g class="y"><path class="ygrid crisp" transform="translate(0,369.52)" d="M179,0h370" style="stroke: rgb(224, 224, 224); stroke-opacity: 1; stroke-width: 1px;"/><path class="ygrid crisp" transform="translate(0,337.5)" d="M179,0h370" style="stroke: rgb(224, 224, 224); stroke-opacity: 1; stroke-width: 1px;"/><path class="ygrid crisp" transform="translate(0,305.49)" d="M179,0h370" style="stroke: rgb(224, 224, 224); stroke-opacity: 1; stroke-width: 1px;"/><path class="ygrid crisp" transform="translate(0,273.47)" d="M179,0h370" style="stroke: rgb(224, 224, 224); stroke-opacity: 1; stroke-width: 1px;"/><path class="ygrid crisp" transform="translate(0,241.45)" d="M179,0h370" style="stroke: rgb(224, 224, 224); stroke-opacity: 1; stroke-width: 1px;"/><path class="ygrid crisp" transform="translate(0,209.44)" d="M179,0h370" style="stroke: rgb(224, 224, 224); stroke-opacity: 1; stroke-width: 1px;"/><path class="ygrid crisp" transform="translate(0,177.42000000000002)" d="M179,0h370" style="stroke: rgb(224, 224, 224); stroke-opacity: 1; stroke-width: 1px;"/><path class="ygrid crisp" transform="translate(0,145.4)" d="M179,0h370" style="stroke: rgb(224, 224, 224); stroke-opacity: 1; stroke-width: 1px;"/><path class="ygrid crisp" transform="translate(0,113.39)" d="M179,0h370" style="stroke: rgb(224, 224, 224); stroke-opacity: 1; stroke-width: 1px;"/><path class="ygrid crisp" transform="translate(0,81.37)" d="M179,0h370" style="stroke: rgb(224, 224, 224); stroke-opacity: 1; stroke-width: 1px;"/></g></g><g class="zerolinelayer"><path class="xzl zl crisp" transform="translate(196.28,0)" d="M0,60v335" style="stroke: rgb(255, 255, 255); stroke-opacity: 1; stroke-width: 2px;"/></g><g class="layer-between"><g class="shapelayer"/><g class="imagelayer"/></g><path class="xlines-below"/><path class="ylines-below"/><g class="overlines-below"/><g class="xaxislayer-below"/><g class="yaxislayer-below"/><g class="overaxes-below"/><g class="overplot"><g class="xy" transform="translate(179,60)" clip-path="url(#clip5b6eb8xyplot)"><g class="scatterlayer mlayer"><g class="trace scatter tracedaff81" style="stroke-miterlimit: 2; opacity: 1;"><g class="fills"/><g class="errorbars"/><g class="lines"/><g class="points"><path class="point" transform="translate(59.95,309.52)" d="M4.65,0A4.65,4.65 0 1,1 0,-4.65A4.65,4.65 0 0,1 4.65,0Z" style="opacity: 0.7; stroke-width: 1px; fill: rgb(212, 168, 67); fill-opacity: 1; stroke: rgb(255, 255, 255); stroke-opacity: 1;"/><path class="point" transform="translate(337.27,277.5)" d="M12.73,0A12.73,12.73 0 1,1 0,-12.73A12.73,12.73 0 0,1 12.73,0Z" style="opacity: 0.7; stroke-width: 1px; fill: rgb(212, 168, 67); fill-opacity: 1; stroke: rgb(255, 255, 255); stroke-opacity: 1;"/><path class="point" transform="translate(38.61,245.49)" d="M3.29,0A3.29,3.29 0 1,1 0,-3.29A3.29,3.29 0 0,1 3.29,0Z" style="opacity: 0.7; stroke-width: 1px; fill: rgb(212, 168, 67); fill-opacity: 1; stroke: rgb(255, 255, 255); stroke-opacity: 1;"/><path class="point" transform="translate(111.14,213.47)" d="M6.89,0A6.89,6.89 0 1,1 0,-6.89A6.89,6.89 0 0,1 6.89,0Z" style="opacity: 0.7; stroke-width: 1px; fill: rgb(212, 168, 67); fill-opacity: 1; stroke: rgb(255, 255, 255); stroke-opacity: 1;"/><path class="point" transform="translate(81.28,181.45)" d="M5.69,0A5.69,5.69 0 1,1 0,-5.69A5.69,5.69 0 0,1 5.69,0Z" style="opacity: 0.7; stroke-width: 1px; fill: rgb(212, 168, 67); fill-opacity: 1; stroke: rgb(255, 255, 255); stroke-opacity: 1;"/><path class="point" transform="translate(119.68,149.44)" d="M7.2,0A7.2,7.2 0 1,1 0,-7.2A7.2,7.2 0 0,1 7.2,0Z" style="opacity: 0.7; stroke-width: 1px; fill: rgb(212, 168, 67); fill-opacity: 1; stroke: rgb(255, 255, 255); stroke-opacity: 1;"/><path class="point" transform="translate(21.55,117.42)" d="M1.47,0A1.47,1.47 0 1,1 0,-1.47A1.47,1.47 0 0,1 1.47,0Z" style="opacity: 0.7; stroke-width: 1px; fill: rgb(212, 168, 67); fill-opacity: 1; stroke: rgb(255, 255, 255); stroke-opacity: 1;"/><path class="point" transform="translate(115.41,85.4)" d="M7.05,0A7.05,7.05 0 1,1 0,-7.05A7.05,7.05 0 0,1 7.05,0Z" style="opacity: 0.7; stroke-width: 1px; fill: rgb(212, 168, 67); fill-opacity: 1; stroke: rgb(255, 255, 255); stroke-opacity: 1;"/><path class="point" transform="translate(30.08,53.39)" d="M2.55,0A2.55,2.55 0 1,1 0,-2.55A2.55,2.55 0 0,1 2.55,0Z" style="opacity: 0.7; stroke-width: 1px; fill: rgb(212, 168, 67); fill-opacity: 1; stroke: rgb(255, 255, 255); stroke-opacity: 1;"/></g><g class="text"/></g><g class="trace scatter trace8eb1b5" style="stroke-miterlimit: 2; opacity: 1;"><g class="fills"/><g class="errorbars"/><g class="lines"/><g class="points"><path class="point" transform="translate(118.54,309.52)" d="M7.16,0A7.16,7.16 0 1,1 0,-7.16A7.16,7.16 0 0,1 7.16,0Z" style="opacity: 0.7; stroke-width: 1px; fill: rgb(16, 163, 127); fill-opacity: 1; stroke: rgb(255, 255, 255); stroke-opacity: 1;"/><path class="point" transform="translate(93.22,277.5)" d="M6.2,0A6.2,6.2 0 1,1 0,-6.2A6.2,6.2 0 0,1 6.2,0Z" style="opacity: 0.7; stroke-width: 1px; fill: rgb(16, 163, 127); fill-opacity: 1; stroke: rgb(255, 255, 255); stroke-opacity: 1;"/><path class="point" transform="translate(80.57,245.49)" d="M5.66,0A5.66,5.66 0 1,1 0,-5.66A5.66,5.66 0 0,1 5.66,0Z" style="opacity: 0.7; stroke-width: 1px; fill: rgb(16, 163, 127); fill-opacity: 1; stroke: rgb(255, 255, 255); stroke-opacity: 1;"/><path class="point" transform="translate(97.44,213.47)" d="M6.37,0A6.37,6.37 0 1,1 0,-6.37A6.37,6.37 0 0,1 6.37,0Z" style="opacity: 0.7; stroke-width: 1px; fill: rgb(16, 163, 127); fill-opacity: 1; stroke: rgb(255, 255, 255); stroke-opacity: 1;"/><path class="point" transform="translate(126.98,181.45)" d="M7.45,0A7.45,7.45 0 1,1 0,-7.45A7.45,7.45 0 0,1 7.45,0Z" style="opacity: 0.7; stroke-width: 1px; fill: rgb(16, 163, 127); fill-opacity: 1; stroke: rgb(255, 255, 255); stroke-opacity: 1;"/><path class="point" transform="translate(93.22,149.44)" d="M6.2,0A6.2,6.2 0 1,1 0,-6.2A6.2,6.2 0 0,1 6.2,0Z" style="opacity: 0.7; stroke-width: 1px; fill: rgb(16, 163, 127); fill-opacity: 1; stroke: rgb(255, 255, 255); stroke-opacity: 1;"/><path class="point" transform="translate(51.03,21.37)" d="M4.13,0A4.13,4.13 0 1,1 0,-4.13A4.13,4.13 0 0,1 4.13,0Z" style="opacity: 0.7; stroke-width: 1px; fill: rgb(16, 163, 127); fill-opacity: 1; stroke: rgb(255, 255, 255); stroke-opacity: 1;"/><path class="point" transform="translate(84.79,117.42)" d="M5.85,0A5.85,5.85 0 1,1 0,-5.85A5.85,5.85 0 0,1 5.85,0Z" style="opacity: 0.7; stroke-width: 1px; fill: rgb(16, 163, 127); fill-opacity: 1; stroke: rgb(255, 255, 255); stroke-opacity: 1;"/><path class="point" transform="translate(164.95,85.4)" d="M8.65,0A8.65,8.65 0 1,1 0,-8.65A8.65,8.65 0 0,1 8.65,0Z" style="opacity: 0.7; stroke-width: 1px; fill: rgb(16, 163, 127); fill-opacity: 1; stroke: rgb(255, 255, 255); stroke-opacity: 1;"/><path class="point" transform="translate(21.5,53.39)" d="M1.46,0A1.46,1.46 0 1,1 0,-1.46A1.46,1.46 0 0,1 1.46,0Z" style="opacity: 0.7; stroke-width: 1px; fill: rgb(16, 163, 127); fill-opacity: 1; stroke: rgb(255, 255, 255); stroke-opacity: 1;"/></g><g class="text"/></g><g class="trace scatter trace98bdc9" style="stroke-miterlimit: 2; opacity: 1;"><g class="fills"/><g class="errorbars"/><g class="lines"/><g class="points"><path class="point" transform="translate(135.42,309.52)" d="M7.73,0A7.73,7.73 0 1,1 0,-7.73A7.73,7.73 0 0,1 7.73,0Z" style="opacity: 0.7; stroke-width: 1px; fill: rgb(116, 170, 156); fill-opacity: 1; stroke: rgb(255, 255, 255); stroke-opacity: 1;"/><path class="point" transform="translate(93.22,277.5)" d="M6.2,0A6.2,6.2 0 1,1 0,-6.2A6.2,6.2 0 0,1 6.2,0Z" style="opacity: 0.7; stroke-width: 1px; fill: rgb(116, 170, 156); fill-opacity: 1; stroke: rgb(255, 255, 255); stroke-opacity: 1;"/><path class="point" transform="translate(93.22,245.49)" d="M6.2,0A6.2,6.2 0 1,1 0,-6.2A6.2,6.2 0 0,1 6.2,0Z" style="opacity: 0.7; stroke-width: 1px; fill: rgb(116, 170, 156); fill-opacity: 1; stroke: rgb(255, 255, 255); stroke-opacity: 1;"/><path class="point" transform="translate(76.35,213.47)" d="M5.47,0A5.47,5.47 0 1,1 0,-5.47A5.47,5.47 0 0,1 5.47,0Z" style="opacity: 0.7; stroke-width: 1px; fill: rgb(116, 170, 156); fill-opacity: 1; stroke: rgb(255, 255, 255); stroke-opacity: 1;"/><path class="point" transform="translate(148.07,181.45)" d="M8.14,0A8.14,8.14 0 1,1 0,-8.14A8.14,8.14 0 0,1 8.14,0Z" style="opacity: 0.7; stroke-width: 1px; fill: rgb(116, 170, 156); fill-opacity: 1; stroke: rgb(255, 255, 255); stroke-opacity: 1;"/><path class="point" transform="translate(122.76,149.44)" d="M7.31,0A7.31,7.31 0 1,1 0,-7.31A7.31,7.31 0 0,1 7.31,0Z" style="opacity: 0.7; stroke-width: 1px; fill: rgb(116, 170, 156); fill-opacity: 1; stroke: rgb(255, 255, 255); stroke-opacity: 1;"/><path class="point" transform="translate(46.81,21.37)" d="M3.87,0A3.87,3.87 0 1,1 0,-3.87A3.87,3.87 0 0,1 3.87,0Z" style="opacity: 0.7; stroke-width: 1px; fill: rgb(116, 170, 156); fill-opacity: 1; stroke: rgb(255, 255, 255); stroke-opacity: 1;"/><path class="point" transform="translate(34.16,117.42)" d="M2.92,0A2.92,2.92 0 1,1 0,-2.92A2.92,2.92 0 0,1 2.92,0Z" style="opacity: 0.7; stroke-width: 1px; fill: rgb(116, 170, 156); fill-opacity: 1; stroke: rgb(255, 255, 255); stroke-opacity: 1;"/><path class="point" transform="translate(139.64,85.4)" d="M7.87,0A7.87,7.87 0 1,1 0,-7.87A7.87,7.87 0 0,1 7.87,0Z" style="opacity: 0.7; stroke-width: 1px; fill: rgb(116, 170, 156); fill-opacity: 1; stroke: rgb(255, 255, 255); stroke-opacity: 1;"/><path class="point" transform="translate(42.6,53.39)" d="M3.58,0A3.58,3.58 0 1,1 0,-3.58A3.58,3.58 0 0,1 3.58,0Z" style="opacity: 0.7; stroke-width: 1px; fill: rgb(116, 170, 156); fill-opacity: 1; stroke: rgb(255, 255, 255); stroke-opacity: 1;"/></g><g class="text"/></g><g class="trace scatter trace6ada75" style="stroke-miterlimit: 2; opacity: 1;"><g class="fills"/><g class="errorbars"/><g class="lines"/><g class="points"><path class="point" transform="translate(137.68,309.52)" d="M7.81,0A7.81,7.81 0 1,1 0,-7.81A7.81,7.81 0 0,1 7.81,0Z" style="opacity: 0.7; stroke-width: 1px; fill: rgb(66, 133, 244); fill-opacity: 1; stroke: rgb(255, 255, 255); stroke-opacity: 1;"/><path class="point" transform="translate(114.53,277.5)" d="M7.02,0A7.02,7.02 0 1,1 0,-7.02A7.02,7.02 0 0,1 7.02,0Z" style="opacity: 0.7; stroke-width: 1px; fill: rgb(66, 133, 244); fill-opacity: 1; stroke: rgb(255, 255, 255); stroke-opacity: 1;"/><path class="point" transform="translate(68.22,245.49)" d="M5.08,0A5.08,5.08 0 1,1 0,-5.08A5.08,5.08 0 0,1 5.08,0Z" style="opacity: 0.7; stroke-width: 1px; fill: rgb(66, 133, 244); fill-opacity: 1; stroke: rgb(255, 255, 255); stroke-opacity: 1;"/><path class="point" transform="translate(109.9,213.47)" d="M6.85,0A6.85,6.85 0 1,1 0,-6.85A6.85,6.85 0 0,1 6.85,0Z" style="opacity: 0.7; stroke-width: 1px; fill: rgb(66, 133, 244); fill-opacity: 1; stroke: rgb(255, 255, 255); stroke-opacity: 1;"/><path class="point" transform="translate(119.16,181.45)" d="M7.18,0A7.18,7.18 0 1,1 0,-7.18A7.18,7.18 0 0,1 7.18,0Z" style="opacity: 0.7; stroke-width: 1px; fill: rgb(66, 133, 244); fill-opacity: 1; stroke: rgb(255, 255, 255); stroke-opacity: 1;"/><path class="point" transform="translate(100.63,149.44)" d="M6.5,0A6.5,6.5 0 1,1 0,-6.5A6.5,6.5 0 0,1 6.5,0Z" style="opacity: 0.7; stroke-width: 1px; fill: rgb(66, 133, 244); fill-opacity: 1; stroke: rgb(255, 255, 255); stroke-opacity: 1;"/><path class="point" transform="translate(21.91,21.37)" d="M1.53,0A1.53,1.53 0 1,1 0,-1.53A1.53,1.53 0 0,1 1.53,0Z" style="opacity: 0.7; stroke-width: 1px; fill: rgb(66, 133, 244); fill-opacity: 1; stroke: rgb(255, 255, 255); stroke-opacity: 1;"/><path class="point" transform="translate(72.85,117.42)" d="M5.3,0A5.3,5.3 0 1,1 0,-5.3A5.3,5.3 0 0,1 5.3,0Z" style="opacity: 0.7; stroke-width: 1px; fill: rgb(66, 133, 244); fill-opacity: 1; stroke: rgb(255, 255, 255); stroke-opacity: 1;"/><path class="point" transform="translate(165.46,85.4)" d="M8.66,0A8.66,8.66 0 1,1 0,-8.66A8.66,8.66 0 0,1 8.66,0Z" style="opacity: 0.7; stroke-width: 1px; fill: rgb(66, 133, 244); fill-opacity: 1; stroke: rgb(255, 255, 255); stroke-opacity: 1;"/><path class="point" transform="translate(21.91,53.39)" d="M1.53,0A1.53,1.53 0 1,1 0,-1.53A1.53,1.53 0 0,1 1.53,0Z" style="opacity: 0.7; stroke-width: 1px; fill: rgb(66, 133, 244); fill-opacity: 1; stroke: rgb(255, 255, 255); stroke-opacity: 1;"/></g><g class="text"/></g></g></g></g><path class="xlines-above crisp" d="M0,0" style="fill: none;"/><path class="ylines-above crisp" d="M0,0" style="fill: none;"/><g class="overlines-above"/><g class="xaxislayer-above"><g class="xtick"><text text-anchor="middle" x="0" y="409" transform="translate(196.28,0)" style="font-family: Inter, Arial; font-size: 13px; fill: rgb(26, 26, 46); fill-opacity: 1; white-space: pre; opacity: 1;">0</text></g><g class="xtick"><text text-anchor="middle" x="0" y="409" style="font-family: Inter, Arial; font-size: 13px; fill: rgb(26, 26, 46); fill-opacity: 1; white-space: pre; opacity: 1;" transform="translate(272.22,0)">10</text></g><g class="xtick"><text text-anchor="middle" x="0" y="409" style="font-family: Inter, Arial; font-size: 13px; fill: rgb(26, 26, 46); fill-opacity: 1; white-space: pre; opacity: 1;" transform="translate(348.16999999999996,0)">20</text></g><g class="xtick"><text text-anchor="middle" x="0" y="409" style="font-family: Inter, Arial; font-size: 13px; fill: rgb(26, 26, 46); fill-opacity: 1; white-space: pre; opacity: 1;" transform="translate(424.11,0)">30</text></g><g class="xtick"><text text-anchor="middle" x="0" y="409" style="font-family: Inter, Arial; font-size: 13px; fill: rgb(26, 26, 46); fill-opacity: 1; white-space: pre; opacity: 1;" transform="translate(500.06,0)">40</text></g></g><g class="yaxislayer-above"><g class="ytick"><text text-anchor="end" x="178" y="4.55" transform="translate(0,369.52)" style="font-family: Inter, Arial; font-size: 13px; fill: rgb(26, 26, 46); fill-opacity: 1; white-space: pre; opacity: 1;">Anecdotal Evidence</text></g><g class="ytick"><text text-anchor="end" x="178" y="4.55" transform="translate(0,337.5)" style="font-family: Inter, Arial; font-size: 13px; fill: rgb(26, 26, 46); fill-opacity: 1; white-space: pre; opacity: 1;">Appeal to (Dis)trust</text></g><g class="ytick"><text text-anchor="end" x="178" y="4.55" transform="translate(0,305.49)" style="font-family: Inter, Arial; font-size: 13px; fill: rgb(26, 26, 46); fill-opacity: 1; white-space: pre; opacity: 1;">Appeal to Emotion</text></g><g class="ytick"><text text-anchor="end" x="178" y="4.55" transform="translate(0,273.47)" style="font-family: Inter, Arial; font-size: 13px; fill: rgb(26, 26, 46); fill-opacity: 1; white-space: pre; opacity: 1;">Cherry Picking</text></g><g class="ytick"><text text-anchor="end" x="178" y="4.55" transform="translate(0,241.45)" style="font-family: Inter, Arial; font-size: 13px; fill: rgb(26, 26, 46); fill-opacity: 1; white-space: pre; opacity: 1;">Conspiracy Theory</text></g><g class="ytick"><text text-anchor="end" x="178" y="4.55" transform="translate(0,209.44)" style="font-family: Inter, Arial; font-size: 13px; fill: rgb(26, 26, 46); fill-opacity: 1; white-space: pre; opacity: 1;">Domain-Specific</text></g><g class="ytick"><text text-anchor="end" x="178" y="4.55" transform="translate(0,177.42000000000002)" style="font-family: Inter, Arial; font-size: 13px; fill: rgb(26, 26, 46); fill-opacity: 1; white-space: pre; opacity: 1;">Impossible Expectations</text></g><g class="ytick"><text text-anchor="end" x="178" y="4.55" transform="translate(0,145.4)" style="font-family: Inter, Arial; font-size: 13px; fill: rgb(26, 26, 46); fill-opacity: 1; white-space: pre; opacity: 1;">Pseudo-Scientific Claim</text></g><g class="ytick"><text text-anchor="end" x="178" y="4.55" transform="translate(0,113.39)" style="font-family: Inter, Arial; font-size: 13px; fill: rgb(26, 26, 46); fill-opacity: 1; white-space: pre; opacity: 1;">Source Weaponization</text></g><g class="ytick"><text text-anchor="end" x="178" y="4.55" transform="translate(0,81.37)" style="font-family: Inter, Arial; font-size: 13px; fill: rgb(26, 26, 46); fill-opacity: 1; white-space: pre; opacity: 1;">Historical Revisionism</text></g></g><g class="overaxes-above"/></g></g><g class="polarlayer"/><g class="smithlayer"/><g class="ternarylayer"/><g class="geolayer"/><g class="funnelarealayer"/><g class="pielayer"/><g class="iciclelayer"/><g class="treemaplayer"/><g class="sunburstlayer"/><g class="glimages"/><defs id="topdefs-5b6eb8"><g class="clips"/><clipPath id="legend5b6eb8"><rect width="132" height="111" x="0" y="0"/></clipPath></defs><g class="layer-above"><g class="imagelayer"/><g class="shapelayer"/></g><g class="infolayer"><g class="legend" pointer-events="all" transform="translate(556.4000000000001,60)"><rect class="bg" shape-rendering="crispEdges" style="stroke: rgb(68, 68, 68); stroke-opacity: 1; fill: rgb(255, 255, 255); fill-opacity: 1; stroke-width: 0px;" width="132" height="111" x="0" y="0"/><g class="scrollbox" transform="" clip-path="url(#legend5b6eb8)"><text class="legendtitletext" text-anchor="start" x="2" y="20.8" style="font-family: Inter, Arial; font-size: 16px; fill: rgb(26, 26, 46); fill-opacity: 1; white-space: pre;">sm</text><g class="groups" transform=""><g class="traces" transform="translate(0,35.75)" style="opacity: 1;"><text class="legendtext" text-anchor="start" x="40" y="5.07" style="font-family: Inter, Arial; font-size: 13px; fill: rgb(26, 26, 46); fill-opacity: 1; white-space: pre;">Claude Sonnet</text><g class="layers" style="opacity: 1;"><g class="legendfill"/><g class="legendlines"/><g class="legendsymbols"><g class="legendpoints"><path class="scatterpts" transform="translate(20,0)" d="M6,0A6,6 0 1,1 0,-6A6,6 0 0,1 6,0Z" style="opacity: 0.7; stroke-width: 2px; fill: rgb(212, 168, 67); fill-opacity: 1; stroke: rgb(255, 255, 255); stroke-opacity: 1;"/></g></g></g><rect class="legendtoggle" x="0" y="-9.950000000000001" width="126.015625" height="19.900000000000002" style="fill: rgb(0, 0, 0); fill-opacity: 0;"/></g></g><g class="groups" transform=""><g class="traces" transform="translate(0,55.650000000000006)" style="opacity: 1;"><text class="legendtext" text-anchor="start" x="40" y="5.07" style="font-family: Inter, Arial; font-size: 13px; fill: rgb(26, 26, 46); fill-opacity: 1; white-space: pre;">GPT-4o</text><g class="layers" style="opacity: 1;"><g class="legendfill"/><g class="legendlines"/><g class="legendsymbols"><g class="legendpoints"><path class="scatterpts" transform="translate(20,0)" d="M6,0A6,6 0 1,1 0,-6A6,6 0 0,1 6,0Z" style="opacity: 0.7; stroke-width: 2px; fill: rgb(16, 163, 127); fill-opacity: 1; stroke: rgb(255, 255, 255); stroke-opacity: 1;"/></g></g></g><rect class="legendtoggle" x="0" y="-9.950000000000001" width="126.015625" height="19.900000000000002" style="fill: rgb(0, 0, 0); fill-opacity: 0;"/></g></g><g class="groups" transform=""><g class="traces" transform="translate(0,75.55000000000001)" style="opacity: 1;"><text class="legendtext" text-anchor="start" x="40" y="5.07" style="font-family: Inter, Arial; font-size: 13px; fill: rgb(26, 26, 46); fill-opacity: 1; white-space: pre;">GPT-4o-mini</text><g class="layers" style="opacity: 1;"><g class="legendfill"/><g class="legendlines"/><g class="legendsymbols"><g class="legendpoints"><path class="scatterpts" transform="translate(20,0)" d="M6,0A6,6 0 1,1 0,-6A6,6 0 0,1 6,0Z" style="opacity: 0.7; stroke-width: 2px; fill: rgb(116, 170, 156); fill-opacity: 1; stroke: rgb(255, 255, 255); stroke-opacity: 1;"/></g></g></g><rect class="legendtoggle" x="0" y="-9.950000000000001" width="126.015625" height="19.900000000000002" style="fill: rgb(0, 0, 0); fill-opacity: 0;"/></g></g><g class="groups" transform=""><g class="traces" transform="translate(0,95.45)" style="opacity: 1;"><text class="legendtext" text-anchor="start" x="40" y="5.07" style="font-family: Inter, Arial; font-size: 13px; fill: rgb(26, 26, 46); fill-opacity: 1; white-space: pre;">Gemini Flash</text><g class="layers" style="opacity: 1;"><g class="legendfill"/><g class="legendlines"/><g class="legendsymbols"><g class="legendpoints"><path class="scatterpts" transform="translate(20,0)" d="M6,0A6,6 0 1,1 0,-6A6,6 0 0,1 6,0Z" style="opacity: 0.7; stroke-width: 2px; fill: rgb(66, 133, 244); fill-opacity: 1; stroke: rgb(255, 255, 255); stroke-opacity: 1;"/></g></g></g><rect class="legendtoggle" x="0" y="-9.950000000000001" width="126.015625" height="19.900000000000002" style="fill: rgb(0, 0, 0); fill-opacity: 0;"/></g></g></g><rect class="scrollbar" rx="20" ry="3" width="0" height="0" style="fill: rgb(128, 139, 164); fill-opacity: 1;" x="0" y="0"/></g><g class="g-gtitle"><text class="gtitle" x="35" y="30" text-anchor="start" dy="0em" style="opacity: 1; font-family: Inter, Arial; font-size: 18px; fill: rgb(26, 26, 46); fill-opacity: 1; white-space: pre;">Spreader: Strategy Usage by Model (%)</text></g><g class="g-xtitle"><text class="xtitle" x="364" y="437.7" text-anchor="middle" style="opacity: 1; font-family: Inter, Arial; font-size: 16px; fill: rgb(26, 26, 46); fill-opacity: 1; white-space: pre;">Usage (%)</text></g><g class="g-ytitle"><text class="ytitle" transform="rotate(-90,17.712500000000006,227.5)" x="17.712500000000006" y="227.5" text-anchor="middle" style="opacity: 1; font-family: Inter, Arial; font-size: 16px; fill: rgb(26, 26, 46); fill-opacity: 1; white-space: pre;">Strategy</text></g></g></svg>