<svg class="main-svg" xmlns="http://www.w3.org/2000/svg" xmlns:xlink="http://www.w3.org/1999/xlink" width="700" height="450" style="" viewBox="0 0 700 450"><rect x="0" y="0" width="700" height="450" style="fill: rgb(255, 255, 255); fill-opacity: 1;"/><defs id="defs-990598"><g class="clips"><clipPath id="clip990598xyplot" class="plotclip"><rect width="372" height="335"/></clipPath><clipPath class="axesclip" id="clip990598x"><rect x="177" y="0" width="372" height="450"/></clipPath><clipPath class="axesclip" id="clip990598y"><rect x="0" y="60" width="700" height="335"/></clipPath><clipPath class="axesclip" id="clip990598xy"><rect x="177" y="60" width="372" height="335"/></clipPath></g><g class="gradients"/><g class="patterns"/></defs><g class="bglayer"/><g class="layer-below"><g class="imagelayer"/><g class="shapelayer"/></g><g class="cartesianlayer"><g class="subplot xy"><g class="layer-subplot"><g class="shapelayer"/><g class="imagelayer"/></g><g class="minor-gridlayer"><g class="x"/><g class="y"/></g><g class="gridlayer"><g class="x"><path class="xgrid crisp" transform="translate(283.54,0)" d="M0,60v335" style="stroke: rgb(224, 224, 224); stroke-opacity: 1; stroke-width: 1px;"/><path class="xgrid crisp" transform="translate(373.58000000000004,0)" d="M0,60v335" style="stroke: rgb(224, 224, 224); stroke-opacity: 1; stroke-width: 1px;"/><path class="xgrid crisp" transform="translate(463.61,0)" d="M0,60v335" style="stroke: rgb(224, 224, 224); stroke-opacity: 1; stroke-width: 1px;"/></g><g class="y"><path class="ygrid crisp" transform="translate(0,366.46)" d="M177,0h372" style="stroke: rgb(224, 224, 224); stroke-opacity: 1; stroke-width: 1px;"/><path class="ygrid crisp" transform="translate(0,330.96)" d="M177,0h372" style="stroke: rgb(224, 224, 224); stroke-opacity: 1; stroke-width: 1px;"/><path class="ygrid crisp" transform="translate(0,295.45)" d="M177,0h372" style="stroke: rgb(224, 224, 224); stroke-opacity: 1; stroke-width: 1px;"/><path class="ygrid crisp" transform="translate(0,259.94)" d="M177,0h372" style="stroke: rgb(224, 224, 224); stroke-opacity: 1; stroke-width: 1px;"/><path class="ygrid crisp" transform="translate(0,224.43)" d="M177,0h372" style="stroke: rgb(224, 224, 224); stroke-opacity: 1; stroke-width: 1px;"/><path class="ygrid crisp" transform="translate(0,188.92)" d="M177,0h372" style="stroke: rgb(224, 224, 224); stroke-opacity: 1; stroke-width: 1px;"/><path class="ygrid crisp" transform="translate(0,153.42000000000002)" d="M177,0h372" style="stroke: rgb(224, 224, 224); stroke-opacity: 1; stroke-width: 1px;"/><path class="ygrid crisp" transform="translate(0,117.91)" d="M177,0h372" style="stroke: rgb(224, 224, 224); stroke-opacity: 1; stroke-width: 1px;"/><path class="ygrid crisp" transform="translate(0,82.4)" d="M177,0h372" style="stroke: rgb(224, 224, 224); stroke-opacity: 1; stroke-width: 1px;"/></g></g><g class="zerolinelayer"><path class="xzl zl crisp" transform="translate(193.51,0)" d="M0,60v335" style="stroke: rgb(255, 255, 255); stroke-opacity: 1; stroke-width: 2px;"/></g><g class="layer-between"><g class="shapelayer"/><g class="imagelayer"/></g><path class="xlines-below"/><path class="ylines-below"/><g class="overlines-below"/><g class="xaxislayer-below"/><g class="yaxislayer-below"/><g class="overaxes-below"/><g class="overplot"><g class="xy" transform="translate(177,60)" clip-path="url(#clip990598xyplot)"><g class="scatterlayer mlayer"><g class="trace scatter tracea615b3" style="stroke-miterlimit: 2; opacity: 1;"><g class="fills"/><g class="errorbars"/><g class="lines"/><g class="points"><path class="point" transform="translate(167.43,306.46)" d="M8.7,0A8.7,8.7 0 1,1 0,-8.7A8.7,8.7 0 0,1 8.7,0Z" style="opacity: 0.7; stroke-width: 1px; fill: rgb(212, 168, 67); fill-opacity: 1; stroke: rgb(255, 255, 255); stroke-opacity: 1;"/><path class="point" transform="translate(136.21,270.96)" d="M7.75,0A7.75,7.75 0 1,1 0,-7.75A7.75,7.75 0 0,1 7.75,0Z" style="opacity: 0.7; stroke-width: 1px; fill: rgb(212, 168, 67); fill-opacity: 1; stroke: rgb(255, 255, 255); stroke-opacity: 1;"/><path class="point" transform="translate(339.17,235.45)" d="M12.73,0A12.73,12.73 0 1,1 0,-12.73A12.73,12.73 0 0,1 12.73,0Z" style="opacity: 0.7; stroke-width: 1px; fill: rgb(212, 168, 67); fill-opacity: 1; stroke: rgb(255, 255, 255); stroke-opacity: 1;"/><path class="point" transform="translate(84.17,199.94)" d="M5.83,0A5.83,5.83 0 1,1 0,-5.83A5.83,5.83 0 0,1 5.83,0Z" style="opacity: 0.7; stroke-width: 1px; fill: rgb(212, 168, 67); fill-opacity: 1; stroke: rgb(255, 255, 255); stroke-opacity: 1;"/><path class="point" transform="translate(78.96,164.43)" d="M5.6,0A5.6,5.6 0 1,1 0,-5.6A5.6,5.6 0 0,1 5.6,0Z" style="opacity: 0.7; stroke-width: 1px; fill: rgb(212, 168, 67); fill-opacity: 1; stroke: rgb(255, 255, 255); stroke-opacity: 1;"/><path class="point" transform="translate(104.98,128.92)" d="M6.66,0A6.66,6.66 0 1,1 0,-6.66A6.66,6.66 0 0,1 6.66,0Z" style="opacity: 0.7; stroke-width: 1px; fill: rgb(212, 168, 67); fill-opacity: 1; stroke: rgb(255, 255, 255); stroke-opacity: 1;"/><path class="point" transform="translate(58.15,93.42)" d="M4.57,0A4.57,4.57 0 1,1 0,-4.57A4.57,4.57 0 0,1 4.57,0Z" style="opacity: 0.7; stroke-width: 1px; fill: rgb(212, 168, 67); fill-opacity: 1; stroke: rgb(255, 255, 255); stroke-opacity: 1;"/><path class="point" transform="translate(63.35,57.91)" d="M4.85,0A4.85,4.85 0 1,1 0,-4.85A4.85,4.85 0 0,1 4.85,0Z" style="opacity: 0.7; stroke-width: 1px; fill: rgb(212, 168, 67); fill-opacity: 1; stroke: rgb(255, 255, 255); stroke-opacity: 1;"/></g><g class="text"/></g><g class="trace scatter trace265c57" style="stroke-miterlimit: 2; opacity: 1;"><g class="fills"/><g class="errorbars"/><g class="lines"/><g class="points"><path class="point" transform="translate(209.07,306.46)" d="M9.83,0A9.83,9.83 0 1,1 0,-9.83A9.83,9.83 0 0,1 9.83,0Z" style="opacity: 0.7; stroke-width: 1px; fill: rgb(16, 163, 127); fill-opacity: 1; stroke: rgb(255, 255, 255); stroke-opacity: 1;"/><path class="point" transform="translate(84.17,270.96)" d="M5.83,0A5.83,5.83 0 1,1 0,-5.83A5.83,5.83 0 0,1 5.83,0Z" style="opacity: 0.7; stroke-width: 1px; fill: rgb(16, 163, 127); fill-opacity: 1; stroke: rgb(255, 255, 255); stroke-opacity: 1;"/><path class="point" transform="translate(266.31,235.45)" d="M11.2,0A11.2,11.2 0 1,1 0,-11.2A11.2,11.2 0 0,1 11.2,0Z" style="opacity: 0.7; stroke-width: 1px; fill: rgb(16, 163, 127); fill-opacity: 1; stroke: rgb(255, 255, 255); stroke-opacity: 1;"/><path class="point" transform="translate(26.92,22.4)" d="M2.29,0A2.29,2.29 0 1,1 0,-2.29A2.29,2.29 0 0,1 2.29,0Z" style="opacity: 0.7; stroke-width: 1px; fill: rgb(16, 163, 127); fill-opacity: 1; stroke: rgb(255, 255, 255); stroke-opacity: 1;"/><path class="point" transform="translate(78.96,199.94)" d="M5.6,0A5.6,5.6 0 1,1 0,-5.6A5.6,5.6 0 0,1 5.6,0Z" style="opacity: 0.7; stroke-width: 1px; fill: rgb(16, 163, 127); fill-opacity: 1; stroke: rgb(255, 255, 255); stroke-opacity: 1;"/><path class="point" transform="translate(84.17,164.43)" d="M5.83,0A5.83,5.83 0 1,1 0,-5.83A5.83,5.83 0 0,1 5.83,0Z" style="opacity: 0.7; stroke-width: 1px; fill: rgb(16, 163, 127); fill-opacity: 1; stroke: rgb(255, 255, 255); stroke-opacity: 1;"/><path class="point" transform="translate(151.82,128.92)" d="M8.24,0A8.24,8.24 0 1,1 0,-8.24A8.24,8.24 0 0,1 8.24,0Z" style="opacity: 0.7; stroke-width: 1px; fill: rgb(16, 163, 127); fill-opacity: 1; stroke: rgb(255, 255, 255); stroke-opacity: 1;"/><path class="point" transform="translate(89.37,93.42)" d="M6.05,0A6.05,6.05 0 1,1 0,-6.05A6.05,6.05 0 0,1 6.05,0Z" style="opacity: 0.7; stroke-width: 1px; fill: rgb(16, 163, 127); fill-opacity: 1; stroke: rgb(255, 255, 255); stroke-opacity: 1;"/><path class="point" transform="translate(58.15,57.91)" d="M4.57,0A4.57,4.57 0 1,1 0,-4.57A4.57,4.57 0 0,1 4.57,0Z" style="opacity: 0.7; stroke-width: 1px; fill: rgb(16, 163, 127); fill-opacity: 1; stroke: rgb(255, 255, 255); stroke-opacity: 1;"/></g><g class="text"/></g><g class="trace scatter tracec82bcb" style="stroke-miterlimit: 2; opacity: 1;"><g class="fills"/><g class="errorbars"/><g class="lines"/><g class="points"><path class="point" transform="translate(237.82,306.46)" d="M10.54,0A10.54,10.54 0 1,1 0,-10.54A10.54,10.54 0 0,1 10.54,0Z" style="opacity: 0.7; stroke-width: 1px; fill: rgb(116, 170, 156); fill-opacity: 1; stroke: rgb(255, 255, 255); stroke-opacity: 1;"/><path class="point" transform="translate(66.81,270.96)" d="M5.03,0A5.03,5.03 0 1,1 0,-5.03A5.03,5.03 0 0,1 5.03,0Z" style="opacity: 0.7; stroke-width: 1px; fill: rgb(116, 170, 156); fill-opacity: 1; stroke: rgb(255, 255, 255); stroke-opacity: 1;"/><path class="point" transform="translate(262.97,235.45)" d="M11.12,0A11.12,11.12 0 1,1 0,-11.12A11.12,11.12 0 0,1 11.12,0Z" style="opacity: 0.7; stroke-width: 1px; fill: rgb(116, 170, 156); fill-opacity: 1; stroke: rgb(255, 255, 255); stroke-opacity: 1;"/><path class="point" transform="translate(36.63,22.4)" d="M3.18,0A3.18,3.18 0 1,1 0,-3.18A3.18,3.18 0 0,1 3.18,0Z" style="opacity: 0.7; stroke-width: 1px; fill: rgb(116, 170, 156); fill-opacity: 1; stroke: rgb(255, 255, 255); stroke-opacity: 1;"/><path class="point" transform="translate(71.84,199.94)" d="M5.27,0A5.27,5.27 0 1,1 0,-5.27A5.27,5.27 0 0,1 5.27,0Z" style="opacity: 0.7; stroke-width: 1px; fill: rgb(116, 170, 156); fill-opacity: 1; stroke: rgb(255, 255, 255); stroke-opacity: 1;"/><path class="point" transform="translate(91.96,164.43)" d="M6.15,0A6.15,6.15 0 1,1 0,-6.15A6.15,6.15 0 0,1 6.15,0Z" style="opacity: 0.7; stroke-width: 1px; fill: rgb(116, 170, 156); fill-opacity: 1; stroke: rgb(255, 255, 255); stroke-opacity: 1;"/><path class="point" transform="translate(137.23,128.92)" d="M7.79,0A7.79,7.79 0 1,1 0,-7.79A7.79,7.79 0 0,1 7.79,0Z" style="opacity: 0.7; stroke-width: 1px; fill: rgb(116, 170, 156); fill-opacity: 1; stroke: rgb(255, 255, 255); stroke-opacity: 1;"/><path class="point" transform="translate(91.96,93.42)" d="M6.15,0A6.15,6.15 0 1,1 0,-6.15A6.15,6.15 0 0,1 6.15,0Z" style="opacity: 0.7; stroke-width: 1px; fill: rgb(116, 170, 156); fill-opacity: 1; stroke: rgb(255, 255, 255); stroke-opacity: 1;"/><path class="point" transform="translate(51.72,57.91)" d="M4.2,0A4.2,4.2 0 1,1 0,-4.2A4.2,4.2 0 0,1 4.2,0Z" style="opacity: 0.7; stroke-width: 1px; fill: rgb(116, 170, 156); fill-opacity: 1; stroke: rgb(255, 255, 255); stroke-opacity: 1;"/></g><g class="text"/></g><g class="trace scatter tracecbbf18" style="stroke-miterlimit: 2; opacity: 1;"><g class="fills"/><g class="errorbars"/><g class="lines"/><g class="points"><path class="point" transform="translate(169.11,306.46)" d="M8.75,0A8.75,8.75 0 1,1 0,-8.75A8.75,8.75 0 0,1 8.75,0Z" style="opacity: 0.7; stroke-width: 1px; fill: rgb(66, 133, 244); fill-opacity: 1; stroke: rgb(255, 255, 255); stroke-opacity: 1;"/><path class="point" transform="translate(92.81,270.96)" d="M6.19,0A6.19,6.19 0 1,1 0,-6.19A6.19,6.19 0 0,1 6.19,0Z" style="opacity: 0.7; stroke-width: 1px; fill: rgb(66, 133, 244); fill-opacity: 1; stroke: rgb(255, 255, 255); stroke-opacity: 1;"/><path class="point" transform="translate(235.23,235.45)" d="M10.48,0A10.48,10.48 0 1,1 0,-10.48A10.48,10.48 0 0,1 10.48,0Z" style="opacity: 0.7; stroke-width: 1px; fill: rgb(66, 133, 244); fill-opacity: 1; stroke: rgb(255, 255, 255); stroke-opacity: 1;"/><path class="point" transform="translate(67.38,22.4)" d="M5.05,0A5.05,5.05 0 1,1 0,-5.05A5.05,5.05 0 0,1 5.05,0Z" style="opacity: 0.7; stroke-width: 1px; fill: rgb(66, 133, 244); fill-opacity: 1; stroke: rgb(255, 255, 255); stroke-opacity: 1;"/><path class="point" transform="translate(41.95,199.94)" d="M3.57,0A3.57,3.57 0 1,1 0,-3.57A3.57,3.57 0 0,1 3.57,0Z" style="opacity: 0.7; stroke-width: 1px; fill: rgb(66, 133, 244); fill-opacity: 1; stroke: rgb(255, 255, 255); stroke-opacity: 1;"/><path class="point" transform="translate(72.47,164.43)" d="M5.3,0A5.3,5.3 0 1,1 0,-5.3A5.3,5.3 0 0,1 5.3,0Z" style="opacity: 0.7; stroke-width: 1px; fill: rgb(66, 133, 244); fill-opacity: 1; stroke: rgb(255, 255, 255); stroke-opacity: 1;"/><path class="point" transform="translate(250.49,128.92)" d="M10.84,0A10.84,10.84 0 1,1 0,-10.84A10.84,10.84 0 0,1 10.84,0Z" style="opacity: 0.7; stroke-width: 1px; fill: rgb(66, 133, 244); fill-opacity: 1; stroke: rgb(255, 255, 255); stroke-opacity: 1;"/><path class="point" transform="translate(97.9,93.42)" d="M6.39,0A6.39,6.39 0 1,1 0,-6.39A6.39,6.39 0 0,1 6.39,0Z" style="opacity: 0.7; stroke-width: 1px; fill: rgb(66, 133, 244); fill-opacity: 1; stroke: rgb(255, 255, 255); stroke-opacity: 1;"/><path class="point" transform="translate(21.6,57.91)" d="M1.6,0A1.6,1.6 0 1,1 0,-1.6A1.6,1.6 0 0,1 1.6,0Z" style="opacity: 0.7; stroke-width: 1px; fill: rgb(66, 133, 244); fill-opacity: 1; stroke: rgb(255, 255, 255); stroke-opacity: 1;"/></g><g class="text"/></g></g></g></g><path class="xlines-above crisp" d="M0,0" style="fill: none;"/><path class="ylines-above crisp" d="M0,0" style="fill: none;"/><g class="overlines-above"/><g class="xaxislayer-above"><g class="xtick"><text text-anchor="middle" x="0" y="409" transform="translate(193.51,0)" style="font-family: Inter, Arial; font-size: 13px; fill: rgb(26, 26, 46); fill-opacity: 1; white-space: pre; opacity: 1;">0</text></g><g class="xtick"><text text-anchor="middle" x="0" y="409" style="font-family: Inter, Arial; font-size: 13px; fill: rgb(26, 26, 46); fill-opacity: 1; white-space: pre; opacity: 1;" transform="translate(283.54,0)">10</text></g><g class="xtick"><text text-anchor="middle" x="0" y="409" style="font-family: Inter, Arial; font-size: 13px; fill: rgb(26, 26, 46); fill-opacity: 1; white-space: pre; opacity: 1;" transform="translate(373.58000000000004,0)">20</text></g><g class="xtick"><text text-anchor="middle" x="0" y="409" style="font-family: Inter, Arial; font-size: 13px; fill: rgb(26, 26, 46); fill-opacity: 1; white-space: pre; opacity: 1;" transform="translate(463.61,0)">30</text></g></g><g class="yaxislayer-above"><g class="ytick"><text text-anchor="end" x="176" y="4.55" transform="translate(0,366.46)" style="font-family: Inter, Arial; font-size: 13px; fill: rgb(26, 26, 46); fill-opacity: 1; white-space: pre; opacity: 1;">Contextual Analysis</text></g><g class="ytick"><text text-anchor="end" x="176" y="4.55" transform="translate(0,330.96)" style="font-family: Inter, Arial; font-size: 13px; fill: rgb(26, 26, 46); fill-opacity: 1; white-space: pre; opacity: 1;">Domain-Specific</text></g><g class="ytick"><text text-anchor="end" x="176" y="4.55" transform="translate(0,295.45)" style="font-family: Inter, Arial; font-size: 13px; fill: rgb(26, 26, 46); fill-opacity: 1; white-space: pre; opacity: 1;">Evidence Citation</text></g><g class="ytick"><text text-anchor="end" x="176" y="4.55" transform="translate(0,259.94)" style="font-family: Inter, Arial; font-size: 13px; fill: rgb(26, 26, 46); fill-opacity: 1; white-space: pre; opacity: 1;">Mechanism Explanation</text></g><g class="ytick"><text text-anchor="end" x="176" y="4.55" transform="translate(0,224.43)" style="font-family: Inter, Arial; font-size: 13px; fill: rgb(26, 26, 46); fill-opacity: 1; white-space: pre; opacity: 1;">Public Safety</text></g><g class="ytick"><text text-anchor="end" x="176" y="4.55" transform="translate(0,188.92)" style="font-family: Inter, Arial; font-size: 13px; fill: rgb(26, 26, 46); fill-opacity: 1; white-space: pre; opacity: 1;">Scientific Consensus</text></g><g class="ytick"><text text-anchor="end" x="176" y="4.55" transform="translate(0,153.42000000000002)" style="font-family: Inter, Arial; font-size: 13px; fill: rgb(26, 26, 46); fill-opacity: 1; white-space: pre; opacity: 1;">Technical Correction</text></g><g class="ytick"><text text-anchor="end" x="176" y="4.55" transform="translate(0,117.91)" style="font-family: Inter, Arial; font-size: 13px; fill: rgb(26, 26, 46); fill-opacity: 1; white-space: pre; opacity: 1;">Verification</text></g><g class="ytick"><text text-anchor="end" x="176" y="4.55" transform="translate(0,82.4)" style="font-family: Inter, Arial; font-size: 13px; fill: rgb(26, 26, 46); fill-opacity: 1; white-space: pre; opacity: 1;">Logical Refutation</text></g></g><g class="overaxes-above"/></g></g><g class="polarlayer"/><g class="smithlayer"/><g class="ternarylayer"/><g class="geolayer"/><g class="funnelarealayer"/><g class="pielayer"/><g class="iciclelayer"/><g class="treemaplayer"/><g class="sunburstlayer"/><g class="glimages"/><defs id="topdefs-990598"><g class="clips"/><clipPath id="legend990598"><rect width="132" height="111" x="0" y="0"/></clipPath></defs><g class="layer-above"><g class="imagelayer"/><g class="shapelayer"/></g><g class="infolayer"><g class="legend" pointer-events="all" transform="translate(556.44,60)"><rect class="bg" shape-rendering="crispEdges" style="stroke: rgb(68, 68, 68); stroke-opacity: 1; fill: rgb(255, 255, 255); fill-opacity: 1; stroke-width: 0px;" width="132" height="111" x="0" y="0"/><g class="scrollbox" transform="" clip-path="url(#legend990598)"><text class="legendtitletext" text-anchor="start" x="2" y="20.8" style="font-family: Inter, Arial; font-size: 16px; fill: rgb(26, 26, 46); fill-opacity: 1; white-space: pre;">dm</text><g class="groups" transform=""><g class="traces" transform="translate(0,35.75)" style="opacity: 1;"><text class="legendtext" text-anchor="start" x="40" y="5.07" style="font-family: Inter, Arial; font-size: 13px; fill: rgb(26, 26, 46); fill-opacity: 1; white-space: pre;">Claude Sonnet</text><g class="layers" style="opacity: 1;"><g class="legendfill"/><g class="legendlines"/><g class="legendsymbols"><g class="legendpoints"><path class="scatterpts" transform="translate(20,0)" d="M6,0A6,6 0 1,1 0,-6A6,6 0 0,1 6,0Z" style="opacity: 0.7; stroke-width: 2px; fill: rgb(212, 168, 67); fill-opacity: 1; stroke: rgb(255, 255, 255); stroke-opacity: 1;"/></g></g></g><rect class="legendtoggle" x="0" y="-9.950000000000001" width="126.015625" height="19.900000000000002" style="fill: rgb(0, 0, 0); fill-opacity: 0;"/></g></g><g class="groups" transform=""><g class="traces" transform="translate(0,55.650000000000006)" style="opacity: 1;"><text class="legendtext" text-anchor="start" x="40" y="5.07" style="font-family: Inter, Arial; font-size: 13px; fill: rgb(26, 26, 46); fill-opacity: 1; white-space: pre;">GPT-4o</text><g class="layers" style="opacity: 1;"><g class="legendfill"/><g class="legendlines"/><g class="legendsymbols"><g class="legendpoints"><path class="scatterpts" transform="translate(20,0)" d="M6,0A6,6 0 1,1 0,-6A6,6 0 0,1 6,0Z" style="opacity: 0.7; stroke-width: 2px; fill: rgb(16, 163, 127); fill-opacity: 1; stroke: rgb(255, 255, 255); stroke-opacity: 1;"/></g></g></g><rect class="legendtoggle" x="0" y="-9.950000000000001" width="126.015625" height="19.900000000000002" style="fill: rgb(0, 0, 0); fill-opacity: 0;"/></g></g><g class="groups" transform=""><g class="traces" transform="translate(0,75.55000000000001)" style="opacity: 1;"><text class="legendtext" text-anchor="start" x="40" y="5.07" style="font-family: Inter, Arial; font-size: 13px; fill: rgb(26, 26, 46); fill-opacity: 1; white-space: pre;">GPT-4o-mini</text><g class="layers" style="opacity: 1;"><g class="legendfill"/><g class="legendlines"/><g class="legendsymbols"><g class="legendpoints"><path class="scatterpts" transform="translate(20,0)" d="M6,0A6,6 0 1,1 0,-6A6,6 0 0,1 6,0Z" style="opacity: 0.7; stroke-width: 2px; fill: rgb(116, 170, 156); fill-opacity: 1; stroke: rgb(255, 255, 255); stroke-opacity: 1;"/></g></g></g><rect class="legendtoggle" x="0" y="-9.950000000000001" width="126.015625" height="19.900000000000002" style="fill: rgb(0, 0, 0); fill-opacity: 0;"/></g></g><g class="groups" transform=""><g class="traces" transform="translate(0,95.45)" style="opacity: 1;"><text class="legendtext" text-anchor="start" x="40" y="5.07" style="font-family: Inter, Arial; font-size: 13px; fill: rgb(26, 26, 46); fill-opacity: 1; white-space: pre;">Gemini Flash</text><g class="layers" style="opacity: 1;"><g class="legendfill"/><g class="legendlines"/><g class="legendsymbols"><g class="legendpoints"><path class="scatterpts" transform="translate(20,0)" d="M6,0A6,6 0 1,1 0,-6A6,6 0 0,1 6,0Z" style="opacity: 0.7; stroke-width: 2px; fill: rgb(66, 133, 244); fill-opacity: 1; stroke: rgb(255, 255, 255); stroke-opacity: 1;"/></g></g></g><rect class="legendtoggle" x="0" y="-9.950000000000001" width="126.015625" height="19.900000000000002" style="fill: rgb(0, 0, 0); fill-opacity: 0;"/></g></g></g><rect class="scrollbar" rx="20" ry="3" width="0" height="0" x="0" y="0" style="fill: rgb(128, 139, 164); fill-opacity: 1;"/></g><g class="g-gtitle"><text class="gtitle" x="35" y="30" text-anchor="start" dy="0em" style="opacity: 1; font-family: Inter, Arial; font-size: 18px; fill: rgb(26, 26, 46); fill-opacity: 1; white-space: pre;">Debunker: Strategy Usage by Model (%)</text></g><g class="g-xtitle"><text class="xtitle" x="363" y="437.7" text-anchor="middle" style="opacity: 1; font-family: Inter, Arial; font-size: 16px; fill: rgb(26, 26, 46); fill-opacity: 1; white-space: pre;">Usage (%)</text></g><g class="g-ytitle"><text class="ytitle" transform="rotate(-90,17.868750000000006,227.5)" x="17.868750000000006" y="227.5" text-anchor="middle" style="opacity: 1; font-family: Inter, Arial; font-size: 16px; fill: rgb(26, 26, 46); fill-opacity: 1; white-space: pre;">Strategy</text></g></g></svg>