<svg class="main-svg" xmlns="http://www.w3.org/2000/svg" xmlns:xlink="http://www.w3.org/1999/xlink" width="700" height="450" style="" viewBox="0 0 700 450"><rect x="0" y="0" width="700" height="450" style="fill: rgb(255, 255, 255); fill-opacity: 1;"/><defs id="defs-7ff684"><g class="clips"><clipPath id="clip7ff684xyplot" class="plotclip"><rect width="492" height="335"/></clipPath><clipPath class="axesclip" id="clip7ff684x"><rect x="54" y="0" width="492" height="450"/></clipPath><clipPath class="axesclip" id="clip7ff684y"><rect x="0" y="60" width="700" height="335"/></clipPath><clipPath class="axesclip" id="clip7ff684xy"><rect x="54" y="60" width="492" height="335"/></clipPath></g><g class="gradients"/><g class="patterns"/></defs><g class="bglayer"/><g class="layer-below"><g class="imagelayer"/><g class="shapelayer"/></g><g class="cartesianlayer"><g class="subplot xy"><g class="layer-subplot"><g class="shapelayer"/><g class="imagelayer"/></g><g class="minor-gridlayer"><g class="x"/><g class="y"/></g><g class="gridlayer"><g class="x"><path class="xgrid crisp" transform="translate(117.75,0)" d="M0,60v335" style="stroke: rgb(224, 224, 224); stroke-opacity: 1; stroke-width: 1px;"/><path class="xgrid crisp" transform="translate(239.25,0)" d="M0,60v335" style="stroke: rgb(224, 224, 224); stroke-opacity: 1; stroke-width: 1px;"/><path class="xgrid crisp" transform="translate(360.75,0)" d="M0,60v335" style="stroke: rgb(224, 224, 224); stroke-opacity: 1; stroke-width: 1px;"/><path class="xgrid crisp" transform="translate(482.25,0)" d="M0,60v335" style="stroke: rgb(224, 224, 224); stroke-opacity: 1; stroke-width: 1px;"/></g><g class="y"><path class="ygrid crisp" transform="translate(0,346.84)" d="M54,0h492" style="stroke: rgb(224, 224, 224); stroke-opacity: 1; stroke-width: 1px;"/><path class="ygrid crisp" transform="translate(0,246.34)" d="M54,0h492" style="stroke: rgb(224, 224, 224); stroke-opacity: 1; stroke-width: 1px;"/><path class="ygrid crisp" transform="translate(0,196.09)" d="M54,0h492" style="stroke: rgb(224, 224, 224); stroke-opacity: 1; stroke-width: 1px;"/><path class="ygrid crisp" transform="translate(0,145.84)" d="M54,0h492" style="stroke: rgb(224, 224, 224); stroke-opacity: 1; stroke-width: 1px;"/><path class="ygrid crisp" transform="translate(0,95.59)" d="M54,0h492" style="stroke: rgb(224, 224, 224); stroke-opacity: 1; stroke-width: 1px;"/></g></g><g class="zerolinelayer"><path class="yzl zl crisp" transform="translate(0,296.59000000000003)" d="M54,0h492" style="stroke: rgb(255, 255, 255); stroke-opacity: 1; stroke-width: 2px;"/></g><g class="layer-between"><g class="shapelayer"/><g class="imagelayer"/></g><path class="xlines-below"/><path class="ylines-below"/><g class="overlines-below"/><g class="xaxislayer-below"/><g class="yaxislayer-below"/><g class="overaxes-below"/><g class="overplot"><g class="xy" transform="translate(54,60)" clip-path="url(#clip7ff684xyplot)"><g class="boxlayer mlayer"><g class="trace boxes" style="opacity: 1;"><path class="box" d="M24.41,202.05H39.3M24.41,218.14H39.3V169.86H24.41ZM31.86,218.14V277.42M31.86,169.86V139.23M28.14,277.42H35.58M28.14,139.23H35.58" style="vector-effect: none; stroke-width: 2px; stroke: rgb(16, 163, 127); stroke-opacity: 1; fill: rgb(16, 163, 127); fill-opacity: 0.5;"/><path class="box" d="M145.91,195.77H160.8M145.91,209.11H160.8V173.78H145.91ZM153.36,209.11V242.88M153.36,173.78V145.52M149.64,242.88H157.08M149.64,145.52H157.08" style="vector-effect: none; stroke-width: 2px; stroke: rgb(16, 163, 127); stroke-opacity: 1; fill: rgb(16, 163, 127); fill-opacity: 0.5;"/><path class="box" d="M267.41,195.77H282.3M267.41,274.28H282.3V176.92H267.41ZM274.86,274.28V289.98M274.86,176.92V142.38M271.14,289.98H278.58M271.14,142.38H278.58" style="vector-effect: none; stroke-width: 2px; stroke: rgb(16, 163, 127); stroke-opacity: 1; fill: rgb(16, 163, 127); fill-opacity: 0.5;"/><path class="box" d="M388.91,195.77H403.8M388.91,282.53H403.8V112.54H388.91ZM396.36,282.53V318.25M396.36,112.54V23.03M392.64,318.25H400.08M392.64,23.03H400.08" style="vector-effect: none; stroke-width: 2px; stroke: rgb(16, 163, 127); stroke-opacity: 1; fill: rgb(16, 163, 127); fill-opacity: 0.5;"/><g class="points"/><g class="points"><path class="point" transform="translate(153.36,289.98)" d="M3,0A3,3 0 1,1 0,-3A3,3 0 0,1 3,0Z" style="opacity: 1; stroke-width: 0px; fill: rgb(16, 163, 127); fill-opacity: 1;"/><path class="point" transform="translate(153.36,280.56)" d="M3,0A3,3 0 1,1 0,-3A3,3 0 0,1 3,0Z" style="opacity: 1; stroke-width: 0px; fill: rgb(16, 163, 127); fill-opacity: 1;"/></g><g class="points"/><g class="points"/></g><g class="trace boxes" style="opacity: 1;"><path class="box" d="M45.68,198.91H60.56M45.68,216.18H60.56V180.06H45.68ZM53.12,216.18V244.45M53.12,180.06V126.67M49.4,244.45H56.84M49.4,126.67H56.84" style="vector-effect: none; stroke-width: 2px; stroke: rgb(116, 170, 156); stroke-opacity: 1; fill: rgb(116, 170, 156); fill-opacity: 0.5;"/><path class="box" d="M167.18,195.77H182.06M167.18,214.61H182.06V170.64H167.18ZM174.62,214.61V280.56M174.62,170.64V148.66M170.9,280.56H178.34M170.9,148.66H178.34" style="vector-effect: none; stroke-width: 2px; stroke: rgb(116, 170, 156); stroke-opacity: 1; fill: rgb(116, 170, 156); fill-opacity: 0.5;"/><path class="box" d="M288.68,192.63H303.56M288.68,266.43H303.56V176.92H288.68ZM296.12,266.43V289.98M296.12,176.92V145.52M292.4,289.98H299.84M292.4,145.52H299.84" style="vector-effect: none; stroke-width: 2px; stroke: rgb(116, 170, 156); stroke-opacity: 1; fill: rgb(116, 170, 156); fill-opacity: 0.5;"/><path class="box" d="M410.18,202.05H425.06M410.18,282.13H425.06V144.73H410.18ZM417.62,282.13V315.11M417.62,144.73V30.88M413.9,315.11H421.34M413.9,30.88H421.34" style="vector-effect: none; stroke-width: 2px; stroke: rgb(116, 170, 156); stroke-opacity: 1; fill: rgb(116, 170, 156); fill-opacity: 0.5;"/><g class="points"><path class="point" transform="translate(53.12,302.55)" d="M3,0A3,3 0 1,1 0,-3A3,3 0 0,1 3,0Z" style="opacity: 1; stroke-width: 0px; fill: rgb(116, 170, 156); fill-opacity: 1;"/><path class="point" transform="translate(53.12,280.56)" d="M3,0A3,3 0 1,1 0,-3A3,3 0 0,1 3,0Z" style="opacity: 1; stroke-width: 0px; fill: rgb(116, 170, 156); fill-opacity: 1;"/><path class="point" transform="translate(53.12,280.56)" d="M3,0A3,3 0 1,1 0,-3A3,3 0 0,1 3,0Z" style="opacity: 1; stroke-width: 0px; fill: rgb(116, 170, 156); fill-opacity: 1;"/><path class="point" transform="translate(53.12,277.42)" d="M3,0A3,3 0 1,1 0,-3A3,3 0 0,1 3,0Z" style="opacity: 1; stroke-width: 0px; fill: rgb(116, 170, 156); fill-opacity: 1;"/><path class="point" transform="translate(53.12,277.42)" d="M3,0A3,3 0 1,1 0,-3A3,3 0 0,1 3,0Z" style="opacity: 1; stroke-width: 0px; fill: rgb(116, 170, 156); fill-opacity: 1;"/></g><g class="points"/><g class="points"/><g class="points"/></g><g class="trace boxes" style="opacity: 1;"><path class="box" d="M66.94,192.63H81.82M66.94,211.86H81.82V180.06H66.94ZM74.38,211.86V230.31M74.38,180.06V148.66M70.66,230.31H78.1M70.66,148.66H78.1" style="vector-effect: none; stroke-width: 2px; stroke: rgb(66, 133, 244); stroke-opacity: 1; fill: rgb(66, 133, 244); fill-opacity: 0.5;"/><path class="box" d="M188.44,195.77H203.32M188.44,209.11H203.32V173.78H188.44ZM195.88,209.11V242.88M195.88,173.78V136.09M192.16,242.88H199.6M192.16,136.09H199.6" style="vector-effect: none; stroke-width: 2px; stroke: rgb(66, 133, 244); stroke-opacity: 1; fill: rgb(66, 133, 244); fill-opacity: 0.5;"/><path class="box" d="M309.94,197.34H324.82M309.94,232.67H324.82V178.49H309.94ZM317.38,232.67V289.98M317.38,178.49V139.23M313.66,289.98H321.1M313.66,139.23H321.1" style="vector-effect: none; stroke-width: 2px; stroke: rgb(66, 133, 244); stroke-opacity: 1; fill: rgb(66, 133, 244); fill-opacity: 0.5;"/><path class="box" d="M431.44,202.05H446.32M431.44,286.84H446.32V116.46H431.44ZM438.88,286.84V299.41M438.88,116.46V70.14M435.16,299.41H442.6M435.16,70.14H442.6" style="vector-effect: none; stroke-width: 2px; stroke: rgb(66, 133, 244); stroke-opacity: 1; fill: rgb(66, 133, 244); fill-opacity: 0.5;"/><g class="points"><path class="point" transform="translate(74.38,274.28)" d="M3,0A3,3 0 1,1 0,-3A3,3 0 0,1 3,0Z" style="opacity: 1; stroke-width: 0px; fill: rgb(66, 133, 244); fill-opacity: 1;"/><path class="point" transform="translate(74.38,261.72)" d="M3,0A3,3 0 1,1 0,-3A3,3 0 0,1 3,0Z" style="opacity: 1; stroke-width: 0px; fill: rgb(66, 133, 244); fill-opacity: 1;"/></g><g class="points"/><g class="points"/><g class="points"/></g><g class="trace boxes" style="opacity: 1;"><path class="box" d="M88.2,173.78H103.09M88.2,183.6H103.09V161.22H88.2ZM95.64,183.6V211.47M95.64,161.22V139.23M91.92,211.47H99.36M91.92,139.23H99.36" style="vector-effect: none; stroke-width: 2px; stroke: rgb(212, 168, 67); stroke-opacity: 1; fill: rgb(212, 168, 67); fill-opacity: 0.5;"/><path class="box" d="M209.7,167.5H224.59M209.7,180.46H224.59V157.29H209.7ZM217.14,180.46V195.77M217.14,157.29V132.95M213.42,195.77H220.86M213.42,132.95H220.86" style="vector-effect: none; stroke-width: 2px; stroke: rgb(212, 168, 67); stroke-opacity: 1; fill: rgb(212, 168, 67); fill-opacity: 0.5;"/><path class="box" d="M331.2,176.92H346.09M331.2,189.48H346.09V164.36H331.2ZM338.64,189.48V208.33M338.64,164.36V132.95M334.92,208.33H342.36M334.92,132.95H342.36" style="vector-effect: none; stroke-width: 2px; stroke: rgb(212, 168, 67); stroke-opacity: 1; fill: rgb(212, 168, 67); fill-opacity: 0.5;"/><path class="box" d="M452.7,180.06H467.59M452.7,196.55H467.59V73.28H452.7ZM460.14,196.55V268M460.14,73.28V16.75M456.42,268H463.86M456.42,16.75H463.86" style="vector-effect: none; stroke-width: 2px; stroke: rgb(212, 168, 67); stroke-opacity: 1; fill: rgb(212, 168, 67); fill-opacity: 0.5;"/><g class="points"><path class="point" transform="translate(95.64,123.53)" d="M3,0A3,3 0 1,1 0,-3A3,3 0 0,1 3,0Z" style="opacity: 1; stroke-width: 0px; fill: rgb(212, 168, 67); fill-opacity: 1;"/><path class="point" transform="translate(95.64,117.25)" d="M3,0A3,3 0 1,1 0,-3A3,3 0 0,1 3,0Z" style="opacity: 1; stroke-width: 0px; fill: rgb(212, 168, 67); fill-opacity: 1;"/></g><g class="points"><path class="point" transform="translate(217.14,120.39)" d="M3,0A3,3 0 1,1 0,-3A3,3 0 0,1 3,0Z" style="opacity: 1; stroke-width: 0px; fill: rgb(212, 168, 67); fill-opacity: 1;"/><path class="point" transform="translate(217.14,120.39)" d="M3,0A3,3 0 1,1 0,-3A3,3 0 0,1 3,0Z" style="opacity: 1; stroke-width: 0px; fill: rgb(212, 168, 67); fill-opacity: 1;"/><path class="point" transform="translate(217.14,117.25)" d="M3,0A3,3 0 1,1 0,-3A3,3 0 0,1 3,0Z" style="opacity: 1; stroke-width: 0px; fill: rgb(212, 168, 67); fill-opacity: 1;"/><path class="point" transform="translate(217.14,114.11)" d="M3,0A3,3 0 1,1 0,-3A3,3 0 0,1 3,0Z" style="opacity: 1; stroke-width: 0px; fill: rgb(212, 168, 67); fill-opacity: 1;"/></g><g class="points"><path class="point" transform="translate(338.64,230.31)" d="M3,0A3,3 0 1,1 0,-3A3,3 0 0,1 3,0Z" style="opacity: 1; stroke-width: 0px; fill: rgb(212, 168, 67); fill-opacity: 1;"/></g><g class="points"/></g></g></g></g><path class="xlines-above crisp" d="M0,0" style="fill: none;"/><path class="ylines-above crisp" d="M0,0" style="fill: none;"/><g class="overlines-above"/><g class="xaxislayer-above"><g class="xtick"><text text-anchor="middle" x="0" y="409" transform="translate(117.75,0)" style="font-family: Inter, Arial; font-size: 13px; fill: rgb(26, 26, 46); fill-opacity: 1; white-space: pre; opacity: 1;">GPT-4o</text></g><g class="xtick"><text text-anchor="middle" x="0" y="409" transform="translate(239.25,0)" style="font-family: Inter, Arial; font-size: 13px; fill: rgb(26, 26, 46); fill-opacity: 1; white-space: pre; opacity: 1;">GPT-4o-mini</text></g><g class="xtick"><text text-anchor="middle" x="0" y="409" transform="translate(360.75,0)" style="font-family: Inter, Arial; font-size: 13px; fill: rgb(26, 26, 46); fill-opacity: 1; white-space: pre; opacity: 1;">Gemini Flash</text></g><g class="xtick"><text text-anchor="middle" x="0" y="409" transform="translate(482.25,0)" style="font-family: Inter, Arial; font-size: 13px; fill: rgb(26, 26, 46); fill-opacity: 1; white-space: pre; opacity: 1;">Claude Sonnet</text></g></g><g class="yaxislayer-above"><g class="ytick"><text text-anchor="end" x="53" y="4.55" transform="translate(0,346.84)" style="font-family: Inter, Arial; font-size: 13px; fill: rgb(26, 26, 46); fill-opacity: 1; white-space: pre; opacity: 1;">−2</text></g><g class="ytick"><text text-anchor="end" x="53" y="4.55" style="font-family: Inter, Arial; font-size: 13px; fill: rgb(26, 26, 46); fill-opacity: 1; white-space: pre; opacity: 1;" transform="translate(0,296.59000000000003)">0</text></g><g class="ytick"><text text-anchor="end" x="53" y="4.55" style="font-family: Inter, Arial; font-size: 13px; fill: rgb(26, 26, 46); fill-opacity: 1; white-space: pre; opacity: 1;" transform="translate(0,246.34)">2</text></g><g class="ytick"><text text-anchor="end" x="53" y="4.55" style="font-family: Inter, Arial; font-size: 13px; fill: rgb(26, 26, 46); fill-opacity: 1; white-space: pre; opacity: 1;" transform="translate(0,196.09)">4</text></g><g class="ytick"><text text-anchor="end" x="53" y="4.55" style="font-family: Inter, Arial; font-size: 13px; fill: rgb(26, 26, 46); fill-opacity: 1; white-space: pre; opacity: 1;" transform="translate(0,145.84)">6</text></g><g class="ytick"><text text-anchor="end" x="53" y="4.55" style="font-family: Inter, Arial; font-size: 13px; fill: rgb(26, 26, 46); fill-opacity: 1; white-space: pre; opacity: 1;" transform="translate(0,95.59)">8</text></g></g><g class="overaxes-above"/></g></g><g class="polarlayer"/><g class="smithlayer"/><g class="ternarylayer"/><g class="geolayer"/><g class="funnelarealayer"/><g class="pielayer"/><g class="iciclelayer"/><g class="treemaplayer"/><g class="sunburstlayer"/><g class="glimages"/><defs id="topdefs-7ff684"><g class="clips"/><clipPath id="legend7ff684"><rect width="132" height="111" x="0" y="0"/></clipPath></defs><g class="layer-above"><g class="imagelayer"/><g class="shapelayer"><g class="shape-group" data-index="0" clip-path="url(#clip7ff684y)"><path data-index="0" fill-rule="evenodd" d="M54,296.59000000000003L546,296.59000000000003" style="opacity: 1; stroke: rgb(102, 102, 102); stroke-opacity: 1; fill: rgb(0, 0, 0); fill-opacity: 0; stroke-dasharray: 9px, 9px; stroke-width: 2px;"/></g></g></g><g class="infolayer"><g class="legend" pointer-events="all" transform="translate(555.84,60)"><rect class="bg" shape-rendering="crispEdges" width="132" height="111" x="0" y="0" style="stroke: rgb(68, 68, 68); stroke-opacity: 1; fill: rgb(255, 255, 255); fill-opacity: 1; stroke-width: 0px;"/><g class="scrollbox" transform="" clip-path="url(#legend7ff684)"><text class="legendtitletext" text-anchor="start" x="2" y="20.8" style="font-family: Inter, Arial; font-size: 16px; fill: rgb(26, 26, 46); fill-opacity: 1; white-space: pre;">dm</text><g class="groups" transform=""><g class="traces" transform="translate(0,35.75)" style="opacity: 1;"><text class="legendtext" text-anchor="start" x="40" y="5.07" style="font-family: Inter, Arial; font-size: 13px; fill: rgb(26, 26, 46); fill-opacity: 1; white-space: pre;">GPT-4o</text><g class="layers" style="opacity: 1;"><g class="legendfill"/><g class="legendlines"/><g class="legendsymbols"><g class="legendpoints"><path class="legendbox" d="M6,6H-6V-6H6Z" transform="translate(20,0)" style="stroke-width: 2px; fill: rgb(16, 163, 127); fill-opacity: 0.5; stroke: rgb(16, 163, 127); stroke-opacity: 1;"/></g></g></g><rect class="legendtoggle" x="0" y="-9.950000000000001" width="126.015625" height="19.900000000000002" style="fill: rgb(0, 0, 0); fill-opacity: 0;"/></g></g><g class="groups" transform=""><g class="traces" transform="translate(0,55.650000000000006)" style="opacity: 1;"><text class="legendtext" text-anchor="start" x="40" y="5.07" style="font-family: Inter, Arial; font-size: 13px; fill: rgb(26, 26, 46); fill-opacity: 1; white-space: pre;">GPT-4o-mini</text><g class="layers" style="opacity: 1;"><g class="legendfill"/><g class="legendlines"/><g class="legendsymbols"><g class="legendpoints"><path class="legendbox" d="M6,6H-6V-6H6Z" transform="translate(20,0)" style="stroke-width: 2px; fill: rgb(116, 170, 156); fill-opacity: 0.5; stroke: rgb(116, 170, 156); stroke-opacity: 1;"/></g></g></g><rect class="legendtoggle" x="0" y="-9.950000000000001" width="126.015625" height="19.900000000000002" style="fill: rgb(0, 0, 0); fill-opacity: 0;"/></g></g><g class="groups" transform=""><g class="traces" transform="translate(0,75.55000000000001)" style="opacity: 1;"><text class="legendtext" text-anchor="start" x="40" y="5.07" style="font-family: Inter, Arial; font-size: 13px; fill: rgb(26, 26, 46); fill-opacity: 1; white-space: pre;">Gemini Flash</text><g class="layers" style="opacity: 1;"><g class="legendfill"/><g class="legendlines"/><g class="legendsymbols"><g class="legendpoints"><path class="legendbox" d="M6,6H-6V-6H6Z" transform="translate(20,0)" style="stroke-width: 2px; fill: rgb(66, 133, 244); fill-opacity: 0.5; stroke: rgb(66, 133, 244); stroke-opacity: 1;"/></g></g></g><rect class="legendtoggle" x="0" y="-9.950000000000001" width="126.015625" height="19.900000000000002" style="fill: rgb(0, 0, 0); fill-opacity: 0;"/></g></g><g class="groups" transform=""><g class="traces" transform="translate(0,95.45)" style="opacity: 1;"><text class="legendtext" text-anchor="start" x="40" y="5.07" style="font-family: Inter, Arial; font-size: 13px; fill: rgb(26, 26, 46); fill-opacity: 1; white-space: pre;">Claude Sonnet</text><g class="layers" style="opacity: 1;"><g class="legendfill"/><g class="legendlines"/><g class="legendsymbols"><g class="legendpoints"><path class="legendbox" d="M6,6H-6V-6H6Z" transform="translate(20,0)" style="stroke-width: 2px; fill: rgb(212, 168, 67); fill-opacity: 0.5; stroke: rgb(212, 168, 67); stroke-opacity: 1;"/></g></g></g><rect class="legendtoggle" x="0" y="-9.950000000000001" width="126.015625" height="19.900000000000002" style="fill: rgb(0, 0, 0); fill-opacity: 0;"/></g></g></g><rect class="scrollbar" rx="20" ry="3" width="0" height="0" x="0" y="0" style="fill: rgb(128, 139, 164); fill-opacity: 1;"/></g><g class="g-gtitle"><text class="gtitle" x="35" y="30" text-anchor="start" dy="0em" style="opacity: 1; font-family: Inter, Arial; font-size: 18px; fill: rgb(26, 26, 46); fill-opacity: 1; white-space: pre;">Score Margin: Spreader vs Each Debunker</text></g><g class="g-xtitle"><text class="xtitle" x="300" y="437.7" text-anchor="middle" style="opacity: 1; font-family: Inter, Arial; font-size: 16px; fill: rgb(26, 26, 46); fill-opacity: 1; white-space: pre;">Spreader Model</text></g><g class="g-ytitle"><text class="ytitle" transform="rotate(-90,18.071875,227.5)" x="18.071875" y="227.5" text-anchor="middle" style="opacity: 1; font-family: Inter, Arial; font-size: 16px; fill: rgb(26, 26, 46); fill-opacity: 1; white-space: pre;">Margin</text></g></g></svg>