<svg class="main-svg" xmlns="http://www.w3.org/2000/svg" xmlns:xlink="http://www.w3.org/1999/xlink" width="700" height="328" style="" viewBox="0 0 700 328"><rect x="0" y="0" width="700" height="328" style="fill: rgb(255, 255, 255); fill-opacity: 1;"/><defs id="defs-57688f"><g class="clips"><clipPath id="clip57688fxyplot" class="plotclip"><rect width="466" height="213"/></clipPath><clipPath class="axesclip" id="clip57688fx"><rect x="194" y="0" width="466" height="328"/></clipPath><clipPath class="axesclip" id="clip57688fy"><rect x="0" y="60" width="700" height="213"/></clipPath><clipPath class="axesclip" id="clip57688fxy"><rect x="194" y="60" width="466" height="213"/></clipPath></g><g class="gradients"/><g class="patterns"/></defs><g class="bglayer"/><g class="layer-below"><g class="imagelayer"/><g class="shapelayer"/></g><g class="cartesianlayer"><g class="subplot xy"><g class="layer-subplot"><g class="shapelayer"/><g class="imagelayer"/></g><g class="minor-gridlayer"><g class="x"/><g class="y"/></g><g class="gridlayer"><g class="x"><path class="xgrid crisp" transform="translate(221.55,0)" d="M0,60v213" style="stroke: rgb(224, 224, 224); stroke-opacity: 1; stroke-width: 1px;"/><path class="xgrid crisp" transform="translate(389.81,0)" d="M0,60v213" style="stroke: rgb(224, 224, 224); stroke-opacity: 1; stroke-width: 1px;"/><path class="xgrid crisp" transform="translate(473.94,0)" d="M0,60v213" style="stroke: rgb(224, 224, 224); stroke-opacity: 1; stroke-width: 1px;"/><path class="xgrid crisp" transform="translate(558.0699999999999,0)" d="M0,60v213" style="stroke: rgb(224, 224, 224); stroke-opacity: 1; stroke-width: 1px;"/><path class="xgrid crisp" transform="translate(642.2,0)" d="M0,60v213" style="stroke: rgb(224, 224, 224); stroke-opacity: 1; stroke-width: 1px;"/></g><g class="y"><path class="ygrid crisp" transform="translate(0,256.1)" d="M194,0h466" style="stroke: rgb(224, 224, 224); stroke-opacity: 1; stroke-width: 1px;"/><path class="ygrid crisp" transform="translate(0,220.26)" d="M194,0h466" style="stroke: rgb(224, 224, 224); stroke-opacity: 1; stroke-width: 1px;"/><path class="ygrid crisp" transform="translate(0,184.42000000000002)" d="M194,0h466" style="stroke: rgb(224, 224, 224); stroke-opacity: 1; stroke-width: 1px;"/><path class="ygrid crisp" transform="translate(0,148.57999999999998)" d="M194,0h466" style="stroke: rgb(224, 224, 224); stroke-opacity: 1; stroke-width: 1px;"/><path class="ygrid crisp" transform="translate(0,112.74000000000001)" d="M194,0h466" style="stroke: rgb(224, 224, 224); stroke-opacity: 1; stroke-width: 1px;"/><path class="ygrid crisp" transform="translate(0,76.9)" d="M194,0h466" style="stroke: rgb(224, 224, 224); stroke-opacity: 1; stroke-width: 1px;"/></g></g><g class="zerolinelayer"><path class="xzl zl crisp" transform="translate(305.68,0)" d="M0,60v213" style="stroke: rgb(255, 255, 255); stroke-opacity: 1; stroke-width: 2px;"/></g><g class="layer-between"><g class="shapelayer"/><g class="imagelayer"/></g><path class="xlines-below"/><path class="ylines-below"/><g class="overlines-below"/><g class="xaxislayer-below"/><g class="yaxislayer-below"/><g class="overaxes-below"/><g class="overplot"><g class="xy" transform="translate(194,60)" clip-path="url(#clip57688fxyplot)"><g class="scatterlayer mlayer"><g class="trace scatter trace3d1d0c" style="stroke-miterlimit: 2; opacity: 1;"><g class="fills"/><g class="errorbars"/><g class="lines"><path class="js-line" d="M287.01,196.1L438.95,196.1" style="vector-effect: none; fill: none; stroke: rgb(201, 54, 62); stroke-opacity: 1; stroke-width: 3px; opacity: 1;"/></g><g class="points"><path class="point" transform="translate(287.01,196.1)" d="M3,0A3,3 0 1,1 0,-3A3,3 0 0,1 3,0Z" style="opacity: 1; stroke-width: 0px; fill: rgb(201, 54, 62); fill-opacity: 1;"/><path class="point" transform="translate(438.95,196.1)" d="M3,0A3,3 0 1,1 0,-3A3,3 0 0,1 3,0Z" style="opacity: 1; stroke-width: 0px; fill: rgb(201, 54, 62); fill-opacity: 1;"/></g><g class="text"/></g><g class="trace scatter trace488fc1" style="stroke-miterlimit: 2; opacity: 1;"><g class="fills"/><g class="errorbars"/><g class="lines"/><g class="points"><path class="point" transform="translate(363.06,196.1)" d="M6.5,0L0,6.5L-6.5,0L0,-6.5Z" style="opacity: 1; stroke-width: 0px; fill: rgb(201, 54, 62); fill-opacity: 1;"/></g><g class="text"/></g><g class="trace scatter trace586a06" style="stroke-miterlimit: 2; opacity: 1;"><g class="fills"/><g class="errorbars"/><g class="lines"><path class="js-line" d="M279.94,160.26L431.88,160.26" style="vector-effect: none; fill: none; stroke: rgb(201, 54, 62); stroke-opacity: 1; stroke-width: 3px; opacity: 1;"/></g><g class="points"><path class="point" transform="translate(279.94,160.26)" d="M3,0A3,3 0 1,1 0,-3A3,3 0 0,1 3,0Z" style="opacity: 1; stroke-width: 0px; fill: rgb(201, 54, 62); fill-opacity: 1;"/><path class="point" transform="translate(431.88,160.26)" d="M3,0A3,3 0 1,1 0,-3A3,3 0 0,1 3,0Z" style="opacity: 1; stroke-width: 0px; fill: rgb(201, 54, 62); fill-opacity: 1;"/></g><g class="text"/></g><g class="trace scatter trace24e501" style="stroke-miterlimit: 2; opacity: 1;"><g class="fills"/><g class="errorbars"/><g class="lines"/><g class="points"><path class="point" transform="translate(356,160.26)" d="M6.5,0L0,6.5L-6.5,0L0,-6.5Z" style="opacity: 1; stroke-width: 0px; fill: rgb(201, 54, 62); fill-opacity: 1;"/></g><g class="text"/></g><g class="trace scatter tracef741d2" style="stroke-miterlimit: 2; opacity: 1;"><g class="fills"/><g class="errorbars"/><g class="lines"><path class="js-line" d="M277.93,124.42L433.57,124.42" style="vector-effect: none; fill: none; stroke: rgb(201, 54, 62); stroke-opacity: 1; stroke-width: 3px; opacity: 1;"/></g><g class="points"><path class="point" transform="translate(277.93,124.42)" d="M3,0A3,3 0 1,1 0,-3A3,3 0 0,1 3,0Z" style="opacity: 1; stroke-width: 0px; fill: rgb(201, 54, 62); fill-opacity: 1;"/><path class="point" transform="translate(433.57,124.42)" d="M3,0A3,3 0 1,1 0,-3A3,3 0 0,1 3,0Z" style="opacity: 1; stroke-width: 0px; fill: rgb(201, 54, 62); fill-opacity: 1;"/></g><g class="text"/></g><g class="trace scatter tracec3a27f" style="stroke-miterlimit: 2; opacity: 1;"><g class="fills"/><g class="errorbars"/><g class="lines"/><g class="points"><path class="point" transform="translate(355.83,124.42)" d="M6.5,0L0,6.5L-6.5,0L0,-6.5Z" style="opacity: 1; stroke-width: 0px; fill: rgb(201, 54, 62); fill-opacity: 1;"/></g><g class="text"/></g><g class="trace scatter trace3ddfd0" style="stroke-miterlimit: 2; opacity: 1;"><g class="fills"/><g class="errorbars"/><g class="lines"><path class="js-line" d="M29.07,88.58L180.17,88.58" style="vector-effect: none; fill: none; stroke: rgb(170, 170, 170); stroke-opacity: 1; stroke-width: 1px; opacity: 1;"/></g><g class="points"><path class="point" transform="translate(29.07,88.58)" d="M3,0A3,3 0 1,1 0,-3A3,3 0 0,1 3,0Z" style="opacity: 1; stroke-width: 0px; fill: rgb(170, 170, 170); fill-opacity: 1;"/><path class="point" transform="translate(180.17,88.58)" d="M3,0A3,3 0 1,1 0,-3A3,3 0 0,1 3,0Z" style="opacity: 1; stroke-width: 0px; fill: rgb(170, 170, 170); fill-opacity: 1;"/></g><g class="text"/></g><g class="trace scatter trace57dc2b" style="stroke-miterlimit: 2; opacity: 1;"><g class="fills"/><g class="errorbars"/><g class="lines"/><g class="points"><path class="point" transform="translate(104.62,88.58)" d="M6.5,0L0,6.5L-6.5,0L0,-6.5Z" style="opacity: 1; stroke-width: 0px; fill: rgb(170, 170, 170); fill-opacity: 1;"/></g><g class="text"/></g><g class="trace scatter trace426991" style="stroke-miterlimit: 2; opacity: 1;"><g class="fills"/><g class="errorbars"/><g class="lines"><path class="js-line" d="M27.05,52.74L181.85,52.74" style="vector-effect: none; fill: none; stroke: rgb(170, 170, 170); stroke-opacity: 1; stroke-width: 1px; opacity: 1;"/></g><g class="points"><path class="point" transform="translate(27.05,52.74)" d="M3,0A3,3 0 1,1 0,-3A3,3 0 0,1 3,0Z" style="opacity: 1; stroke-width: 0px; fill: rgb(170, 170, 170); fill-opacity: 1;"/><path class="point" transform="translate(181.85,52.74)" d="M3,0A3,3 0 1,1 0,-3A3,3 0 0,1 3,0Z" style="opacity: 1; stroke-width: 0px; fill: rgb(170, 170, 170); fill-opacity: 1;"/></g><g class="text"/></g><g class="trace scatter trace7cd736" style="stroke-miterlimit: 2; opacity: 1;"><g class="fills"/><g class="errorbars"/><g class="lines"/><g class="points"><path class="point" transform="translate(104.45,52.74)" d="M6.5,0L0,6.5L-6.5,0L0,-6.5Z" style="opacity: 1; stroke-width: 0px; fill: rgb(170, 170, 170); fill-opacity: 1;"/></g><g class="text"/></g><g class="trace scatter trace325951" style="stroke-miterlimit: 2; opacity: 1;"><g class="fills"/><g class="errorbars"/><g class="lines"><path class="js-line" d="M34.12,16.9L188.92,16.9" style="vector-effect: none; fill: none; stroke: rgb(170, 170, 170); stroke-opacity: 1; stroke-width: 1px; opacity: 1;"/></g><g class="points"><path class="point" transform="translate(34.12,16.9)" d="M3,0A3,3 0 1,1 0,-3A3,3 0 0,1 3,0Z" style="opacity: 1; stroke-width: 0px; fill: rgb(170, 170, 170); fill-opacity: 1;"/><path class="point" transform="translate(188.92,16.9)" d="M3,0A3,3 0 1,1 0,-3A3,3 0 0,1 3,0Z" style="opacity: 1; stroke-width: 0px; fill: rgb(170, 170, 170); fill-opacity: 1;"/></g><g class="text"/></g><g class="trace scatter trace76f867" style="stroke-miterlimit: 2; opacity: 1;"><g class="fills"/><g class="errorbars"/><g class="lines"/><g class="points"><path class="point" transform="translate(111.52,16.9)" d="M6.5,0L0,6.5L-6.5,0L0,-6.5Z" style="opacity: 1; stroke-width: 0px; fill: rgb(170, 170, 170); fill-opacity: 1;"/></g><g class="text"/></g></g></g></g><path class="xlines-above crisp" d="M0,0" style="fill: none;"/><path class="ylines-above crisp" d="M0,0" style="fill: none;"/><g class="overlines-above"/><g class="xaxislayer-above"><g class="xtick"><text text-anchor="middle" x="0" y="287" transform="translate(221.55,0)" style="font-family: Inter, Arial; font-size: 13px; fill: rgb(26, 26, 46); fill-opacity: 1; white-space: pre; opacity: 1;">−0.05</text></g><g class="xtick"><text text-anchor="middle" x="0" y="287" style="font-family: Inter, Arial; font-size: 13px; fill: rgb(26, 26, 46); fill-opacity: 1; white-space: pre; opacity: 1;" transform="translate(305.68,0)">0</text></g><g class="xtick"><text text-anchor="middle" x="0" y="287" style="font-family: Inter, Arial; font-size: 13px; fill: rgb(26, 26, 46); fill-opacity: 1; white-space: pre; opacity: 1;" transform="translate(389.81,0)">0.05</text></g><g class="xtick"><text text-anchor="middle" x="0" y="287" style="font-family: Inter, Arial; font-size: 13px; fill: rgb(26, 26, 46); fill-opacity: 1; white-space: pre; opacity: 1;" transform="translate(473.94,0)">0.1</text></g><g class="xtick"><text text-anchor="middle" x="0" y="287" style="font-family: Inter, Arial; font-size: 13px; fill: rgb(26, 26, 46); fill-opacity: 1; white-space: pre; opacity: 1;" transform="translate(558.0699999999999,0)">0.15</text></g><g class="xtick"><text text-anchor="middle" x="0" y="287" style="font-family: Inter, Arial; font-size: 13px; fill: rgb(26, 26, 46); fill-opacity: 1; white-space: pre; opacity: 1;" transform="translate(642.2,0)">0.2</text></g></g><g class="yaxislayer-above"><g class="ytick"><text text-anchor="end" x="193" y="4.55" transform="translate(0,256.1)" style="font-family: Inter, Arial; font-size: 13px; fill: rgb(26, 26, 46); fill-opacity: 1; white-space: pre; opacity: 1;">Claude Sonnet  -  GPT-4o</text></g><g class="ytick"><text text-anchor="end" x="193" y="4.55" transform="translate(0,220.26)" style="font-family: Inter, Arial; font-size: 13px; fill: rgb(26, 26, 46); fill-opacity: 1; white-space: pre; opacity: 1;">Claude Sonnet  -  GPT-4o-mini</text></g><g class="ytick"><text text-anchor="end" x="193" y="4.55" transform="translate(0,184.42000000000002)" style="font-family: Inter, Arial; font-size: 13px; fill: rgb(26, 26, 46); fill-opacity: 1; white-space: pre; opacity: 1;">Claude Sonnet  -  Gemini Flash</text></g><g class="ytick"><text text-anchor="end" x="193" y="4.55" transform="translate(0,148.57999999999998)" style="font-family: Inter, Arial; font-size: 13px; fill: rgb(26, 26, 46); fill-opacity: 1; white-space: pre; opacity: 1;">GPT-4o  -  GPT-4o-mini</text></g><g class="ytick"><text text-anchor="end" x="193" y="4.55" transform="translate(0,112.74000000000001)" style="font-family: Inter, Arial; font-size: 13px; fill: rgb(26, 26, 46); fill-opacity: 1; white-space: pre; opacity: 1;">GPT-4o  -  Gemini Flash</text></g><g class="ytick"><text text-anchor="end" x="193" y="4.55" transform="translate(0,76.9)" style="font-family: Inter, Arial; font-size: 13px; fill: rgb(26, 26, 46); fill-opacity: 1; white-space: pre; opacity: 1;">GPT-4o-mini  -  Gemini Flash</text></g></g><g class="overaxes-above"/></g></g><g class="polarlayer"/><g class="smithlayer"/><g class="ternarylayer"/><g class="geolayer"/><g class="funnelarealayer"/><g class="pielayer"/><g class="iciclelayer"/><g class="treemaplayer"/><g class="sunburstlayer"/><g class="glimages"/><defs id="topdefs-57688f"><g class="clips"/></defs><g class="layer-above"><g class="imagelayer"/><g class="shapelayer"><g class="shape-group" data-index="0" clip-path="url(#clip57688fx)"><path data-index="0" fill-rule="evenodd" d="M305.68,273L305.68,60" style="opacity: 1; stroke: rgb(26, 26, 46); stroke-opacity: 1; fill: rgb(0, 0, 0); fill-opacity: 0; stroke-dasharray: 9px, 9px; stroke-width: 2px;"/></g></g></g><g class="infolayer"><g class="g-gtitle"><text class="gtitle" x="35" y="30" text-anchor="start" dy="0em" style="opacity: 1; font-family: Inter, Arial; font-size: 18px; fill: rgb(26, 26, 46); fill-opacity: 1; white-space: pre;">Spreader Adaptation Rate by Model — Tukey CIs</text></g><g class="g-xtitle"><text class="xtitle" x="427" y="315.7" text-anchor="middle" style="opacity: 1; font-family: Inter, Arial; font-size: 16px; fill: rgb(26, 26, 46); fill-opacity: 1; white-space: pre;">Difference (red=significant)</text></g><g class="g-ytitle"/></g></svg>