<svg class="main-svg" xmlns="http://www.w3.org/2000/svg" xmlns:xlink="http://www.w3.org/1999/xlink" width="700" height="328" style="" viewBox="0 0 700 328"><rect x="0" y="0" width="700" height="328" style="fill: rgb(255, 255, 255); fill-opacity: 1;"/><defs id="defs-3c5715"><g class="clips"><clipPath id="clip3c5715xyplot" class="plotclip"><rect width="466" height="213"/></clipPath><clipPath class="axesclip" id="clip3c5715x"><rect x="194" y="0" width="466" height="328"/></clipPath><clipPath class="axesclip" id="clip3c5715y"><rect x="0" y="60" width="700" height="213"/></clipPath><clipPath class="axesclip" id="clip3c5715xy"><rect x="194" y="60" width="466" height="213"/></clipPath></g><g class="gradients"/><g class="patterns"/></defs><g class="bglayer"/><g class="layer-below"><g class="imagelayer"/><g class="shapelayer"/></g><g class="cartesianlayer"><g class="subplot xy"><g class="layer-subplot"><g class="shapelayer"/><g class="imagelayer"/></g><g class="minor-gridlayer"><g class="x"/><g class="y"/></g><g class="gridlayer"><g class="x"><path class="xgrid crisp" transform="translate(276.35,0)" d="M0,60v213" style="stroke: rgb(224, 224, 224); stroke-opacity: 1; stroke-width: 1px;"/><path class="xgrid crisp" transform="translate(474.57,0)" d="M0,60v213" style="stroke: rgb(224, 224, 224); stroke-opacity: 1; stroke-width: 1px;"/><path class="xgrid crisp" transform="translate(573.6800000000001,0)" d="M0,60v213" style="stroke: rgb(224, 224, 224); stroke-opacity: 1; stroke-width: 1px;"/></g><g class="y"><path class="ygrid crisp" transform="translate(0,256.1)" d="M194,0h466" style="stroke: rgb(224, 224, 224); stroke-opacity: 1; stroke-width: 1px;"/><path class="ygrid crisp" transform="translate(0,220.26)" d="M194,0h466" style="stroke: rgb(224, 224, 224); stroke-opacity: 1; stroke-width: 1px;"/><path class="ygrid crisp" transform="translate(0,184.42000000000002)" d="M194,0h466" style="stroke: rgb(224, 224, 224); stroke-opacity: 1; stroke-width: 1px;"/><path class="ygrid crisp" transform="translate(0,148.57999999999998)" d="M194,0h466" style="stroke: rgb(224, 224, 224); stroke-opacity: 1; stroke-width: 1px;"/><path class="ygrid crisp" transform="translate(0,112.74000000000001)" d="M194,0h466" style="stroke: rgb(224, 224, 224); stroke-opacity: 1; stroke-width: 1px;"/><path class="ygrid crisp" transform="translate(0,76.9)" d="M194,0h466" style="stroke: rgb(224, 224, 224); stroke-opacity: 1; stroke-width: 1px;"/></g></g><g class="zerolinelayer"><path class="xzl zl crisp" transform="translate(375.46000000000004,0)" d="M0,60v213" style="stroke: rgb(255, 255, 255); stroke-opacity: 1; stroke-width: 2px;"/></g><g class="layer-between"><g class="shapelayer"/><g class="imagelayer"/></g><path class="xlines-below"/><path class="ylines-below"/><g class="overlines-below"/><g class="xaxislayer-below"/><g class="yaxislayer-below"/><g class="overaxes-below"/><g class="overplot"><g class="xy" transform="translate(194,60)" clip-path="url(#clip3c5715xyplot)"><g class="scatterlayer mlayer"><g class="trace scatter traced161e0" style="stroke-miterlimit: 2; opacity: 1;"><g class="fills"/><g class="errorbars"/><g class="lines"><path class="js-line" d="M178.09,196.1L427.26,196.1" style="vector-effect: none; fill: none; stroke: rgb(170, 170, 170); stroke-opacity: 1; stroke-width: 1px; opacity: 1;"/></g><g class="points"><path class="point" transform="translate(178.09,196.1)" d="M3,0A3,3 0 1,1 0,-3A3,3 0 0,1 3,0Z" style="opacity: 1; stroke-width: 0px; fill: rgb(170, 170, 170); fill-opacity: 1;"/><path class="point" transform="translate(427.26,196.1)" d="M3,0A3,3 0 1,1 0,-3A3,3 0 0,1 3,0Z" style="opacity: 1; stroke-width: 0px; fill: rgb(170, 170, 170); fill-opacity: 1;"/></g><g class="text"/></g><g class="trace scatter trace8f6e88" style="stroke-miterlimit: 2; opacity: 1;"><g class="fills"/><g class="errorbars"/><g class="lines"/><g class="points"><path class="point" transform="translate(302.67,196.1)" d="M6.5,0L0,6.5L-6.5,0L0,-6.5Z" style="opacity: 1; stroke-width: 0px; fill: rgb(170, 170, 170); fill-opacity: 1;"/></g><g class="text"/></g><g class="trace scatter trace418280" style="stroke-miterlimit: 2; opacity: 1;"><g class="fills"/><g class="errorbars"/><g class="lines"><path class="js-line" d="M192.66,160.26L438.95,160.26" style="vector-effect: none; fill: none; stroke: rgb(201, 54, 62); stroke-opacity: 1; stroke-width: 3px; opacity: 1;"/></g><g class="points"><path class="point" transform="translate(192.66,160.26)" d="M3,0A3,3 0 1,1 0,-3A3,3 0 0,1 3,0Z" style="opacity: 1; stroke-width: 0px; fill: rgb(201, 54, 62); fill-opacity: 1;"/><path class="point" transform="translate(438.95,160.26)" d="M3,0A3,3 0 1,1 0,-3A3,3 0 0,1 3,0Z" style="opacity: 1; stroke-width: 0px; fill: rgb(201, 54, 62); fill-opacity: 1;"/></g><g class="text"/></g><g class="trace scatter trace0fba60" style="stroke-miterlimit: 2; opacity: 1;"><g class="fills"/><g class="errorbars"/><g class="lines"/><g class="points"><path class="point" transform="translate(315.76,160.26)" d="M6.5,0L0,6.5L-6.5,0L0,-6.5Z" style="opacity: 1; stroke-width: 0px; fill: rgb(201, 54, 62); fill-opacity: 1;"/></g><g class="text"/></g><g class="trace scatter traceafbb50" style="stroke-miterlimit: 2; opacity: 1;"><g class="fills"/><g class="errorbars"/><g class="lines"><path class="js-line" d="M160.35,124.42L407.33,124.42" style="vector-effect: none; fill: none; stroke: rgb(170, 170, 170); stroke-opacity: 1; stroke-width: 1px; opacity: 1;"/></g><g class="points"><path class="point" transform="translate(160.35,124.42)" d="M3,0A3,3 0 1,1 0,-3A3,3 0 0,1 3,0Z" style="opacity: 1; stroke-width: 0px; fill: rgb(170, 170, 170); fill-opacity: 1;"/><path class="point" transform="translate(407.33,124.42)" d="M3,0A3,3 0 1,1 0,-3A3,3 0 0,1 3,0Z" style="opacity: 1; stroke-width: 0px; fill: rgb(170, 170, 170); fill-opacity: 1;"/></g><g class="text"/></g><g class="trace scatter tracef5babd" style="stroke-miterlimit: 2; opacity: 1;"><g class="fills"/><g class="errorbars"/><g class="lines"/><g class="points"><path class="point" transform="translate(283.84,124.42)" d="M6.5,0L0,6.5L-6.5,0L0,-6.5Z" style="opacity: 1; stroke-width: 0px; fill: rgb(170, 170, 170); fill-opacity: 1;"/></g><g class="text"/></g><g class="trace scatter trace530b49" style="stroke-miterlimit: 2; opacity: 1;"><g class="fills"/><g class="errorbars"/><g class="lines"><path class="js-line" d="M71.05,88.58L318.14,88.58" style="vector-effect: none; fill: none; stroke: rgb(170, 170, 170); stroke-opacity: 1; stroke-width: 1px; opacity: 1;"/></g><g class="points"><path class="point" transform="translate(71.05,88.58)" d="M3,0A3,3 0 1,1 0,-3A3,3 0 0,1 3,0Z" style="opacity: 1; stroke-width: 0px; fill: rgb(170, 170, 170); fill-opacity: 1;"/><path class="point" transform="translate(318.14,88.58)" d="M3,0A3,3 0 1,1 0,-3A3,3 0 0,1 3,0Z" style="opacity: 1; stroke-width: 0px; fill: rgb(170, 170, 170); fill-opacity: 1;"/></g><g class="text"/></g><g class="trace scatter trace94d0b5" style="stroke-miterlimit: 2; opacity: 1;"><g class="fills"/><g class="errorbars"/><g class="lines"/><g class="points"><path class="point" transform="translate(194.55,88.58)" d="M6.5,0L0,6.5L-6.5,0L0,-6.5Z" style="opacity: 1; stroke-width: 0px; fill: rgb(170, 170, 170); fill-opacity: 1;"/></g><g class="text"/></g><g class="trace scatter trace52ac9b" style="stroke-miterlimit: 2; opacity: 1;"><g class="fills"/><g class="errorbars"/><g class="lines"><path class="js-line" d="M38.84,52.74L286.52,52.74" style="vector-effect: none; fill: none; stroke: rgb(170, 170, 170); stroke-opacity: 1; stroke-width: 1px; opacity: 1;"/></g><g class="points"><path class="point" transform="translate(38.84,52.74)" d="M3,0A3,3 0 1,1 0,-3A3,3 0 0,1 3,0Z" style="opacity: 1; stroke-width: 0px; fill: rgb(170, 170, 170); fill-opacity: 1;"/><path class="point" transform="translate(286.52,52.74)" d="M3,0A3,3 0 1,1 0,-3A3,3 0 0,1 3,0Z" style="opacity: 1; stroke-width: 0px; fill: rgb(170, 170, 170); fill-opacity: 1;"/></g><g class="text"/></g><g class="trace scatter trace87c12d" style="stroke-miterlimit: 2; opacity: 1;"><g class="fills"/><g class="errorbars"/><g class="lines"/><g class="points"><path class="point" transform="translate(162.63,52.74)" d="M6.5,0L0,6.5L-6.5,0L0,-6.5Z" style="opacity: 1; stroke-width: 0px; fill: rgb(170, 170, 170); fill-opacity: 1;"/></g><g class="text"/></g><g class="trace scatter trace132766" style="stroke-miterlimit: 2; opacity: 1;"><g class="fills"/><g class="errorbars"/><g class="lines"><path class="js-line" d="M27.05,16.9L271.95,16.9" style="vector-effect: none; fill: none; stroke: rgb(170, 170, 170); stroke-opacity: 1; stroke-width: 1px; opacity: 1;"/></g><g class="points"><path class="point" transform="translate(27.05,16.9)" d="M3,0A3,3 0 1,1 0,-3A3,3 0 0,1 3,0Z" style="opacity: 1; stroke-width: 0px; fill: rgb(170, 170, 170); fill-opacity: 1;"/><path class="point" transform="translate(271.95,16.9)" d="M3,0A3,3 0 1,1 0,-3A3,3 0 0,1 3,0Z" style="opacity: 1; stroke-width: 0px; fill: rgb(170, 170, 170); fill-opacity: 1;"/></g><g class="text"/></g><g class="trace scatter trace8aebda" style="stroke-miterlimit: 2; opacity: 1;"><g class="fills"/><g class="errorbars"/><g class="lines"/><g class="points"><path class="point" transform="translate(149.55,16.9)" d="M6.5,0L0,6.5L-6.5,0L0,-6.5Z" style="opacity: 1; stroke-width: 0px; fill: rgb(170, 170, 170); fill-opacity: 1;"/></g><g class="text"/></g></g></g></g><path class="xlines-above crisp" d="M0,0" style="fill: none;"/><path class="ylines-above crisp" d="M0,0" style="fill: none;"/><g class="overlines-above"/><g class="xaxislayer-above"><g class="xtick"><text text-anchor="middle" x="0" y="287" transform="translate(276.35,0)" style="font-family: Inter, Arial; font-size: 13px; fill: rgb(26, 26, 46); fill-opacity: 1; white-space: pre; opacity: 1;">−0.1</text></g><g class="xtick"><text text-anchor="middle" x="0" y="287" style="font-family: Inter, Arial; font-size: 13px; fill: rgb(26, 26, 46); fill-opacity: 1; white-space: pre; opacity: 1;" transform="translate(375.46000000000004,0)">0</text></g><g class="xtick"><text text-anchor="middle" x="0" y="287" style="font-family: Inter, Arial; font-size: 13px; fill: rgb(26, 26, 46); fill-opacity: 1; white-space: pre; opacity: 1;" transform="translate(474.57,0)">0.1</text></g><g class="xtick"><text text-anchor="middle" x="0" y="287" style="font-family: Inter, Arial; font-size: 13px; fill: rgb(26, 26, 46); fill-opacity: 1; white-space: pre; opacity: 1;" transform="translate(573.6800000000001,0)">0.2</text></g></g><g class="yaxislayer-above"><g class="ytick"><text text-anchor="end" x="193" y="4.55" transform="translate(0,256.1)" style="font-family: Inter, Arial; font-size: 13px; fill: rgb(26, 26, 46); fill-opacity: 1; white-space: pre; opacity: 1;">Claude Sonnet  -  GPT-4o</text></g><g class="ytick"><text text-anchor="end" x="193" y="4.55" transform="translate(0,220.26)" style="font-family: Inter, Arial; font-size: 13px; fill: rgb(26, 26, 46); fill-opacity: 1; white-space: pre; opacity: 1;">Claude Sonnet  -  GPT-4o-mini</text></g><g class="ytick"><text text-anchor="end" x="193" y="4.55" transform="translate(0,184.42000000000002)" style="font-family: Inter, Arial; font-size: 13px; fill: rgb(26, 26, 46); fill-opacity: 1; white-space: pre; opacity: 1;">Claude Sonnet  -  Gemini Flash</text></g><g class="ytick"><text text-anchor="end" x="193" y="4.55" transform="translate(0,148.57999999999998)" style="font-family: Inter, Arial; font-size: 13px; fill: rgb(26, 26, 46); fill-opacity: 1; white-space: pre; opacity: 1;">GPT-4o  -  GPT-4o-mini</text></g><g class="ytick"><text text-anchor="end" x="193" y="4.55" transform="translate(0,112.74000000000001)" style="font-family: Inter, Arial; font-size: 13px; fill: rgb(26, 26, 46); fill-opacity: 1; white-space: pre; opacity: 1;">GPT-4o  -  Gemini Flash</text></g><g class="ytick"><text text-anchor="end" x="193" y="4.55" transform="translate(0,76.9)" style="font-family: Inter, Arial; font-size: 13px; fill: rgb(26, 26, 46); fill-opacity: 1; white-space: pre; opacity: 1;">GPT-4o-mini  -  Gemini Flash</text></g></g><g class="overaxes-above"/></g></g><g class="polarlayer"/><g class="smithlayer"/><g class="ternarylayer"/><g class="geolayer"/><g class="funnelarealayer"/><g class="pielayer"/><g class="iciclelayer"/><g class="treemaplayer"/><g class="sunburstlayer"/><g class="glimages"/><defs id="topdefs-3c5715"><g class="clips"/></defs><g class="layer-above"><g class="imagelayer"/><g class="shapelayer"><g class="shape-group" data-index="0" clip-path="url(#clip3c5715x)"><path data-index="0" fill-rule="evenodd" d="M375.46000000000004,273L375.46000000000004,60" style="opacity: 1; stroke: rgb(26, 26, 46); stroke-opacity: 1; fill: rgb(0, 0, 0); fill-opacity: 0; stroke-dasharray: 9px, 9px; stroke-width: 2px;"/></g></g></g><g class="infolayer"><g class="g-gtitle"><text class="gtitle" x="35" y="30" text-anchor="start" dy="0em" style="opacity: 1; font-family: Inter, Arial; font-size: 18px; fill: rgb(26, 26, 46); fill-opacity: 1; white-space: pre;">Debunker Adaptation Rate by Model — Tukey CIs</text></g><g class="g-xtitle"><text class="xtitle" x="427" y="315.7" text-anchor="middle" style="opacity: 1; font-family: Inter, Arial; font-size: 16px; fill: rgb(26, 26, 46); fill-opacity: 1; white-space: pre;">Difference (red=significant)</text></g><g class="g-ytitle"/></g></svg>