<svg class="main-svg" xmlns="http://www.w3.org/2000/svg" xmlns:xlink="http://www.w3.org/1999/xlink" width="700" height="550" style="" viewBox="0 0 700 550"><rect x="0" y="0" width="700" height="550" style="fill: rgb(255, 255, 255); fill-opacity: 1;"/><defs id="defs-7e8c4d"><g class="clips"/><g class="gradients"/><g class="patterns"/></defs><g class="bglayer"/><g class="layer-below"><g class="imagelayer"/><g class="shapelayer"/></g><g class="cartesianlayer"/><g class="polarlayer"/><g class="smithlayer"/><g class="ternarylayer"/><g class="geolayer"/><g class="funnelarealayer"/><g class="pielayer"/><g class="iciclelayer"/><g class="treemaplayer"/><g class="sunburstlayer"/><g class="glimages"/><g class="sankey" transform="translate(40,60)matrix(1 0 0 1 0 0)" style="box-sizing: content-box; position: absolute; left: 0px; shape-rendering: geometricprecision; pointer-events: none;"><g class="sankey-links" style="fill: none;"><path class="sankey-link" d="M20,19.361567635904272C310,19.361567635904272 310,4.361567635903755 600,4.361567635903755L600,26.605562579013743C310,26.605562579013743 310,41.605562579014254 20,41.605562579014254Z" style="stroke: rgb(68, 68, 68); stroke-opacity: 1; fill: rgb(46, 204, 113); fill-opacity: 0.354079; stroke-width: 0; opacity: 1;"/><path class="sankey-link" d="M20,41.60556257901426C310,41.60556257901426 310,69.51959544879884 600,69.51959544879884L600,85.65739570164334C310,85.65739570164334 310,57.74336283185876 20,57.74336283185876Z" style="stroke: rgb(68, 68, 68); stroke-opacity: 1; fill: rgb(46, 204, 113); fill-opacity: 0.311782; stroke-width: 0; opacity: 1;"/><path class="sankey-link" d="M20,59.92414664981072C310,59.92414664981072 310,347.33249051833127 600,347.33249051833127L600,353.4386852085968C310,353.4386852085968 310,66.0303413400762 20,66.0303413400762Z" style="stroke: rgb(68, 68, 68); stroke-opacity: 1; fill: rgb(46, 204, 113); fill-opacity: 0.242296; stroke-width: 0; opacity: 1;"/><path class="sankey-link" d="M20,57.74336283185876C310,57.74336283185876 310,176.5486725663717 600,176.5486725663717L600,178.72945638432367C310,178.72945638432367 310,59.92414664981072 20,59.92414664981072Z" style="stroke: rgb(68, 68, 68); stroke-opacity: 1; fill: rgb(46, 204, 113); fill-opacity: 0.215106; stroke-width: 0; opacity: 1;"/><path class="sankey-link" d="M20,148.63463969658693C310,148.63463969658693 310,219.46270543615702 600,219.46270543615702L600,233.85587863463996C310,233.85587863463996 310,163.02781289506987 20,163.02781289506987Z" style="stroke: rgb(68, 68, 68); stroke-opacity: 1; fill: rgb(46, 204, 113); fill-opacity: 0.255462; stroke-width: 0; opacity: 1;"/><path class="sankey-link" d="M20,166.51706700379302C310,166.51706700379302 310,307.0353982300886 600,307.0353982300886L600,318.3754740834388C310,318.3754740834388 310,177.8571428571432 20,177.8571428571432Z" style="stroke: rgb(68, 68, 68); stroke-opacity: 1; fill: rgb(46, 204, 113); fill-opacity: 0.243697; stroke-width: 0; opacity: 1;"/><path class="sankey-link" d="M20,81.03034134007616C310,81.03034134007616 310,26.605562579013743 600,26.605562579013743L600,47.104930467762166C310,47.104930467762166 310,101.52970922882459 20,101.52970922882459Z" style="stroke: rgb(68, 68, 68); stroke-opacity: 1; fill: rgb(46, 204, 113); fill-opacity: 0.278992; stroke-width: 0; opacity: 1;"/><path class="sankey-link" d="M20,101.52970922882459C310,101.52970922882459 310,85.65739570164334 600,85.65739570164334L600,122.29456384323626C310,122.29456384323626 310,138.16687737041752 20,138.16687737041752Z" style="stroke: rgb(68, 68, 68); stroke-opacity: 1; fill: rgb(46, 204, 113); fill-opacity: 0.341176; stroke-width: 0; opacity: 1;"/><path class="sankey-link" d="M20,163.02781289506987C310,163.02781289506987 310,283.3122629582808 600,283.3122629582808L600,286.80151706700394C310,286.80151706700394 310,166.517067003793 20,166.517067003793Z" style="stroke: rgb(68, 68, 68); stroke-opacity: 1; fill: rgb(46, 204, 113); fill-opacity: 0.213445; stroke-width: 0; opacity: 1;"/><path class="sankey-link" d="M20,177.8571428571432C310,177.8571428571432 310,353.4386852085968 600,353.4386852085968L600,369.1403286978509C310,369.1403286978509 310,193.55878634639728 20,193.55878634639728Z" style="stroke: rgb(68, 68, 68); stroke-opacity: 1; fill: rgb(46, 204, 113); fill-opacity: 0.260504; stroke-width: 0; opacity: 1;"/><path class="sankey-link" d="M20,138.16687737041752C310,138.16687737041752 310,178.72945638432364 600,178.72945638432364L600,189.19721871049305C310,189.19721871049305 310,148.63463969658693 20,148.63463969658693Z" style="stroke: rgb(68, 68, 68); stroke-opacity: 1; fill: rgb(46, 204, 113); fill-opacity: 0.240336; stroke-width: 0; opacity: 1;"/><path class="sankey-link" d="M20,316.0240202275604C310,316.0240202275604 310,254.79140328697878 600,254.79140328697878L600,266.13147914032896C310,266.13147914032896 310,327.3640960809106 20,327.3640960809106Z" style="stroke: rgb(68, 68, 68); stroke-opacity: 1; fill: rgb(46, 204, 113); fill-opacity: 0.283601; stroke-width: 0; opacity: 1;"/><path class="sankey-link" d="M20,327.3640960809106C310,327.3640960809106 310,318.3754740834388 600,318.3754740834388L600,327.97092288242743C310,327.97092288242743 310,336.9595448798992 20,336.9595448798992Z" style="stroke: rgb(68, 68, 68); stroke-opacity: 1; fill: rgb(46, 204, 113); fill-opacity: 0.27074; stroke-width: 0; opacity: 1;"/><path class="sankey-link" d="M20,293.34386852086004C310,293.34386852086004 310,49.28571428571412 600,49.28571428571412L600,54.519595448798825C310,54.519595448798825 310,298.5777496839447 20,298.5777496839447Z" style="stroke: rgb(68, 68, 68); stroke-opacity: 1; fill: rgb(46, 204, 113); fill-opacity: 0.238585; stroke-width: 0; opacity: 1;"/><path class="sankey-link" d="M20,298.5777496839447C310,298.5777496839447 310,150.64475347661173 600,150.64475347661173L600,159.36788874841957C310,159.36788874841957 310,307.3008849557525 20,307.3008849557525Z" style="stroke: rgb(68, 68, 68); stroke-opacity: 1; fill: rgb(46, 204, 113); fill-opacity: 0.264309; stroke-width: 0; opacity: 1;"/><path class="sankey-link" d="M20,336.9595448798992C310,336.9595448798992 310,378.29962073324907 600,378.29962073324907L600,394.43742098609357C310,394.43742098609357 310,353.0973451327437 20,353.0973451327437Z" style="stroke: rgb(68, 68, 68); stroke-opacity: 1; fill: rgb(46, 204, 113); fill-opacity: 0.318971; stroke-width: 0; opacity: 1;"/><path class="sankey-link" d="M20,307.30088495575257C310,307.30088495575257 310,195.73957016434892 600,195.73957016434892L600,204.46270543615677C310,204.46270543615677 310,316.02402022756036 20,316.02402022756036Z" style="stroke: rgb(68, 68, 68); stroke-opacity: 1; fill: rgb(46, 204, 113); fill-opacity: 0.264309; stroke-width: 0; opacity: 1;"/><path class="sankey-link" d="M20,373.7673830594187C310,373.7673830594187 310,446.0745891276865 600,446.0745891276865L600,450C310,450 310,377.6927939317322 20,377.6927939317322Z" style="stroke: rgb(68, 68, 68); stroke-opacity: 1; fill: rgb(46, 204, 113); fill-opacity: 0.301124; stroke-width: 0; opacity: 1;"/><path class="sankey-link" d="M20,368.0973451327436C310,368.0973451327436 310,159.36788874841957 600,159.36788874841957L600,161.54867256637155C310,161.54867256637155 310,370.27812895069553 20,370.27812895069553Z" style="stroke: rgb(68, 68, 68); stroke-opacity: 1; fill: rgb(46, 204, 113); fill-opacity: 0.25618; stroke-width: 0; opacity: 1;"/><path class="sankey-link" d="M20,370.2781289506956C310,370.2781289506956 310,394.43742098609357 600,394.43742098609357L600,397.9266750948167C310,397.9266750948167 310,373.7673830594187 20,373.7673830594187Z" style="stroke: rgb(68, 68, 68); stroke-opacity: 1; fill: rgb(46, 204, 113); fill-opacity: 0.289888; stroke-width: 0; opacity: 1;"/><path class="sankey-link" d="M20,392.69279393173224C310,392.69279393173224 310,266.13147914032896 600,266.13147914032896L600,268.3122629582809C310,268.3122629582809 310,394.87357774968416 20,394.87357774968416Z" style="stroke: rgb(68, 68, 68); stroke-opacity: 1; fill: rgb(46, 204, 113); fill-opacity: 0.224155; stroke-width: 0; opacity: 1;"/><path class="sankey-link" d="M20,394.8735777496842C310,394.8735777496842 310,289.4184576485463 600,289.4184576485463L600,292.0353982300887C310,292.0353982300887 310,397.4905183312266 20,397.4905183312266Z" style="stroke: rgb(68, 68, 68); stroke-opacity: 1; fill: rgb(46, 204, 113); fill-opacity: 0.228986; stroke-width: 0; opacity: 1;"/><path class="sankey-link" d="M20,397.49051833122655C310,397.49051833122655 310,397.9266750948167 600,397.9266750948167L600,411.88369152970927C310,411.88369152970927 310,411.44753476611913 20,411.44753476611913Z" style="stroke: rgb(68, 68, 68); stroke-opacity: 1; fill: rgb(46, 204, 113); fill-opacity: 0.354589; stroke-width: 0; opacity: 1;"/><path class="sankey-link" d="M20,245.63211125158062C310,245.63211125158062 310,233.85587863463996 600,233.85587863463996L600,254.79140328697878C310,254.79140328697878 310,266.56763590391944 20,266.56763590391944Z" style="stroke: rgb(68, 68, 68); stroke-opacity: 1; fill: rgb(46, 204, 113); fill-opacity: 0.353355; stroke-width: 0; opacity: 1;"/><path class="sankey-link" d="M20,208.55878634639737C310,208.55878634639737 310,47.10493046776216 600,47.10493046776216L600,49.28571428571412C310,49.28571428571412 310,210.73957016434935 20,210.73957016434935Z" style="stroke: rgb(68, 68, 68); stroke-opacity: 1; fill: rgb(46, 204, 113); fill-opacity: 0.215974; stroke-width: 0; opacity: 1;"/><path class="sankey-link" d="M20,210.73957016434932C310,210.73957016434932 310,122.29456384323626 600,122.29456384323626L600,150.64475347661173C310,150.64475347661173 310,239.08975979772478 20,239.08975979772478Z" style="stroke: rgb(68, 68, 68); stroke-opacity: 1; fill: rgb(46, 204, 113); fill-opacity: 0.407668; stroke-width: 0; opacity: 1;"/><path class="sankey-link" d="M20,266.5676359039195C310,266.5676359039195 310,286.80151706700394 600,286.80151706700394L600,289.41845764854634C310,289.41845764854634 310,269.1845764854619 20,269.1845764854619Z" style="stroke: rgb(68, 68, 68); stroke-opacity: 1; fill: rgb(46, 204, 113); fill-opacity: 0.219169; stroke-width: 0; opacity: 1;"/><path class="sankey-link" d="M20,269.18457648546183C310,269.18457648546183 310,369.14032869785086 600,369.14032869785086L600,378.2996207332491C310,378.2996207332491 310,278.3438685208601 20,278.3438685208601Z" style="stroke: rgb(68, 68, 68); stroke-opacity: 1; fill: rgb(46, 204, 113); fill-opacity: 0.267093; stroke-width: 0; opacity: 1;"/><path class="sankey-link" d="M20,239.08975979772478C310,239.08975979772478 310,189.19721871049305 600,189.19721871049305L600,195.73957016434892C310,195.73957016434892 310,245.63211125158065 20,245.63211125158065Z" style="stroke: rgb(68, 68, 68); stroke-opacity: 1; fill: rgb(46, 204, 113); fill-opacity: 0.247923; stroke-width: 0; opacity: 1;"/><path class="sankey-link" d="M20,426.44753476611913C310,426.44753476611913 310,327.97092288242743 600,327.97092288242743L600,332.3324905183314C310,332.3324905183314 310,430.8091024020231 20,430.8091024020231Z" style="stroke: rgb(68, 68, 68); stroke-opacity: 1; fill: rgb(46, 204, 113); fill-opacity: 0.28; stroke-width: 0; opacity: 1;"/><path class="sankey-link" d="M20,430.80910240202303C310,430.80910240202303 310,411.8836915297092 600,411.8836915297092L600,431.07458912768647C310,431.07458912768647 310,450.0000000000003 20,450.0000000000003Z" style="stroke: rgb(68, 68, 68); stroke-opacity: 1; fill: rgb(46, 204, 113); fill-opacity: 0.552; stroke-width: 0; opacity: 1;"/><path class="sankey-link" d="M20,3.8191672047105385e-13C310,3.8191672047105385e-13 310,-1.6342482922482304e-13 600,-1.6342482922482304e-13L600,4.361567635903755C310,4.361567635903755 310,4.361567635904301 20,4.361567635904301Z" style="stroke: rgb(68, 68, 68); stroke-opacity: 1; fill: rgb(46, 204, 113); fill-opacity: 0.366667; stroke-width: 0; opacity: 1;"/></g><g class="sankey-node-set" style="cursor: move;"><g class="sankey-node" transform="translate(0.000,19.362)" style="opacity: 1;"><rect class="node-rect" width="20" height="46.66877370417189" style="stroke-width: 0.5; stroke: rgb(224, 224, 224); stroke-opacity: 1; fill: rgb(46, 204, 113); fill-opacity: 1;"/><text class="node-label" data-notex="1" x="0" y="0" text-anchor="start" transform="translate(23.25,27.884386852085946)" style="cursor: default; font-family: Inter, Arial; font-size: 13px; fill: rgb(26, 26, 46); fill-opacity: 1; text-shadow: rgb(255, 255, 255) 1px 1px 1px, rgb(255, 255, 255) -1px -1px 1px, rgb(255, 255, 255) 1px -1px 1px, rgb(255, 255, 255) -1px 1px 1px; white-space: pre;">Debunker: Contextual Analysis</text></g><g class="sankey-node" transform="translate(0.000,81.030)" style="opacity: 1;"><rect class="node-rect" width="20" height="112.5284450063212" style="stroke-width: 0.5; stroke: rgb(224, 224, 224); stroke-opacity: 1; fill: rgb(46, 204, 113); fill-opacity: 1;"/><text class="node-label" data-notex="1" x="0" y="0" text-anchor="start" transform="translate(23.25,60.8142225031606)" style="cursor: default; font-family: Inter, Arial; font-size: 13px; fill: rgb(26, 26, 46); fill-opacity: 1; text-shadow: rgb(255, 255, 255) 1px 1px 1px, rgb(255, 255, 255) -1px -1px 1px, rgb(255, 255, 255) 1px -1px 1px, rgb(255, 255, 255) -1px 1px 1px; white-space: pre;">Debunker: Evidence Citation</text></g><g class="sankey-node" transform="translate(0.000,293.344)" style="opacity: 1;"><rect class="node-rect" width="20" height="59.75347661188357" style="stroke-width: 0.5; stroke: rgb(224, 224, 224); stroke-opacity: 1; fill: rgb(46, 204, 113); fill-opacity: 1;"/><text class="node-label" data-notex="1" x="0" y="0" text-anchor="start" transform="translate(23.25,34.42673830594178)" style="cursor: default; font-family: Inter, Arial; font-size: 13px; fill: rgb(26, 26, 46); fill-opacity: 1; text-shadow: rgb(255, 255, 255) 1px 1px 1px, rgb(255, 255, 255) -1px -1px 1px, rgb(255, 255, 255) 1px -1px 1px, rgb(255, 255, 255) -1px 1px 1px; white-space: pre;">Debunker: Logical Refutation</text></g><g class="sankey-node" transform="translate(0.000,368.097)" style="opacity: 1;"><rect class="node-rect" width="20" height="9.595448798988627" style="stroke-width: 0.5; stroke: rgb(224, 224, 224); stroke-opacity: 1; fill: rgb(46, 204, 113); fill-opacity: 1;"/><text class="node-label" data-notex="1" x="0" y="0" text-anchor="start" transform="translate(23.25,9.347724399494314)" style="cursor: default; font-family: Inter, Arial; font-size: 13px; fill: rgb(26, 26, 46); fill-opacity: 1; text-shadow: rgb(255, 255, 255) 1px 1px 1px, rgb(255, 255, 255) -1px -1px 1px, rgb(255, 255, 255) 1px -1px 1px, rgb(255, 255, 255) -1px 1px 1px; white-space: pre;">Debunker: Mechanism Explanation</text></g><g class="sankey-node" transform="translate(0.000,392.693)" style="opacity: 1;"><rect class="node-rect" width="20" height="18.754740834386894" style="stroke-width: 0.5; stroke: rgb(224, 224, 224); stroke-opacity: 1; fill: rgb(46, 204, 113); fill-opacity: 1;"/><text class="node-label" data-notex="1" x="0" y="0" text-anchor="start" transform="translate(23.25,13.927370417193448)" style="cursor: default; font-family: Inter, Arial; font-size: 13px; fill: rgb(26, 26, 46); fill-opacity: 1; text-shadow: rgb(255, 255, 255) 1px 1px 1px, rgb(255, 255, 255) -1px -1px 1px, rgb(255, 255, 255) 1px -1px 1px, rgb(255, 255, 255) -1px 1px 1px; white-space: pre;">Debunker: Public Safety</text></g><g class="sankey-node" transform="translate(0.000,208.559)" style="opacity: 1;"><rect class="node-rect" width="20" height="69.78508217446267" style="stroke-width: 0.5; stroke: rgb(224, 224, 224); stroke-opacity: 1; fill: rgb(46, 204, 113); fill-opacity: 1;"/><text class="node-label" data-notex="1" x="0" y="0" text-anchor="start" transform="translate(23.25,39.442541087231334)" style="cursor: default; font-family: Inter, Arial; font-size: 13px; fill: rgb(26, 26, 46); fill-opacity: 1; text-shadow: rgb(255, 255, 255) 1px 1px 1px, rgb(255, 255, 255) -1px -1px 1px, rgb(255, 255, 255) 1px -1px 1px, rgb(255, 255, 255) -1px 1px 1px; white-space: pre;">Debunker: Scientific Consensus</text></g><g class="sankey-node" transform="translate(0.000,426.448)" style="opacity: 1;"><rect class="node-rect" width="20" height="23.552465233880866" style="stroke-width: 0.5; stroke: rgb(224, 224, 224); stroke-opacity: 1; fill: rgb(46, 204, 113); fill-opacity: 1;"/><text class="node-label" data-notex="1" x="0" y="0" text-anchor="start" transform="translate(23.25,16.326232616940434)" style="cursor: default; font-family: Inter, Arial; font-size: 13px; fill: rgb(26, 26, 46); fill-opacity: 1; text-shadow: rgb(255, 255, 255) 1px 1px 1px, rgb(255, 255, 255) -1px -1px 1px, rgb(255, 255, 255) 1px -1px 1px, rgb(255, 255, 255) -1px 1px 1px; white-space: pre;">Debunker: Technical Correction</text></g><g class="sankey-node" transform="translate(0.000,0.000)" style="opacity: 1;"><rect class="node-rect" width="20" height="4.36156763590389" style="stroke-width: 0.5; stroke: rgb(224, 224, 224); stroke-opacity: 1; fill: rgb(46, 204, 113); fill-opacity: 1;"/><text class="node-label" data-notex="1" x="0" y="0" text-anchor="start" transform="translate(23.25,6.730783817951945)" style="cursor: default; font-family: Inter, Arial; font-size: 13px; fill: rgb(26, 26, 46); fill-opacity: 1; text-shadow: rgb(255, 255, 255) 1px 1px 1px, rgb(255, 255, 255) -1px -1px 1px, rgb(255, 255, 255) 1px -1px 1px, rgb(255, 255, 255) -1px 1px 1px; white-space: pre;">Debunker: Verification</text></g><g class="sankey-node" transform="translate(600.000,219.463)" style="opacity: 1;"><rect class="node-rect" width="20" height="48.8495575221238" style="stroke-width: 0.5; stroke: rgb(224, 224, 224); stroke-opacity: 1; fill: rgb(201, 54, 62); fill-opacity: 1;"/><text class="node-label" data-notex="1" x="0" y="0" text-anchor="end" transform="translate(-3.25,28.974778761061902)" style="cursor: default; font-family: Inter, Arial; font-size: 13px; fill: rgb(26, 26, 46); fill-opacity: 1; text-shadow: rgb(255, 255, 255) 1px 1px 1px, rgb(255, 255, 255) -1px -1px 1px, rgb(255, 255, 255) 1px -1px 1px, rgb(255, 255, 255) -1px 1px 1px; white-space: pre;">Spreader next: Anecdotal Evidence</text></g><g class="sankey-node" transform="translate(600.000,446.075)" style="opacity: 1;"><rect class="node-rect" width="20" height="3.9254108723134777" style="stroke-width: 0.5; stroke: rgb(224, 224, 224); stroke-opacity: 1; fill: rgb(201, 54, 62); fill-opacity: 1;"/><text class="node-label" data-notex="1" x="0" y="0" text-anchor="end" transform="translate(-3.25,6.512705436156739)" style="cursor: default; font-family: Inter, Arial; font-size: 13px; fill: rgb(26, 26, 46); fill-opacity: 1; text-shadow: rgb(255, 255, 255) 1px 1px 1px, rgb(255, 255, 255) -1px -1px 1px, rgb(255, 255, 255) 1px -1px 1px, rgb(255, 255, 255) -1px 1px 1px; white-space: pre;">Spreader next: Appeal to (Dis)trust</text></g><g class="sankey-node" transform="translate(600.000,307.035)" style="opacity: 1;"><rect class="node-rect" width="20" height="25.297092288242652" style="stroke-width: 0.5; stroke: rgb(224, 224, 224); stroke-opacity: 1; fill: rgb(201, 54, 62); fill-opacity: 1;"/><text class="node-label" data-notex="1" x="0" y="0" text-anchor="end" transform="translate(-3.25,17.198546144121327)" style="cursor: default; font-family: Inter, Arial; font-size: 13px; fill: rgb(26, 26, 46); fill-opacity: 1; text-shadow: rgb(255, 255, 255) 1px 1px 1px, rgb(255, 255, 255) -1px -1px 1px, rgb(255, 255, 255) 1px -1px 1px, rgb(255, 255, 255) -1px 1px 1px; white-space: pre;">Spreader next: Appeal to Emotion</text></g><g class="sankey-node" transform="translate(600.000,-0.000)" style="opacity: 1;"><rect class="node-rect" width="20" height="54.519595448799" style="stroke-width: 0.5; stroke: rgb(224, 224, 224); stroke-opacity: 1; fill: rgb(201, 54, 62); fill-opacity: 1;"/><text class="node-label" data-notex="1" x="0" y="0" text-anchor="end" transform="translate(-3.25,31.809797724399502)" style="cursor: default; font-family: Inter, Arial; font-size: 13px; fill: rgb(26, 26, 46); fill-opacity: 1; text-shadow: rgb(255, 255, 255) 1px 1px 1px, rgb(255, 255, 255) -1px -1px 1px, rgb(255, 255, 255) 1px -1px 1px, rgb(255, 255, 255) -1px 1px 1px; white-space: pre;">Spreader next: Conspiracy Theory</text></g><g class="sankey-node" transform="translate(600.000,69.520)" style="opacity: 1;"><rect class="node-rect" width="20" height="92.02907711757285" style="stroke-width: 0.5; stroke: rgb(224, 224, 224); stroke-opacity: 1; fill: rgb(201, 54, 62); fill-opacity: 1;"/><text class="node-label" data-notex="1" x="0" y="0" text-anchor="end" transform="translate(-3.25,50.564538558786424)" style="cursor: default; font-family: Inter, Arial; font-size: 13px; fill: rgb(26, 26, 46); fill-opacity: 1; text-shadow: rgb(255, 255, 255) 1px 1px 1px, rgb(255, 255, 255) -1px -1px 1px, rgb(255, 255, 255) 1px -1px 1px, rgb(255, 255, 255) -1px 1px 1px; white-space: pre;">Spreader next: Historical Revisionism</text></g><g class="sankey-node" transform="translate(600.000,283.312)" style="opacity: 1;"><rect class="node-rect" width="20" height="8.723135271807791" style="stroke-width: 0.5; stroke: rgb(224, 224, 224); stroke-opacity: 1; fill: rgb(201, 54, 62); fill-opacity: 1;"/><text class="node-label" data-notex="1" x="0" y="0" text-anchor="end" transform="translate(-3.25,8.911567635903896)" style="cursor: default; font-family: Inter, Arial; font-size: 13px; fill: rgb(26, 26, 46); fill-opacity: 1; text-shadow: rgb(255, 255, 255) 1px 1px 1px, rgb(255, 255, 255) -1px -1px 1px, rgb(255, 255, 255) 1px -1px 1px, rgb(255, 255, 255) -1px 1px 1px; white-space: pre;">Spreader next: Impossible Expectations</text></g><g class="sankey-node" transform="translate(600.000,347.332)" style="opacity: 1;"><rect class="node-rect" width="20" height="83.74209860935525" style="stroke-width: 0.5; stroke: rgb(224, 224, 224); stroke-opacity: 1; fill: rgb(201, 54, 62); fill-opacity: 1;"/><text class="node-label" data-notex="1" x="0" y="0" text-anchor="end" transform="translate(-3.25,46.421049304677624)" style="cursor: default; font-family: Inter, Arial; font-size: 13px; fill: rgb(26, 26, 46); fill-opacity: 1; text-shadow: rgb(255, 255, 255) 1px 1px 1px, rgb(255, 255, 255) -1px -1px 1px, rgb(255, 255, 255) 1px -1px 1px, rgb(255, 255, 255) -1px 1px 1px; white-space: pre;">Spreader next: Pseudo-Scientific Claim</text></g><g class="sankey-node" transform="translate(600.000,176.549)" style="opacity: 1;"><rect class="node-rect" width="20" height="27.91403286978533" style="stroke-width: 0.5; stroke: rgb(224, 224, 224); stroke-opacity: 1; fill: rgb(201, 54, 62); fill-opacity: 1;"/><text class="node-label" data-notex="1" x="0" y="0" text-anchor="end" transform="translate(-3.25,18.507016434892666)" style="cursor: default; font-family: Inter, Arial; font-size: 13px; fill: rgb(26, 26, 46); fill-opacity: 1; text-shadow: rgb(255, 255, 255) 1px 1px 1px, rgb(255, 255, 255) -1px -1px 1px, rgb(255, 255, 255) 1px -1px 1px, rgb(255, 255, 255) -1px 1px 1px; white-space: pre;">Spreader next: Source Weaponization</text></g></g></g><defs id="topdefs-7e8c4d"><g class="clips"/></defs><g class="layer-above"><g class="imagelayer"/><g class="shapelayer"/></g><g class="infolayer"><g class="g-gtitle"><text class="gtitle" x="35" y="30" text-anchor="start" dy="0em" style="opacity: 1; font-family: Inter, Arial; font-size: 18px; fill: rgb(26, 26, 46); fill-opacity: 1; white-space: pre;">When Debunker Uses X, Spreader Responds Next Turn With Y</text></g><g class="first-render"/></g></svg>