<svg class="main-svg" xmlns="http://www.w3.org/2000/svg" xmlns:xlink="http://www.w3.org/1999/xlink" width="700" height="550" style="" viewBox="0 0 700 550"><rect x="0" y="0" width="700" height="550" style="fill: rgb(255, 255, 255); fill-opacity: 1;"/><defs id="defs-609302"><g class="clips"/><g class="gradients"><linearGradient x1="0" y1="1" x2="0" y2="0" gradientUnits="objectBoundingBox" id="g609302-cbcoloraxis"><stop offset="0%" stop-color="rgb(201, 54, 62)" stop-opacity="0.3"/><stop offset="100%" stop-color="rgb(201, 54, 62)" stop-opacity="0.9"/></linearGradient></g><g class="patterns"/></defs><g class="bglayer"/><g class="layer-below"><g class="imagelayer"/><g class="shapelayer"/></g><g class="cartesianlayer"/><g class="polarlayer"/><g class="smithlayer"/><g class="ternarylayer"/><g class="geolayer"/><g class="funnelarealayer"/><g class="pielayer"/><g class="iciclelayer"/><g class="treemaplayer"/><g class="sunburstlayer"/><g class="glimages"/><g class="parcatslayer" style="pointer-events: none;"><g class="trace parcats" transform="translate(40,60)"><g class="paths"><path class="path" stroke-opacity="1" fill="rgba(201, 54, 62, 0.3)" fill-opacity="0.6" stroke="lightgray" stroke-width="0.2" d="M 40,52.53846153846154l16,0 C56,52.53846153846154 516,307.2307692307693 516,307.2307692307693l16,0 l0,14.846153846153848 l -16,0 C516,322.07692307692315 56,67.38461538461539 56,67.38461538461539l-16,0 Z"/><path class="path" stroke-opacity="1" fill="rgba(201, 54, 62, 0.3)" fill-opacity="0.6" stroke="lightgray" stroke-width="0.2" d="M 40,300.3846153846154l16,0 C56,300.3846153846154 516,187.30769230769232 516,187.30769230769232l16,0 l0,14.846153846153848 l -16,0 C516,202.15384615384616 56,315.2307692307693 56,315.2307692307693l-16,0 Z"/><path class="path" stroke-opacity="1" fill="rgba(201, 54, 62, 0.32)" fill-opacity="0.6" stroke="lightgray" stroke-width="0.2" d="M 40,105.07692307692308l16,0 C56,105.07692307692308 516,412.3076923076924 516,412.3076923076924l16,0 l0,14.846153846153848 l -16,0 C516,427.15384615384625 56,119.92307692307693 56,119.92307692307693l-16,0 Z"/><path class="path" stroke-opacity="1" fill="rgba(201, 54, 62, 0.32)" fill-opacity="0.6" stroke="lightgray" stroke-width="0.2" d="M 40,352.92307692307696l16,0 C56,352.92307692307696 516,359.76923076923083 516,359.76923076923083l16,0 l0,14.846153846153848 l -16,0 C516,374.6153846153847 56,367.76923076923083 56,367.76923076923083l-16,0 Z"/><path class="path" stroke-opacity="1" fill="rgba(201, 54, 62, 0.33)" fill-opacity="0.6" stroke="lightgray" stroke-width="0.2" d="M 40,315.2307692307693l16,0 C56,315.2307692307693 516,8 516,8l16,0 l0,14.846153846153848 l -16,0 C516,22.846153846153847 56,330.07692307692315 56,330.07692307692315l-16,0 Z"/><path class="path" stroke-opacity="1" fill="rgba(201, 54, 62, 0.35)" fill-opacity="0.6" stroke="lightgray" stroke-width="0.2" d="M 40,157.6153846153846l16,0 C56,157.6153846153846 516,322.07692307692315 516,322.07692307692315l16,0 l0,14.846153846153848 l -16,0 C516,336.923076923077 56,172.46153846153845 56,172.46153846153845l-16,0 Z"/><path class="path" stroke-opacity="1" fill="rgba(201, 54, 62, 0.35)" fill-opacity="0.6" stroke="lightgray" stroke-width="0.2" d="M 40,195.30769230769232l16,0 C56,195.30769230769232 516,336.923076923077 516,336.923076923077l16,0 l0,14.846153846153848 l -16,0 C516,351.7692307692309 56,210.15384615384616 56,210.15384615384616l-16,0 Z"/><path class="path" stroke-opacity="1" fill="rgba(201, 54, 62, 0.36)" fill-opacity="0.6" stroke="lightgray" stroke-width="0.2" d="M 40,210.15384615384616l16,0 C56,210.15384615384616 516,202.15384615384616 516,202.15384615384616l16,0 l0,14.846153846153848 l -16,0 C516,217 56,225 56,225l-16,0 Z"/><path class="path" stroke-opacity="1" fill="rgba(201, 54, 62, 0.36)" fill-opacity="0.6" stroke="lightgray" stroke-width="0.2" d="M 40,367.76923076923083l16,0 C56,367.76923076923083 516,427.15384615384625 516,427.15384615384625l16,0 l0,14.846153846153848 l -16,0 C516,442.0000000000001 56,382.6153846153847 56,382.6153846153847l-16,0 Z"/><path class="path" stroke-opacity="1" fill="rgba(201, 54, 62, 0.38)" fill-opacity="0.6" stroke="lightgray" stroke-width="0.2" d="M 40,405.4615384615385l16,0 C56,405.4615384615385 516,374.6153846153847 516,374.6153846153847l16,0 l0,14.846153846153848 l -16,0 C516,389.46153846153857 56,420.3076923076924 56,420.3076923076924l-16,0 Z"/><path class="path" stroke-opacity="1" fill="rgba(201, 54, 62, 0.38)" fill-opacity="0.6" stroke="lightgray" stroke-width="0.2" d="M 40,67.38461538461539l16,0 C56,67.38461538461539 516,284.3846153846154 516,284.3846153846154l16,0 l0,14.846153846153848 l -16,0 C516,299.2307692307693 56,82.23076923076924 56,82.23076923076924l-16,0 Z"/><path class="path" stroke-opacity="1" fill="rgba(201, 54, 62, 0.39)" fill-opacity="0.6" stroke="lightgray" stroke-width="0.2" d="M 40,0l16,0 C56,0 516,217 516,217l16,0 l0,14.846153846153848 l -16,0 C516,231.84615384615384 56,14.846153846153848 56,14.846153846153848l-16,0 Z"/><path class="path" stroke-opacity="1" fill="rgba(201, 54, 62, 0.4)" fill-opacity="0.6" stroke="lightgray" stroke-width="0.2" d="M 40,247.84615384615387l16,0 C56,247.84615384615387 516,22.846153846153847 516,22.846153846153847l16,0 l0,14.846153846153848 l -16,0 C516,37.69230769230769 56,262.69230769230774 56,262.69230769230774l-16,0 Z"/><path class="path" stroke-opacity="1" fill="rgba(201, 54, 62, 0.41)" fill-opacity="0.6" stroke="lightgray" stroke-width="0.2" d="M 40,420.3076923076924l16,0 C56,420.3076923076924 516,37.69230769230769 516,37.69230769230769l16,0 l0,14.846153846153848 l -16,0 C516,52.53846153846154 56,435.15384615384625 56,435.15384615384625l-16,0 Z"/><path class="path" stroke-opacity="1" fill="rgba(201, 54, 62, 0.45)" fill-opacity="0.6" stroke="lightgray" stroke-width="0.2" d="M 40,262.69230769230774l16,0 C56,262.69230769230774 516,231.84615384615384 516,231.84615384615384l16,0 l0,14.846153846153848 l -16,0 C516,246.69230769230768 56,277.5384615384616 56,277.5384615384616l-16,0 Z"/><path class="path" stroke-opacity="1" fill="rgba(201, 54, 62, 0.46)" fill-opacity="0.6" stroke="lightgray" stroke-width="0.2" d="M 40,435.15384615384625l16,0 C56,435.15384615384625 516,246.69230769230768 516,246.69230769230768l16,0 l0,14.846153846153848 l -16,0 C516,261.53846153846155 56,450.0000000000001 56,450.0000000000001l-16,0 Z"/><path class="path" stroke-opacity="1" fill="rgba(201, 54, 62, 0.48)" fill-opacity="0.6" stroke="lightgray" stroke-width="0.2" d="M 40,119.92307692307693l16,0 C56,119.92307692307693 516,389.46153846153857 516,389.46153846153857l16,0 l0,14.846153846153848 l -16,0 C516,404.30769230769243 56,134.76923076923077 56,134.76923076923077l-16,0 Z"/><path class="path" stroke-opacity="1" fill="rgba(201, 54, 62, 0.48)" fill-opacity="0.6" stroke="lightgray" stroke-width="0.2" d="M 40,14.846153846153848l16,0 C56,14.846153846153848 516,52.53846153846154 516,52.53846153846154l16,0 l0,14.846153846153848 l -16,0 C516,67.38461538461539 56,29.692307692307697 56,29.692307692307697l-16,0 Z"/><path class="path" stroke-opacity="1" fill="rgba(201, 54, 62, 0.48)" fill-opacity="0.6" stroke="lightgray" stroke-width="0.2" d="M 40,29.692307692307697l16,0 C56,29.692307692307697 516,75.38461538461539 516,75.38461538461539l16,0 l0,14.846153846153848 l -16,0 C516,90.23076923076924 56,44.53846153846155 56,44.53846153846155l-16,0 Z"/><path class="path" stroke-opacity="1" fill="rgba(201, 54, 62, 0.48)" fill-opacity="0.6" stroke="lightgray" stroke-width="0.2" d="M 40,277.5384615384616l16,0 C56,277.5384615384616 516,90.23076923076924 516,90.23076923076924l16,0 l0,14.846153846153848 l -16,0 C516,105.0769230769231 56,292.3846153846155 56,292.3846153846155l-16,0 Z"/><path class="path" stroke-opacity="1" fill="rgba(201, 54, 62, 0.52)" fill-opacity="0.6" stroke="lightgray" stroke-width="0.2" d="M 40,382.6153846153847l16,0 C56,382.6153846153847 516,105.0769230769231 516,105.0769230769231l16,0 l0,14.846153846153848 l -16,0 C516,119.92307692307695 56,397.46153846153857 56,397.46153846153857l-16,0 Z"/><path class="path" stroke-opacity="1" fill="rgba(201, 54, 62, 0.64)" fill-opacity="0.6" stroke="lightgray" stroke-width="0.2" d="M 40,330.07692307692315l16,0 C56,330.07692307692315 516,119.92307692307695 516,119.92307692307695l16,0 l0,14.846153846153848 l -16,0 C516,134.7692307692308 56,344.923076923077 56,344.923076923077l-16,0 Z"/><path class="path" stroke-opacity="1" fill="rgba(201, 54, 62, 0.65)" fill-opacity="0.6" stroke="lightgray" stroke-width="0.2" d="M 40,134.76923076923077l16,0 C56,134.76923076923077 516,261.53846153846155 516,261.53846153846155l16,0 l0,14.846153846153848 l -16,0 C516,276.3846153846154 56,149.6153846153846 56,149.6153846153846l-16,0 Z"/><path class="path" stroke-opacity="1" fill="rgba(201, 54, 62, 0.7)" fill-opacity="0.6" stroke="lightgray" stroke-width="0.2" d="M 40,82.23076923076924l16,0 C56,82.23076923076924 516,134.7692307692308 516,134.7692307692308l16,0 l0,14.846153846153848 l -16,0 C516,149.61538461538464 56,97.0769230769231 56,97.0769230769231l-16,0 Z"/><path class="path" stroke-opacity="1" fill="rgba(201, 54, 62, 0.71)" fill-opacity="0.6" stroke="lightgray" stroke-width="0.2" d="M 40,225l16,0 C56,225 516,149.61538461538464 516,149.61538461538464l16,0 l0,14.846153846153848 l -16,0 C516,164.46153846153848 56,239.84615384615384 56,239.84615384615384l-16,0 Z"/><path class="path" stroke-opacity="1" fill="rgba(201, 54, 62, 0.9)" fill-opacity="0.6" stroke="lightgray" stroke-width="0.2" d="M 40,172.46153846153845l16,0 C56,172.46153846153845 516,164.46153846153848 516,164.46153846153848l16,0 l0,14.846153846153848 l -16,0 C516,179.30769230769232 56,187.3076923076923 56,187.3076923076923l-16,0 Z"/></g><g class="dimensions"><g class="dimension" transform="translate(40,0)"><g class="category" transform=""><rect class="catrect" pointer-events="none" fill="none" width="16" height="44.53846153846154" stroke="black" stroke-width="1" stroke-opacity="1"/><rect class="bandrect" stroke-opacity="1" fill="rgba(201, 54, 62, 0.39)" fill-opacity="1" width="16" height="14.846153846153848" y="0" cursor="ns-resize" stroke="black" stroke-width="0.2"/><rect class="bandrect" stroke-opacity="1" fill="rgba(201, 54, 62, 0.48)" fill-opacity="1" width="16" height="29.692307692307697" y="14.846153846153848" cursor="ns-resize" stroke="black" stroke-width="0.2"/><text class="catlabel" pointer-events="none" text-anchor="end" alignment-baseline="middle" x="-5" y="22.26923076923077" style="fill: rgb(26, 26, 46); font-family: Inter, Arial; font-size: 11px; fill-opacity: 1; text-shadow: rgb(255, 255, 255) 1px 1px 1px, rgb(255, 255, 255) -1px -1px 1px, rgb(255, 255, 255) 1px -1px 1px, rgb(255, 255, 255) -1px 1px 1px; white-space: pre;">Anecdotal Evidence</text><text class="dimlabel" text-anchor="middle" alignment-baseline="baseline" cursor="ew-resize" x="8" y="-5" style="font-family: Inter, Arial; font-size: 13px; fill: rgb(26, 26, 46); fill-opacity: 1;">Spreader Tactic</text></g><g class="category" transform="translate(0,52.53846153846154)"><rect class="catrect" pointer-events="none" fill="none" width="16" height="44.53846153846154" stroke="black" stroke-width="1" stroke-opacity="1"/><rect class="bandrect" stroke-opacity="1" fill="rgba(201, 54, 62, 0.3)" fill-opacity="1" width="16" height="14.846153846153848" y="0" cursor="ns-resize" stroke="black" stroke-width="0.2"/><rect class="bandrect" stroke-opacity="1" fill="rgba(201, 54, 62, 0.38)" fill-opacity="1" width="16" height="14.846153846153848" y="14.846153846153848" cursor="ns-resize" stroke="black" stroke-width="0.2"/><rect class="bandrect" stroke-opacity="1" fill="rgba(201, 54, 62, 0.7)" fill-opacity="1" width="16" height="14.846153846153848" y="29.692307692307697" cursor="ns-resize" stroke="black" stroke-width="0.2"/><text class="catlabel" pointer-events="none" text-anchor="end" alignment-baseline="middle" x="-5" y="22.26923076923077" style="fill: rgb(26, 26, 46); font-family: Inter, Arial; font-size: 11px; fill-opacity: 1; text-shadow: rgb(255, 255, 255) 1px 1px 1px, rgb(255, 255, 255) -1px -1px 1px, rgb(255, 255, 255) 1px -1px 1px, rgb(255, 255, 255) -1px 1px 1px; white-space: pre;">Appeal to (Dis)trust</text><text class="dimlabel" text-anchor="middle" alignment-baseline="baseline" cursor="ew-resize" x="8" y="-5" style="font-family: Inter, Arial; font-size: 13px; fill: rgb(26, 26, 46); fill-opacity: 1;"/></g><g class="category" transform="translate(0,105.07692307692308)"><rect class="catrect" pointer-events="none" fill="none" width="16" height="44.53846153846154" stroke="black" stroke-width="1" stroke-opacity="1"/><rect class="bandrect" stroke-opacity="1" fill="rgba(201, 54, 62, 0.32)" fill-opacity="1" width="16" height="14.846153846153848" y="0" cursor="ns-resize" stroke="black" stroke-width="0.2"/><rect class="bandrect" stroke-opacity="1" fill="rgba(201, 54, 62, 0.48)" fill-opacity="1" width="16" height="14.846153846153848" y="14.846153846153848" cursor="ns-resize" stroke="black" stroke-width="0.2"/><rect class="bandrect" stroke-opacity="1" fill="rgba(201, 54, 62, 0.65)" fill-opacity="1" width="16" height="14.846153846153848" y="29.692307692307697" cursor="ns-resize" stroke="black" stroke-width="0.2"/><text class="catlabel" pointer-events="none" text-anchor="end" alignment-baseline="middle" x="-5" y="22.26923076923077" style="fill: rgb(26, 26, 46); font-family: Inter, Arial; font-size: 11px; fill-opacity: 1; text-shadow: rgb(255, 255, 255) 1px 1px 1px, rgb(255, 255, 255) -1px -1px 1px, rgb(255, 255, 255) 1px -1px 1px, rgb(255, 255, 255) -1px 1px 1px; white-space: pre;">Appeal to Emotion</text><text class="dimlabel" text-anchor="middle" alignment-baseline="baseline" cursor="ew-resize" x="8" y="-5" style="font-family: Inter, Arial; font-size: 13px; fill: rgb(26, 26, 46); fill-opacity: 1;"/></g><g class="category" transform="translate(0,157.6153846153846)"><rect class="catrect" pointer-events="none" fill="none" width="16" height="29.692307692307693" stroke="black" stroke-width="1" stroke-opacity="1"/><rect class="bandrect" stroke-opacity="1" fill="rgba(201, 54, 62, 0.35)" fill-opacity="1" width="16" height="14.846153846153848" y="0" cursor="ns-resize" stroke="black" stroke-width="0.2"/><rect class="bandrect" stroke-opacity="1" fill="rgba(201, 54, 62, 0.9)" fill-opacity="1" width="16" height="14.846153846153848" y="14.846153846153848" cursor="ns-resize" stroke="black" stroke-width="0.2"/><text class="catlabel" pointer-events="none" text-anchor="end" alignment-baseline="middle" x="-5" y="14.846153846153847" style="fill: rgb(26, 26, 46); font-family: Inter, Arial; font-size: 11px; fill-opacity: 1; text-shadow: rgb(255, 255, 255) 1px 1px 1px, rgb(255, 255, 255) -1px -1px 1px, rgb(255, 255, 255) 1px -1px 1px, rgb(255, 255, 255) -1px 1px 1px; white-space: pre;">Cherry Picking</text><text class="dimlabel" text-anchor="middle" alignment-baseline="baseline" cursor="ew-resize" x="8" y="-5" style="font-family: Inter, Arial; font-size: 13px; fill: rgb(26, 26, 46); fill-opacity: 1;"/></g><g class="category" transform="translate(0,195.30769230769232)"><rect class="catrect" pointer-events="none" fill="none" width="16" height="44.53846153846154" stroke="black" stroke-width="1" stroke-opacity="1"/><rect class="bandrect" stroke-opacity="1" fill="rgba(201, 54, 62, 0.35)" fill-opacity="1" width="16" height="14.846153846153848" y="0" cursor="ns-resize" stroke="black" stroke-width="0.2"/><rect class="bandrect" stroke-opacity="1" fill="rgba(201, 54, 62, 0.36)" fill-opacity="1" width="16" height="14.846153846153848" y="14.846153846153848" cursor="ns-resize" stroke="black" stroke-width="0.2"/><rect class="bandrect" stroke-opacity="1" fill="rgba(201, 54, 62, 0.71)" fill-opacity="1" width="16" height="14.846153846153848" y="29.692307692307697" cursor="ns-resize" stroke="black" stroke-width="0.2"/><text class="catlabel" pointer-events="none" text-anchor="end" alignment-baseline="middle" x="-5" y="22.26923076923077" style="fill: rgb(26, 26, 46); font-family: Inter, Arial; font-size: 11px; fill-opacity: 1; text-shadow: rgb(255, 255, 255) 1px 1px 1px, rgb(255, 255, 255) -1px -1px 1px, rgb(255, 255, 255) 1px -1px 1px, rgb(255, 255, 255) -1px 1px 1px; white-space: pre;">Conspiracy Theory</text><text class="dimlabel" text-anchor="middle" alignment-baseline="baseline" cursor="ew-resize" x="8" y="-5" style="font-family: Inter, Arial; font-size: 13px; fill: rgb(26, 26, 46); fill-opacity: 1;"/></g><g class="category" transform="translate(0,247.84615384615387)"><rect class="catrect" pointer-events="none" fill="none" width="16" height="44.53846153846154" stroke="black" stroke-width="1" stroke-opacity="1"/><rect class="bandrect" stroke-opacity="1" fill="rgba(201, 54, 62, 0.4)" fill-opacity="1" width="16" height="14.846153846153848" y="0" cursor="ns-resize" stroke="black" stroke-width="0.2"/><rect class="bandrect" stroke-opacity="1" fill="rgba(201, 54, 62, 0.45)" fill-opacity="1" width="16" height="14.846153846153848" y="14.846153846153848" cursor="ns-resize" stroke="black" stroke-width="0.2"/><rect class="bandrect" stroke-opacity="1" fill="rgba(201, 54, 62, 0.48)" fill-opacity="1" width="16" height="14.846153846153848" y="29.692307692307697" cursor="ns-resize" stroke="black" stroke-width="0.2"/><text class="catlabel" pointer-events="none" text-anchor="end" alignment-baseline="middle" x="-5" y="22.26923076923077" style="fill: rgb(26, 26, 46); font-family: Inter, Arial; font-size: 11px; fill-opacity: 1; text-shadow: rgb(255, 255, 255) 1px 1px 1px, rgb(255, 255, 255) -1px -1px 1px, rgb(255, 255, 255) 1px -1px 1px, rgb(255, 255, 255) -1px 1px 1px; white-space: pre;">Historical Revisionism</text><text class="dimlabel" text-anchor="middle" alignment-baseline="baseline" cursor="ew-resize" x="8" y="-5" style="font-family: Inter, Arial; font-size: 13px; fill: rgb(26, 26, 46); fill-opacity: 1;"/></g><g class="category" transform="translate(0,300.3846153846154)"><rect class="catrect" pointer-events="none" fill="none" width="16" height="44.53846153846154" stroke="black" stroke-width="1" stroke-opacity="1"/><rect class="bandrect" stroke-opacity="1" fill="rgba(201, 54, 62, 0.3)" fill-opacity="1" width="16" height="14.846153846153848" y="0" cursor="ns-resize" stroke="black" stroke-width="0.2"/><rect class="bandrect" stroke-opacity="1" fill="rgba(201, 54, 62, 0.33)" fill-opacity="1" width="16" height="14.846153846153848" y="14.846153846153848" cursor="ns-resize" stroke="black" stroke-width="0.2"/><rect class="bandrect" stroke-opacity="1" fill="rgba(201, 54, 62, 0.64)" fill-opacity="1" width="16" height="14.846153846153848" y="29.692307692307697" cursor="ns-resize" stroke="black" stroke-width="0.2"/><text class="catlabel" pointer-events="none" text-anchor="end" alignment-baseline="middle" x="-5" y="22.26923076923077" style="fill: rgb(26, 26, 46); font-family: Inter, Arial; font-size: 11px; fill-opacity: 1; text-shadow: rgb(255, 255, 255) 1px 1px 1px, rgb(255, 255, 255) -1px -1px 1px, rgb(255, 255, 255) 1px -1px 1px, rgb(255, 255, 255) -1px 1px 1px; white-space: pre;">Impossible Expectations</text><text class="dimlabel" text-anchor="middle" alignment-baseline="baseline" cursor="ew-resize" x="8" y="-5" style="font-family: Inter, Arial; font-size: 13px; fill: rgb(26, 26, 46); fill-opacity: 1;"/></g><g class="category" transform="translate(0,352.92307692307696)"><rect class="catrect" pointer-events="none" fill="none" width="16" height="44.53846153846154" stroke="black" stroke-width="1" stroke-opacity="1"/><rect class="bandrect" stroke-opacity="1" fill="rgba(201, 54, 62, 0.32)" fill-opacity="1" width="16" height="14.846153846153848" y="0" cursor="ns-resize" stroke="black" stroke-width="0.2"/><rect class="bandrect" stroke-opacity="1" fill="rgba(201, 54, 62, 0.36)" fill-opacity="1" width="16" height="14.846153846153848" y="14.846153846153848" cursor="ns-resize" stroke="black" stroke-width="0.2"/><rect class="bandrect" stroke-opacity="1" fill="rgba(201, 54, 62, 0.52)" fill-opacity="1" width="16" height="14.846153846153848" y="29.692307692307697" cursor="ns-resize" stroke="black" stroke-width="0.2"/><text class="catlabel" pointer-events="none" text-anchor="end" alignment-baseline="middle" x="-5" y="22.26923076923077" style="fill: rgb(26, 26, 46); font-family: Inter, Arial; font-size: 11px; fill-opacity: 1; text-shadow: rgb(255, 255, 255) 1px 1px 1px, rgb(255, 255, 255) -1px -1px 1px, rgb(255, 255, 255) 1px -1px 1px, rgb(255, 255, 255) -1px 1px 1px; white-space: pre;">Pseudo-Scientific Claim</text><text class="dimlabel" text-anchor="middle" alignment-baseline="baseline" cursor="ew-resize" x="8" y="-5" style="font-family: Inter, Arial; font-size: 13px; fill: rgb(26, 26, 46); fill-opacity: 1;"/></g><g class="category" transform="translate(0,405.4615384615385)"><rect class="catrect" pointer-events="none" fill="none" width="16" height="44.53846153846154" stroke="black" stroke-width="1" stroke-opacity="1"/><rect class="bandrect" stroke-opacity="1" fill="rgba(201, 54, 62, 0.38)" fill-opacity="1" width="16" height="14.846153846153848" y="0" cursor="ns-resize" stroke="black" stroke-width="0.2"/><rect class="bandrect" stroke-opacity="1" fill="rgba(201, 54, 62, 0.41)" fill-opacity="1" width="16" height="14.846153846153848" y="14.846153846153848" cursor="ns-resize" stroke="black" stroke-width="0.2"/><rect class="bandrect" stroke-opacity="1" fill="rgba(201, 54, 62, 0.46)" fill-opacity="1" width="16" height="14.846153846153848" y="29.692307692307697" cursor="ns-resize" stroke="black" stroke-width="0.2"/><text class="catlabel" pointer-events="none" text-anchor="end" alignment-baseline="middle" x="-5" y="22.26923076923077" style="fill: rgb(26, 26, 46); font-family: Inter, Arial; font-size: 11px; fill-opacity: 1; text-shadow: rgb(255, 255, 255) 1px 1px 1px, rgb(255, 255, 255) -1px -1px 1px, rgb(255, 255, 255) 1px -1px 1px, rgb(255, 255, 255) -1px 1px 1px; white-space: pre;">Source Weaponization</text><text class="dimlabel" text-anchor="middle" alignment-baseline="baseline" cursor="ew-resize" x="8" y="-5" style="font-family: Inter, Arial; font-size: 13px; fill: rgb(26, 26, 46); fill-opacity: 1;"/></g></g><g class="dimension" transform="translate(516,0)"><g class="category" transform="translate(0,8)"><rect class="catrect" pointer-events="none" fill="none" width="16" height="59.38461538461539" stroke="black" stroke-width="1" stroke-opacity="1"/><rect class="bandrect" stroke-opacity="1" fill="rgba(201, 54, 62, 0.33)" fill-opacity="1" width="16" height="14.846153846153848" y="0" cursor="ns-resize" stroke="black" stroke-width="0.2"/><rect class="bandrect" stroke-opacity="1" fill="rgba(201, 54, 62, 0.4)" fill-opacity="1" width="16" height="14.846153846153848" y="14.846153846153848" cursor="ns-resize" stroke="black" stroke-width="0.2"/><rect class="bandrect" stroke-opacity="1" fill="rgba(201, 54, 62, 0.41)" fill-opacity="1" width="16" height="14.846153846153848" y="29.692307692307697" cursor="ns-resize" stroke="black" stroke-width="0.2"/><rect class="bandrect" stroke-opacity="1" fill="rgba(201, 54, 62, 0.48)" fill-opacity="1" width="16" height="14.846153846153848" y="44.53846153846155" cursor="ns-resize" stroke="black" stroke-width="0.2"/><text class="catlabel" pointer-events="none" text-anchor="start" alignment-baseline="middle" x="21" y="29.692307692307693" style="fill: rgb(26, 26, 46); font-family: Inter, Arial; font-size: 11px; fill-opacity: 1; text-shadow: rgb(255, 255, 255) 1px 1px 1px, rgb(255, 255, 255) -1px -1px 1px, rgb(255, 255, 255) 1px -1px 1px, rgb(255, 255, 255) -1px 1px 1px; white-space: pre;">Scientific Consensus</text><text class="dimlabel" text-anchor="middle" alignment-baseline="baseline" cursor="ew-resize" x="8" y="-5" style="font-family: Inter, Arial; font-size: 13px; fill: rgb(26, 26, 46); fill-opacity: 1;">Debunker Response</text></g><g class="category" transform="translate(0,75.38461538461539)"><rect class="catrect" pointer-events="none" fill="none" width="16" height="103.92307692307692" stroke="black" stroke-width="1" stroke-opacity="1"/><rect class="bandrect" stroke-opacity="1" fill="rgba(201, 54, 62, 0.48)" fill-opacity="1" width="16" height="14.846153846153848" y="0" cursor="ns-resize" stroke="black" stroke-width="0.2"/><rect class="bandrect" stroke-opacity="1" fill="rgba(201, 54, 62, 0.48)" fill-opacity="1" width="16" height="14.846153846153848" y="14.846153846153848" cursor="ns-resize" stroke="black" stroke-width="0.2"/><rect class="bandrect" stroke-opacity="1" fill="rgba(201, 54, 62, 0.52)" fill-opacity="1" width="16" height="14.846153846153848" y="29.692307692307697" cursor="ns-resize" stroke="black" stroke-width="0.2"/><rect class="bandrect" stroke-opacity="1" fill="rgba(201, 54, 62, 0.64)" fill-opacity="1" width="16" height="14.846153846153848" y="44.53846153846155" cursor="ns-resize" stroke="black" stroke-width="0.2"/><rect class="bandrect" stroke-opacity="1" fill="rgba(201, 54, 62, 0.7)" fill-opacity="1" width="16" height="14.846153846153848" y="59.384615384615394" cursor="ns-resize" stroke="black" stroke-width="0.2"/><rect class="bandrect" stroke-opacity="1" fill="rgba(201, 54, 62, 0.71)" fill-opacity="1" width="16" height="14.846153846153848" y="74.23076923076924" cursor="ns-resize" stroke="black" stroke-width="0.2"/><rect class="bandrect" stroke-opacity="1" fill="rgba(201, 54, 62, 0.9)" fill-opacity="1" width="16" height="14.846153846153848" y="89.0769230769231" cursor="ns-resize" stroke="black" stroke-width="0.2"/><text class="catlabel" pointer-events="none" text-anchor="start" alignment-baseline="middle" x="21" y="51.96153846153846" style="fill: rgb(26, 26, 46); font-family: Inter, Arial; font-size: 11px; fill-opacity: 1; text-shadow: rgb(255, 255, 255) 1px 1px 1px, rgb(255, 255, 255) -1px -1px 1px, rgb(255, 255, 255) 1px -1px 1px, rgb(255, 255, 255) -1px 1px 1px; white-space: pre;">Domain-Specific</text><text class="dimlabel" text-anchor="middle" alignment-baseline="baseline" cursor="ew-resize" x="8" y="-5" style="font-family: Inter, Arial; font-size: 13px; fill: rgb(26, 26, 46); fill-opacity: 1;"/></g><g class="category" transform="translate(0,187.30769230769232)"><rect class="catrect" pointer-events="none" fill="none" width="16" height="89.07692307692308" stroke="black" stroke-width="1" stroke-opacity="1"/><rect class="bandrect" stroke-opacity="1" fill="rgba(201, 54, 62, 0.3)" fill-opacity="1" width="16" height="14.846153846153848" y="0" cursor="ns-resize" stroke="black" stroke-width="0.2"/><rect class="bandrect" stroke-opacity="1" fill="rgba(201, 54, 62, 0.36)" fill-opacity="1" width="16" height="14.846153846153848" y="14.846153846153848" cursor="ns-resize" stroke="black" stroke-width="0.2"/><rect class="bandrect" stroke-opacity="1" fill="rgba(201, 54, 62, 0.39)" fill-opacity="1" width="16" height="14.846153846153848" y="29.692307692307697" cursor="ns-resize" stroke="black" stroke-width="0.2"/><rect class="bandrect" stroke-opacity="1" fill="rgba(201, 54, 62, 0.45)" fill-opacity="1" width="16" height="14.846153846153848" y="44.53846153846155" cursor="ns-resize" stroke="black" stroke-width="0.2"/><rect class="bandrect" stroke-opacity="1" fill="rgba(201, 54, 62, 0.46)" fill-opacity="1" width="16" height="14.846153846153848" y="59.384615384615394" cursor="ns-resize" stroke="black" stroke-width="0.2"/><rect class="bandrect" stroke-opacity="1" fill="rgba(201, 54, 62, 0.65)" fill-opacity="1" width="16" height="14.846153846153848" y="74.23076923076924" cursor="ns-resize" stroke="black" stroke-width="0.2"/><text class="catlabel" pointer-events="none" text-anchor="start" alignment-baseline="middle" x="21" y="44.53846153846154" style="fill: rgb(26, 26, 46); font-family: Inter, Arial; font-size: 11px; fill-opacity: 1; text-shadow: rgb(255, 255, 255) 1px 1px 1px, rgb(255, 255, 255) -1px -1px 1px, rgb(255, 255, 255) 1px -1px 1px, rgb(255, 255, 255) -1px 1px 1px; white-space: pre;">Evidence Citation</text><text class="dimlabel" text-anchor="middle" alignment-baseline="baseline" cursor="ew-resize" x="8" y="-5" style="font-family: Inter, Arial; font-size: 13px; fill: rgb(26, 26, 46); fill-opacity: 1;"/></g><g class="category" transform="translate(0,284.3846153846154)"><rect class="catrect" pointer-events="none" fill="none" width="16" height="14.846153846153847" stroke="black" stroke-width="1" stroke-opacity="1"/><rect class="bandrect" stroke-opacity="1" fill="rgba(201, 54, 62, 0.38)" fill-opacity="1" width="16" height="14.846153846153848" y="0" cursor="ns-resize" stroke="black" stroke-width="0.2"/><text class="catlabel" pointer-events="none" text-anchor="start" alignment-baseline="middle" x="21" y="7.423076923076923" style="fill: rgb(26, 26, 46); font-family: Inter, Arial; font-size: 11px; fill-opacity: 1; text-shadow: rgb(255, 255, 255) 1px 1px 1px, rgb(255, 255, 255) -1px -1px 1px, rgb(255, 255, 255) 1px -1px 1px, rgb(255, 255, 255) -1px 1px 1px; white-space: pre;">Mechanism Explanation</text><text class="dimlabel" text-anchor="middle" alignment-baseline="baseline" cursor="ew-resize" x="8" y="-5" style="font-family: Inter, Arial; font-size: 13px; fill: rgb(26, 26, 46); fill-opacity: 1;"/></g><g class="category" transform="translate(0,307.2307692307693)"><rect class="catrect" pointer-events="none" fill="none" width="16" height="44.53846153846154" stroke="black" stroke-width="1" stroke-opacity="1"/><rect class="bandrect" stroke-opacity="1" fill="rgba(201, 54, 62, 0.3)" fill-opacity="1" width="16" height="14.846153846153848" y="0" cursor="ns-resize" stroke="black" stroke-width="0.2"/><rect class="bandrect" stroke-opacity="1" fill="rgba(201, 54, 62, 0.35)" fill-opacity="1" width="16" height="14.846153846153848" y="14.846153846153848" cursor="ns-resize" stroke="black" stroke-width="0.2"/><rect class="bandrect" stroke-opacity="1" fill="rgba(201, 54, 62, 0.35)" fill-opacity="1" width="16" height="14.846153846153848" y="29.692307692307697" cursor="ns-resize" stroke="black" stroke-width="0.2"/><text class="catlabel" pointer-events="none" text-anchor="start" alignment-baseline="middle" x="21" y="22.26923076923077" style="fill: rgb(26, 26, 46); font-family: Inter, Arial; font-size: 11px; fill-opacity: 1; text-shadow: rgb(255, 255, 255) 1px 1px 1px, rgb(255, 255, 255) -1px -1px 1px, rgb(255, 255, 255) 1px -1px 1px, rgb(255, 255, 255) -1px 1px 1px; white-space: pre;">Contextual Analysis</text><text class="dimlabel" text-anchor="middle" alignment-baseline="baseline" cursor="ew-resize" x="8" y="-5" style="font-family: Inter, Arial; font-size: 13px; fill: rgb(26, 26, 46); fill-opacity: 1;"/></g><g class="category" transform="translate(0,359.76923076923083)"><rect class="catrect" pointer-events="none" fill="none" width="16" height="44.53846153846154" stroke="black" stroke-width="1" stroke-opacity="1"/><rect class="bandrect" stroke-opacity="1" fill="rgba(201, 54, 62, 0.32)" fill-opacity="1" width="16" height="14.846153846153848" y="0" cursor="ns-resize" stroke="black" stroke-width="0.2"/><rect class="bandrect" stroke-opacity="1" fill="rgba(201, 54, 62, 0.38)" fill-opacity="1" width="16" height="14.846153846153848" y="14.846153846153848" cursor="ns-resize" stroke="black" stroke-width="0.2"/><rect class="bandrect" stroke-opacity="1" fill="rgba(201, 54, 62, 0.48)" fill-opacity="1" width="16" height="14.846153846153848" y="29.692307692307697" cursor="ns-resize" stroke="black" stroke-width="0.2"/><text class="catlabel" pointer-events="none" text-anchor="start" alignment-baseline="middle" x="21" y="22.26923076923077" style="fill: rgb(26, 26, 46); font-family: Inter, Arial; font-size: 11px; fill-opacity: 1; text-shadow: rgb(255, 255, 255) 1px 1px 1px, rgb(255, 255, 255) -1px -1px 1px, rgb(255, 255, 255) 1px -1px 1px, rgb(255, 255, 255) -1px 1px 1px; white-space: pre;">Logical Refutation</text><text class="dimlabel" text-anchor="middle" alignment-baseline="baseline" cursor="ew-resize" x="8" y="-5" style="font-family: Inter, Arial; font-size: 13px; fill: rgb(26, 26, 46); fill-opacity: 1;"/></g><g class="category" transform="translate(0,412.3076923076924)"><rect class="catrect" pointer-events="none" fill="none" width="16" height="29.692307692307693" stroke="black" stroke-width="1" stroke-opacity="1"/><rect class="bandrect" stroke-opacity="1" fill="rgba(201, 54, 62, 0.32)" fill-opacity="1" width="16" height="14.846153846153848" y="0" cursor="ns-resize" stroke="black" stroke-width="0.2"/><rect class="bandrect" stroke-opacity="1" fill="rgba(201, 54, 62, 0.36)" fill-opacity="1" width="16" height="14.846153846153848" y="14.846153846153848" cursor="ns-resize" stroke="black" stroke-width="0.2"/><text class="catlabel" pointer-events="none" text-anchor="start" alignment-baseline="middle" x="21" y="14.846153846153847" style="fill: rgb(26, 26, 46); font-family: Inter, Arial; font-size: 11px; fill-opacity: 1; text-shadow: rgb(255, 255, 255) 1px 1px 1px, rgb(255, 255, 255) -1px -1px 1px, rgb(255, 255, 255) 1px -1px 1px, rgb(255, 255, 255) -1px 1px 1px; white-space: pre;">Technical Correction</text><text class="dimlabel" text-anchor="middle" alignment-baseline="baseline" cursor="ew-resize" x="8" y="-5" style="font-family: Inter, Arial; font-size: 13px; fill: rgb(26, 26, 46); fill-opacity: 1;"/></g></g></g></g></g><defs id="topdefs-609302"><g class="clips"/></defs><g class="layer-above"><g class="imagelayer"/><g class="shapelayer"/></g><g class="infolayer"><g class="cbcoloraxis colorbar" transform="translate(40,60)"><rect class="cbbg" x="583" y="0" width="64.46875" height="450" style="fill: rgb(0, 0, 0); fill-opacity: 0; stroke: rgb(68, 68, 68); stroke-opacity: 1; stroke-width: 0;"/><g class="cbfills" transform="translate(0,33)"><rect class="cbfill gradient_filled" style="fill: url('#g609302-cbcoloraxis');" x="593" y="0" width="30" height="407"/></g><g class="cblines" transform="translate(0,33)"/><g class="cbaxis crisp" transform="translate(0,-60)"><g class="ycbcoloraxistick"><text text-anchor="start" x="626.1" y="4.55" transform="translate(0,440.05)" style="font-family: Inter, Arial; font-size: 13px; fill: rgb(26, 26, 46); fill-opacity: 1; white-space: pre; opacity: 1;">20</text></g><g class="ycbcoloraxistick"><text text-anchor="start" x="626.1" y="4.55" style="font-family: Inter, Arial; font-size: 13px; fill: rgb(26, 26, 46); fill-opacity: 1; white-space: pre; opacity: 1;" transform="translate(0,376.01)">30</text></g><g class="ycbcoloraxistick"><text text-anchor="start" x="626.1" y="4.55" style="font-family: Inter, Arial; font-size: 13px; fill: rgb(26, 26, 46); fill-opacity: 1; white-space: pre; opacity: 1;" transform="translate(0,311.97)">40</text></g><g class="ycbcoloraxistick"><text text-anchor="start" x="626.1" y="4.55" style="font-family: Inter, Arial; font-size: 13px; fill: rgb(26, 26, 46); fill-opacity: 1; white-space: pre; opacity: 1;" transform="translate(0,247.93)">50</text></g><g class="ycbcoloraxistick"><text text-anchor="start" x="626.1" y="4.55" style="font-family: Inter, Arial; font-size: 13px; fill: rgb(26, 26, 46); fill-opacity: 1; white-space: pre; opacity: 1;" transform="translate(0,183.89000000000001)">60</text></g><g class="ycbcoloraxistick"><text text-anchor="start" x="626.1" y="4.55" style="font-family: Inter, Arial; font-size: 13px; fill: rgb(26, 26, 46); fill-opacity: 1; white-space: pre; opacity: 1;" transform="translate(0,119.85000000000002)">70</text></g></g><g class="cbtitleunshift" transform="translate(-40,-60)"><g class="cbtitle" transform=""><text class="ycbcoloraxistitle" x="633.44" y="85" text-anchor="start" style="opacity: 1; font-family: Inter, Arial; font-size: 16px; fill: rgb(26, 26, 46); fill-opacity: 1; white-space: pre;">Pct</text></g></g><rect class="cboutline" x="593" y="33" width="30" height="407" style="stroke: rgb(68, 68, 68); stroke-opacity: 1; fill: none; stroke-width: 0;"/></g><g class="g-gtitle"><text class="gtitle" x="35" y="30" text-anchor="start" dy="0em" style="opacity: 1; font-family: Inter, Arial; font-size: 18px; fill: rgb(26, 26, 46); fill-opacity: 1; white-space: pre;">Top Counter-Strategy Flows: Spreader Tactic to Debunker Response</text></g></g></svg>