<svg class="main-svg" xmlns="http://www.w3.org/2000/svg" xmlns:xlink="http://www.w3.org/1999/xlink" width="700" height="550" style="" viewBox="0 0 700 550"><rect x="0" y="0" width="700" height="550" style="fill: rgb(255, 255, 255); fill-opacity: 1;"/><defs id="defs-092028"><g class="clips"/><g class="gradients"/><g class="patterns"/></defs><g class="bglayer"/><g class="layer-below"><g class="imagelayer"/><g class="shapelayer"/></g><g class="cartesianlayer"/><g class="polarlayer"/><g class="smithlayer"/><g class="ternarylayer"/><g class="geolayer"/><g class="funnelarealayer"/><g class="pielayer"/><g class="iciclelayer"/><g class="treemaplayer"/><g class="sunburstlayer"/><g class="glimages"/><g class="sankey" transform="translate(40,60)matrix(1 0 0 1 0 0)" style="box-sizing: content-box; position: absolute; left: 0px; shape-rendering: geometricprecision; pointer-events: none;"><g class="sankey-links" style="fill: none;"><path class="sankey-link" d="M20,222.0594059405941C310,222.0594059405941 310,154.7821782178225 600,154.7821782178225L600,167.52475247524825C310,167.52475247524825 310,234.80198019801986 20,234.80198019801986Z" style="stroke: rgb(68, 68, 68); stroke-opacity: 1; fill: rgb(201, 54, 62); fill-opacity: 0.39797; stroke-width: 0; opacity: 1;"/><path class="sankey-link" d="M20,254.07920792079207C310,254.07920792079207 310,315.14851485148546 600,315.14851485148546L600,325.9306930693072C310,325.9306930693072 310,264.86138613861385 20,264.86138613861385Z" style="stroke: rgb(68, 68, 68); stroke-opacity: 1; fill: rgb(201, 54, 62); fill-opacity: 0.367513; stroke-width: 0; opacity: 1;"/><path class="sankey-link" d="M20,264.8613861386139C310,264.8613861386139 310,393.5049504950498 600,393.5049504950498L600,395.4653465346538C310,395.4653465346538 310,266.8217821782179 20,266.8217821782179Z" style="stroke: rgb(68, 68, 68); stroke-opacity: 1; fill: rgb(201, 54, 62); fill-opacity: 0.230457; stroke-width: 0; opacity: 1;"/><path class="sankey-link" d="M20,234.80198019801983C310,234.80198019801983 310,249.83168316831723 600,249.83168316831723L600,269.1089108910895C310,269.1089108910895 310,254.07920792079213 20,254.07920792079213Z" style="stroke: rgb(68, 68, 68); stroke-opacity: 1; fill: rgb(201, 54, 62); fill-opacity: 0.499492; stroke-width: 0; opacity: 1;"/><path class="sankey-link" d="M20,326.5544554455447C310,326.5544554455447 310,69.86138613861452 600,69.86138613861452L600,71.49504950495115C310,71.49504950495115 310,328.1881188118813 20,328.1881188118813Z" style="stroke: rgb(68, 68, 68); stroke-opacity: 1; fill: rgb(201, 54, 62); fill-opacity: 0.306383; stroke-width: 0; opacity: 1;"/><path class="sankey-link" d="M20,328.18811881188134C310,328.18811881188134 310,369.68316831683205 600,369.68316831683205L600,372.623762376238C310,372.623762376238 310,331.1287128712873 20,331.1287128712873Z" style="stroke: rgb(68, 68, 68); stroke-opacity: 1; fill: rgb(201, 54, 62); fill-opacity: 0.391489; stroke-width: 0; opacity: 1;"/><path class="sankey-link" d="M20,281.8217821782181C310,281.8217821782181 310,167.5247524752482 600,167.5247524752482L600,183.2079207920799C310,183.2079207920799 310,297.5049504950498 20,297.5049504950498Z" style="stroke: rgb(68, 68, 68); stroke-opacity: 1; fill: rgb(201, 54, 62); fill-opacity: 0.675248; stroke-width: 0; opacity: 1;"/><path class="sankey-link" d="M20,297.5049504950498C310,297.5049504950498 310,325.93069306930727 600,325.93069306930727L600,335.7326732673271C310,335.7326732673271 310,307.3069306930696 20,307.3069306930696Z" style="stroke: rgb(68, 68, 68); stroke-opacity: 1; fill: rgb(201, 54, 62); fill-opacity: 0.49703; stroke-width: 0; opacity: 1;"/><path class="sankey-link" d="M20,307.3069306930696C310,307.3069306930696 310,424.8415841584162 600,424.8415841584162L600,429.0891089108914C310,429.0891089108914 310,311.5544554455448 20,311.5544554455448Z" style="stroke: rgb(68, 68, 68); stroke-opacity: 1; fill: rgb(201, 54, 62); fill-opacity: 0.328713; stroke-width: 0; opacity: 1;"/><path class="sankey-link" d="M20,1.4210854715202004e-14C310,1.4210854715202004e-14 310,33.59405940594125 600,33.59405940594125L600,35.227722772277886C310,35.227722772277886 310,1.633663366336648 20,1.633663366336648Z" style="stroke: rgb(68, 68, 68); stroke-opacity: 1; fill: rgb(201, 54, 62); fill-opacity: 0.36129; stroke-width: 0; opacity: 1;"/><path class="sankey-link" d="M20,20.22772277227724C310,20.22772277227724 310,35.227722772277886 600,35.227722772277886L600,52.87128712871353C310,52.87128712871353 310,37.871287128712886 20,37.871287128712886Z" style="stroke: rgb(68, 68, 68); stroke-opacity: 1; fill: rgb(201, 54, 62); fill-opacity: 0.364134; stroke-width: 0; opacity: 1;"/><path class="sankey-link" d="M20,37.87128712871289C310,37.87128712871289 310,93.35643564356508 600,93.35643564356508L600,111.65346534653537C310,111.65346534653537 310,56.168316831683185 20,56.168316831683185Z" style="stroke: rgb(68, 68, 68); stroke-opacity: 1; fill: rgb(201, 54, 62); fill-opacity: 0.370213; stroke-width: 0; opacity: 1;"/><path class="sankey-link" d="M20,58.7821782178218C310,58.7821782178218 310,294.8910891089112 600,294.8910891089112L600,300.1188118811885C310,300.1188118811885 310,64.00990099009903 20,64.00990099009903Z" style="stroke: rgb(68, 68, 68); stroke-opacity: 1; fill: rgb(201, 54, 62); fill-opacity: 0.248632; stroke-width: 0; opacity: 1;"/><path class="sankey-link" d="M20,56.168316831683185C310,56.168316831683185 310,212.584158415842 600,212.584158415842L600,215.19801980198065C310,215.19801980198065 310,58.782178217821794 20,58.782178217821794Z" style="stroke: rgb(68, 68, 68); stroke-opacity: 1; fill: rgb(201, 54, 62); fill-opacity: 0.224316; stroke-width: 0; opacity: 1;"/><path class="sankey-link" d="M20,16.63366336633665C310,16.63366336633665 310,15.000000000000673 600,15.000000000000673L600,18.594059405941266C310,18.594059405941266 310,20.22772277227724 20,20.22772277227724Z" style="stroke: rgb(68, 68, 68); stroke-opacity: 1; fill: rgb(201, 54, 62); fill-opacity: 0.233435; stroke-width: 0; opacity: 1;"/><path class="sankey-link" d="M20,79.00990099009914C310,79.00990099009914 310,52.87128712871353 600,52.87128712871353L600,66.59405940594125C310,66.59405940594125 310,92.73267326732687 20,92.73267326732687Z" style="stroke: rgb(68, 68, 68); stroke-opacity: 1; fill: rgb(201, 54, 62); fill-opacity: 0.311406; stroke-width: 0; opacity: 1;"/><path class="sankey-link" d="M20,92.73267326732686C310,92.73267326732686 310,111.65346534653537 600,111.65346534653537L600,144.65346534653537C310,144.65346534653537 310,125.73267326732686 20,125.73267326732686Z" style="stroke: rgb(68, 68, 68); stroke-opacity: 1; fill: rgb(201, 54, 62); fill-opacity: 0.467905; stroke-width: 0; opacity: 1;"/><path class="sankey-link" d="M20,152.19801980198034C310,152.19801980198034 310,300.11881188118844 600,300.11881188118844L600,308.28712871287155C310,308.28712871287155 310,160.3663366336635 20,160.3663366336635Z" style="stroke: rgb(68, 68, 68); stroke-opacity: 1; fill: rgb(201, 54, 62); fill-opacity: 0.266313; stroke-width: 0; opacity: 1;"/><path class="sankey-link" d="M20,160.3663366336635C310,160.3663366336635 310,368.0495049504954 600,368.0495049504954L600,369.683168316832C310,369.683168316832 310,162.00000000000014 20,162.00000000000014Z" style="stroke: rgb(68, 68, 68); stroke-opacity: 1; fill: rgb(201, 54, 62); fill-opacity: 0.213263; stroke-width: 0; opacity: 1;"/><path class="sankey-link" d="M20,162.00000000000014C310,162.00000000000014 310,391.87128712871316 600,391.87128712871316L600,393.50495049504974C310,393.50495049504974 310,163.63366336633678 20,163.63366336633678Z" style="stroke: rgb(68, 68, 68); stroke-opacity: 1; fill: rgb(201, 54, 62); fill-opacity: 0.213263; stroke-width: 0; opacity: 1;"/><path class="sankey-link" d="M20,125.73267326732687C310,125.73267326732687 310,215.19801980198062 600,215.19801980198062L600,241.66336633663408C310,241.66336633663408 310,152.19801980198034 20,152.19801980198034Z" style="stroke: rgb(68, 68, 68); stroke-opacity: 1; fill: rgb(201, 54, 62); fill-opacity: 0.414854; stroke-width: 0; opacity: 1;"/><path class="sankey-link" d="M20,346.12871287128723C310,346.12871287128723 310,183.2079207920799 600,183.2079207920799L600,186.14851485148586C310,186.14851485148586 310,349.0693069306932 20,349.0693069306932Z" style="stroke: rgb(68, 68, 68); stroke-opacity: 1; fill: rgb(201, 54, 62); fill-opacity: 0.311111; stroke-width: 0; opacity: 1;"/><path class="sankey-link" d="M20,352.66336633663377C310,352.66336633663377 310,335.7326732673271 600,335.7326732673271L600,337.36633663366365C310,337.36633663366365 310,354.29702970297035 20,354.29702970297035Z" style="stroke: rgb(68, 68, 68); stroke-opacity: 1; fill: rgb(201, 54, 62); fill-opacity: 0.261728; stroke-width: 0; opacity: 1;"/><path class="sankey-link" d="M20,354.2970297029704C310,354.2970297029704 310,395.46534653465375 600,395.46534653465375L600,398.0792079207924C310,398.0792079207924 310,356.91089108910904 20,356.91089108910904Z" style="stroke: rgb(68, 68, 68); stroke-opacity: 1; fill: rgb(201, 54, 62); fill-opacity: 0.298765; stroke-width: 0; opacity: 1;"/><path class="sankey-link" d="M20,349.0693069306932C310,349.0693069306932 310,269.1089108910895 600,269.1089108910895L600,272.7029702970301C310,272.7029702970301 310,352.66336633663377 20,352.66336633663377Z" style="stroke: rgb(68, 68, 68); stroke-opacity: 1; fill: rgb(201, 54, 62); fill-opacity: 0.335802; stroke-width: 0; opacity: 1;"/><path class="sankey-link" d="M20,371.910891089109C310,371.910891089109 310,71.49504950495115 600,71.49504950495115L600,78.356435643565C310,78.356435643565 310,378.77227722772284 20,378.77227722772284Z" style="stroke: rgb(68, 68, 68); stroke-opacity: 1; fill: rgb(201, 54, 62); fill-opacity: 0.256911; stroke-width: 0; opacity: 1;"/><path class="sankey-link" d="M20,378.77227722772284C310,378.77227722772284 310,186.14851485148586 600,186.14851485148586L600,197.5841584158423C310,197.5841584158423 310,390.2079207920792 20,390.2079207920792Z" style="stroke: rgb(68, 68, 68); stroke-opacity: 1; fill: rgb(201, 54, 62); fill-opacity: 0.294851; stroke-width: 0; opacity: 1;"/><path class="sankey-link" d="M20,397.39603960396045C310,397.39603960396045 310,337.3663366336637 600,337.3663366336637L600,353.0495049504954C310,353.0495049504954 310,413.07920792079216 20,413.07920792079216Z" style="stroke: rgb(68, 68, 68); stroke-opacity: 1; fill: rgb(201, 54, 62); fill-opacity: 0.330081; stroke-width: 0; opacity: 1;"/><path class="sankey-link" d="M20,413.0792079207921C310,413.0792079207921 310,372.623762376238 600,372.623762376238L600,376.8712871287132C310,376.8712871287132 310,417.3267326732673 20,417.3267326732673Z" style="stroke: rgb(68, 68, 68); stroke-opacity: 1; fill: rgb(201, 54, 62); fill-opacity: 0.23523; stroke-width: 0; opacity: 1;"/><path class="sankey-link" d="M20,417.3267326732674C310,417.3267326732674 310,398.0792079207924 600,398.0792079207924L600,409.8415841584162C310,409.8415841584162 310,429.0891089108912 20,429.0891089108912Z" style="stroke: rgb(68, 68, 68); stroke-opacity: 1; fill: rgb(201, 54, 62); fill-opacity: 0.297561; stroke-width: 0; opacity: 1;"/><path class="sankey-link" d="M20,390.2079207920793C310,390.2079207920793 310,272.7029702970301 600,272.7029702970301L600,279.8910891089113C310,279.8910891089113 310,397.39603960396045 20,397.39603960396045Z" style="stroke: rgb(68, 68, 68); stroke-opacity: 1; fill: rgb(201, 54, 62); fill-opacity: 0.259621; stroke-width: 0; opacity: 1;"/><path class="sankey-link" d="M20,429.0891089108911C310,429.0891089108911 310,429.08910891089147 600,429.08910891089147L600,450.00000000000034C310,450.00000000000034 310,450 20,450Z" style="stroke: rgb(68, 68, 68); stroke-opacity: 1; fill: rgb(201, 54, 62); fill-opacity: 0.373442; stroke-width: 0; opacity: 1;"/><path class="sankey-link" d="M20,178.63366336633672C310,178.63366336633672 310,66.59405940594125 600,66.59405940594125L600,69.86138613861452C310,69.86138613861452 310,181.90099009901 20,181.90099009901Z" style="stroke: rgb(68, 68, 68); stroke-opacity: 1; fill: rgb(201, 54, 62); fill-opacity: 0.288496; stroke-width: 0; opacity: 1;"/><path class="sankey-link" d="M20,181.90099009901C310,181.90099009901 310,144.65346534653537 600,144.65346534653537L600,154.7821782178225C310,154.7821782178225 310,192.0297029702971 20,192.0297029702971Z" style="stroke: rgb(68, 68, 68); stroke-opacity: 1; fill: rgb(201, 54, 62); fill-opacity: 0.474336; stroke-width: 0; opacity: 1;"/><path class="sankey-link" d="M20,200.19801980198028C310,200.19801980198028 310,308.2871287128716 600,308.2871287128716L600,315.14851485148546C310,315.14851485148546 310,207.05940594059413 20,207.05940594059413Z" style="stroke: rgb(68, 68, 68); stroke-opacity: 1; fill: rgb(201, 54, 62); fill-opacity: 0.385841; stroke-width: 0; opacity: 1;"/><path class="sankey-link" d="M20,192.0297029702971C310,192.0297029702971 310,241.66336633663408 600,241.66336633663408L600,249.83168316831726C310,249.83168316831726 310,200.19801980198028 20,200.19801980198028Z" style="stroke: rgb(68, 68, 68); stroke-opacity: 1; fill: rgb(201, 54, 62); fill-opacity: 0.421239; stroke-width: 0; opacity: 1;"/></g><g class="sankey-node-set" style="cursor: move;"><g class="sankey-node" transform="translate(0.000,222.059)" style="opacity: 1;"><rect class="node-rect" width="20" height="44.76237623762398" style="stroke-width: 0.5; stroke: rgb(224, 224, 224); stroke-opacity: 1; fill: rgb(201, 54, 62); fill-opacity: 1;"/><text class="node-label" data-notex="1" x="0" y="0" text-anchor="start" transform="translate(23.25,26.931188118811992)" style="cursor: default; font-family: Inter, Arial; font-size: 13px; fill: rgb(26, 26, 46); fill-opacity: 1; text-shadow: rgb(255, 255, 255) 1px 1px 1px, rgb(255, 255, 255) -1px -1px 1px, rgb(255, 255, 255) 1px -1px 1px, rgb(255, 255, 255) -1px 1px 1px; white-space: pre;">Spreader: Anecdotal Evidence</text></g><g class="sankey-node" transform="translate(0.000,326.554)" style="opacity: 1;"><rect class="node-rect" width="20" height="4.57425742574253" style="stroke-width: 0.5; stroke: rgb(224, 224, 224); stroke-opacity: 1; fill: rgb(201, 54, 62); fill-opacity: 1;"/><text class="node-label" data-notex="1" x="0" y="0" text-anchor="start" transform="translate(23.25,6.837128712871265)" style="cursor: default; font-family: Inter, Arial; font-size: 13px; fill: rgb(26, 26, 46); fill-opacity: 1; text-shadow: rgb(255, 255, 255) 1px 1px 1px, rgb(255, 255, 255) -1px -1px 1px, rgb(255, 255, 255) 1px -1px 1px, rgb(255, 255, 255) -1px 1px 1px; white-space: pre;">Spreader: Appeal to (Dis)trust</text></g><g class="sankey-node" transform="translate(0.000,281.822)" style="opacity: 1;"><rect class="node-rect" width="20" height="29.732673267326618" style="stroke-width: 0.5; stroke: rgb(224, 224, 224); stroke-opacity: 1; fill: rgb(201, 54, 62); fill-opacity: 1;"/><text class="node-label" data-notex="1" x="0" y="0" text-anchor="start" transform="translate(23.25,19.41633663366331)" style="cursor: default; font-family: Inter, Arial; font-size: 13px; fill: rgb(26, 26, 46); fill-opacity: 1; text-shadow: rgb(255, 255, 255) 1px 1px 1px, rgb(255, 255, 255) -1px -1px 1px, rgb(255, 255, 255) 1px -1px 1px, rgb(255, 255, 255) -1px 1px 1px; white-space: pre;">Spreader: Appeal to Emotion</text></g><g class="sankey-node" transform="translate(0.000,0.000)" style="opacity: 1;"><rect class="node-rect" width="20" height="1.6336633663366342" style="stroke-width: 0.5; stroke: rgb(224, 224, 224); stroke-opacity: 1; fill: rgb(201, 54, 62); fill-opacity: 1;"/><text class="node-label" data-notex="1" x="0" y="0" text-anchor="start" transform="translate(23.25,5.366831683168317)" style="cursor: default; font-family: Inter, Arial; font-size: 13px; fill: rgb(26, 26, 46); fill-opacity: 1; text-shadow: rgb(255, 255, 255) 1px 1px 1px, rgb(255, 255, 255) -1px -1px 1px, rgb(255, 255, 255) 1px -1px 1px, rgb(255, 255, 255) -1px 1px 1px; white-space: pre;">Spreader: Cherry Picking</text></g><g class="sankey-node" transform="translate(0.000,16.634)" style="opacity: 1;"><rect class="node-rect" width="20" height="47.37623762376248" style="stroke-width: 0.5; stroke: rgb(224, 224, 224); stroke-opacity: 1; fill: rgb(201, 54, 62); fill-opacity: 1;"/><text class="node-label" data-notex="1" x="0" y="0" text-anchor="start" transform="translate(23.25,28.23811881188124)" style="cursor: default; font-family: Inter, Arial; font-size: 13px; fill: rgb(26, 26, 46); fill-opacity: 1; text-shadow: rgb(255, 255, 255) 1px 1px 1px, rgb(255, 255, 255) -1px -1px 1px, rgb(255, 255, 255) 1px -1px 1px, rgb(255, 255, 255) -1px 1px 1px; white-space: pre;">Spreader: Conspiracy Theory</text></g><g class="sankey-node" transform="translate(0.000,79.010)" style="opacity: 1;"><rect class="node-rect" width="20" height="84.62376237623758" style="stroke-width: 0.5; stroke: rgb(224, 224, 224); stroke-opacity: 1; fill: rgb(201, 54, 62); fill-opacity: 1;"/><text class="node-label" data-notex="1" x="0" y="0" text-anchor="start" transform="translate(23.25,46.86188118811879)" style="cursor: default; font-family: Inter, Arial; font-size: 13px; fill: rgb(26, 26, 46); fill-opacity: 1; text-shadow: rgb(255, 255, 255) 1px 1px 1px, rgb(255, 255, 255) -1px -1px 1px, rgb(255, 255, 255) 1px -1px 1px, rgb(255, 255, 255) -1px 1px 1px; white-space: pre;">Spreader: Historical Revisionism</text></g><g class="sankey-node" transform="translate(0.000,346.129)" style="opacity: 1;"><rect class="node-rect" width="20" height="10.782178217821752" style="stroke-width: 0.5; stroke: rgb(224, 224, 224); stroke-opacity: 1; fill: rgb(201, 54, 62); fill-opacity: 1;"/><text class="node-label" data-notex="1" x="0" y="0" text-anchor="start" transform="translate(23.25,9.941089108910877)" style="cursor: default; font-family: Inter, Arial; font-size: 13px; fill: rgb(26, 26, 46); fill-opacity: 1; text-shadow: rgb(255, 255, 255) 1px 1px 1px, rgb(255, 255, 255) -1px -1px 1px, rgb(255, 255, 255) 1px -1px 1px, rgb(255, 255, 255) -1px 1px 1px; white-space: pre;">Spreader: Impossible Expectations</text></g><g class="sankey-node" transform="translate(0.000,371.911)" style="opacity: 1;"><rect class="node-rect" width="20" height="78.08910891089101" style="stroke-width: 0.5; stroke: rgb(224, 224, 224); stroke-opacity: 1; fill: rgb(201, 54, 62); fill-opacity: 1;"/><text class="node-label" data-notex="1" x="0" y="0" text-anchor="start" transform="translate(23.25,43.594554455445504)" style="cursor: default; font-family: Inter, Arial; font-size: 13px; fill: rgb(26, 26, 46); fill-opacity: 1; text-shadow: rgb(255, 255, 255) 1px 1px 1px, rgb(255, 255, 255) -1px -1px 1px, rgb(255, 255, 255) 1px -1px 1px, rgb(255, 255, 255) -1px 1px 1px; white-space: pre;">Spreader: Pseudo-Scientific Claim</text></g><g class="sankey-node" transform="translate(0.000,178.634)" style="opacity: 1;"><rect class="node-rect" width="20" height="28.425742574257384" style="stroke-width: 0.5; stroke: rgb(224, 224, 224); stroke-opacity: 1; fill: rgb(201, 54, 62); fill-opacity: 1;"/><text class="node-label" data-notex="1" x="0" y="0" text-anchor="start" transform="translate(23.25,18.762871287128693)" style="cursor: default; font-family: Inter, Arial; font-size: 13px; fill: rgb(26, 26, 46); fill-opacity: 1; text-shadow: rgb(255, 255, 255) 1px 1px 1px, rgb(255, 255, 255) -1px -1px 1px, rgb(255, 255, 255) 1px -1px 1px, rgb(255, 255, 255) -1px 1px 1px; white-space: pre;">Spreader: Source Weaponization</text></g><g class="sankey-node" transform="translate(600.000,33.594)" style="opacity: 1;"><rect class="node-rect" width="20" height="44.762376237623826" style="stroke-width: 0.5; stroke: rgb(224, 224, 224); stroke-opacity: 1; fill: rgb(46, 204, 113); fill-opacity: 1;"/><text class="node-label" data-notex="1" x="0" y="0" text-anchor="end" transform="translate(-3.25,26.931188118811914)" style="cursor: default; font-family: Inter, Arial; font-size: 13px; fill: rgb(26, 26, 46); fill-opacity: 1; text-shadow: rgb(255, 255, 255) 1px 1px 1px, rgb(255, 255, 255) -1px -1px 1px, rgb(255, 255, 255) 1px -1px 1px, rgb(255, 255, 255) -1px 1px 1px; white-space: pre;">Debunker: Contextual Analysis</text></g><g class="sankey-node" transform="translate(600.000,93.356)" style="opacity: 1;"><rect class="node-rect" width="20" height="104.22772277227696" style="stroke-width: 0.5; stroke: rgb(224, 224, 224); stroke-opacity: 1; fill: rgb(46, 204, 113); fill-opacity: 1;"/><text class="node-label" data-notex="1" x="0" y="0" text-anchor="end" transform="translate(-3.25,56.66386138613848)" style="cursor: default; font-family: Inter, Arial; font-size: 13px; fill: rgb(26, 26, 46); fill-opacity: 1; text-shadow: rgb(255, 255, 255) 1px 1px 1px, rgb(255, 255, 255) -1px -1px 1px, rgb(255, 255, 255) 1px -1px 1px, rgb(255, 255, 255) -1px 1px 1px; white-space: pre;">Debunker: Evidence Citation</text></g><g class="sankey-node" transform="translate(600.000,294.891)" style="opacity: 1;"><rect class="node-rect" width="20" height="58.1584158415842" style="stroke-width: 0.5; stroke: rgb(224, 224, 224); stroke-opacity: 1; fill: rgb(46, 204, 113); fill-opacity: 1;"/><text class="node-label" data-notex="1" x="0" y="0" text-anchor="end" transform="translate(-3.25,33.6292079207921)" style="cursor: default; font-family: Inter, Arial; font-size: 13px; fill: rgb(26, 26, 46); fill-opacity: 1; text-shadow: rgb(255, 255, 255) 1px 1px 1px, rgb(255, 255, 255) -1px -1px 1px, rgb(255, 255, 255) 1px -1px 1px, rgb(255, 255, 255) -1px 1px 1px; white-space: pre;">Debunker: Logical Refutation</text></g><g class="sankey-node" transform="translate(600.000,368.050)" style="opacity: 1;"><rect class="node-rect" width="20" height="8.821782178217745" style="stroke-width: 0.5; stroke: rgb(224, 224, 224); stroke-opacity: 1; fill: rgb(46, 204, 113); fill-opacity: 1;"/><text class="node-label" data-notex="1" x="0" y="0" text-anchor="end" transform="translate(-3.25,8.960891089108873)" style="cursor: default; font-family: Inter, Arial; font-size: 13px; fill: rgb(26, 26, 46); fill-opacity: 1; text-shadow: rgb(255, 255, 255) 1px 1px 1px, rgb(255, 255, 255) -1px -1px 1px, rgb(255, 255, 255) 1px -1px 1px, rgb(255, 255, 255) -1px 1px 1px; white-space: pre;">Debunker: Mechanism Explanation</text></g><g class="sankey-node" transform="translate(600.000,391.871)" style="opacity: 1;"><rect class="node-rect" width="20" height="17.970297029703033" style="stroke-width: 0.5; stroke: rgb(224, 224, 224); stroke-opacity: 1; fill: rgb(46, 204, 113); fill-opacity: 1;"/><text class="node-label" data-notex="1" x="0" y="0" text-anchor="end" transform="translate(-3.25,13.535148514851517)" style="cursor: default; font-family: Inter, Arial; font-size: 13px; fill: rgb(26, 26, 46); fill-opacity: 1; text-shadow: rgb(255, 255, 255) 1px 1px 1px, rgb(255, 255, 255) -1px -1px 1px, rgb(255, 255, 255) 1px -1px 1px, rgb(255, 255, 255) -1px 1px 1px; white-space: pre;">Debunker: Public Safety</text></g><g class="sankey-node" transform="translate(600.000,212.584)" style="opacity: 1;"><rect class="node-rect" width="20" height="67.3069306930692" style="stroke-width: 0.5; stroke: rgb(224, 224, 224); stroke-opacity: 1; fill: rgb(46, 204, 113); fill-opacity: 1;"/><text class="node-label" data-notex="1" x="0" y="0" text-anchor="end" transform="translate(-3.25,38.2034653465346)" style="cursor: default; font-family: Inter, Arial; font-size: 13px; fill: rgb(26, 26, 46); fill-opacity: 1; text-shadow: rgb(255, 255, 255) 1px 1px 1px, rgb(255, 255, 255) -1px -1px 1px, rgb(255, 255, 255) 1px -1px 1px, rgb(255, 255, 255) -1px 1px 1px; white-space: pre;">Debunker: Scientific Consensus</text></g><g class="sankey-node" transform="translate(600.000,424.842)" style="opacity: 1;"><rect class="node-rect" width="20" height="25.15841584158386" style="stroke-width: 0.5; stroke: rgb(224, 224, 224); stroke-opacity: 1; fill: rgb(46, 204, 113); fill-opacity: 1;"/><text class="node-label" data-notex="1" x="0" y="0" text-anchor="end" transform="translate(-3.25,17.12920792079193)" style="cursor: default; font-family: Inter, Arial; font-size: 13px; fill: rgb(26, 26, 46); fill-opacity: 1; text-shadow: rgb(255, 255, 255) 1px 1px 1px, rgb(255, 255, 255) -1px -1px 1px, rgb(255, 255, 255) 1px -1px 1px, rgb(255, 255, 255) -1px 1px 1px; white-space: pre;">Debunker: Technical Correction</text></g><g class="sankey-node" transform="translate(600.000,15.000)" style="opacity: 1;"><rect class="node-rect" width="20" height="3.594059405940577" style="stroke-width: 0.5; stroke: rgb(224, 224, 224); stroke-opacity: 1; fill: rgb(46, 204, 113); fill-opacity: 1;"/><text class="node-label" data-notex="1" x="0" y="0" text-anchor="end" transform="translate(-3.25,6.347029702970288)" style="cursor: default; font-family: Inter, Arial; font-size: 13px; fill: rgb(26, 26, 46); fill-opacity: 1; text-shadow: rgb(255, 255, 255) 1px 1px 1px, rgb(255, 255, 255) -1px -1px 1px, rgb(255, 255, 255) 1px -1px 1px, rgb(255, 255, 255) -1px 1px 1px; white-space: pre;">Debunker: Verification</text></g></g></g><defs id="topdefs-092028"><g class="clips"/></defs><g class="layer-above"><g class="imagelayer"/><g class="shapelayer"/></g><g class="infolayer"><g class="g-gtitle"><text class="gtitle" x="35" y="30" text-anchor="start" dy="0em" style="opacity: 1; font-family: Inter, Arial; font-size: 18px; fill: rgb(26, 26, 46); fill-opacity: 1; white-space: pre;">When Spreader Uses X, Debunker Responds With Y</text></g><g class="first-render"/></g></svg>