<svg class="main-svg" xmlns="http://www.w3.org/2000/svg" xmlns:xlink="http://www.w3.org/1999/xlink" width="700" height="480" style="" viewBox="0 0 700 480"><rect x="0" y="0" width="700" height="480" style="fill: rgb(255, 255, 255); fill-opacity: 1;"/><defs id="defs-239ad1"><g class="clips"><clipPath id="clip239ad1xyplot" class="plotclip"><rect width="503" height="365"/></clipPath><clipPath class="axesclip" id="clip239ad1x"><rect x="57" y="0" width="503" height="480"/></clipPath><clipPath class="axesclip" id="clip239ad1y"><rect x="0" y="60" width="700" height="365"/></clipPath><clipPath class="axesclip" id="clip239ad1xy"><rect x="57" y="60" width="503" height="365"/></clipPath></g><g class="gradients"/><g class="patterns"/></defs><g class="bglayer"/><g class="layer-below"><g class="imagelayer"/><g class="shapelayer"/></g><g class="cartesianlayer"><g class="subplot xy"><g class="layer-subplot"><g class="shapelayer"/><g class="imagelayer"/></g><g class="minor-gridlayer"><g class="x"/><g class="y"/></g><g class="gridlayer"><g class="x"><path class="xgrid crisp" transform="translate(88.4,0)" d="M0,60v365" style="stroke: rgb(224, 224, 224); stroke-opacity: 1; stroke-width: 1px;"/><path class="xgrid crisp" transform="translate(198.45,0)" d="M0,60v365" style="stroke: rgb(224, 224, 224); stroke-opacity: 1; stroke-width: 1px;"/><path class="xgrid crisp" transform="translate(308.5,0)" d="M0,60v365" style="stroke: rgb(224, 224, 224); stroke-opacity: 1; stroke-width: 1px;"/><path class="xgrid crisp" transform="translate(418.55,0)" d="M0,60v365" style="stroke: rgb(224, 224, 224); stroke-opacity: 1; stroke-width: 1px;"/><path class="xgrid crisp" transform="translate(528.6,0)" d="M0,60v365" style="stroke: rgb(224, 224, 224); stroke-opacity: 1; stroke-width: 1px;"/></g><g class="y"><path class="ygrid crisp" transform="translate(0,415.55)" d="M57,0h503" style="stroke: rgb(224, 224, 224); stroke-opacity: 1; stroke-width: 1px;"/><path class="ygrid crisp" transform="translate(0,340.31)" d="M57,0h503" style="stroke: rgb(224, 224, 224); stroke-opacity: 1; stroke-width: 1px;"/><path class="ygrid crisp" transform="translate(0,265.07)" d="M57,0h503" style="stroke: rgb(224, 224, 224); stroke-opacity: 1; stroke-width: 1px;"/><path class="ygrid crisp" transform="translate(0,189.83)" d="M57,0h503" style="stroke: rgb(224, 224, 224); stroke-opacity: 1; stroke-width: 1px;"/><path class="ygrid crisp" transform="translate(0,114.6)" d="M57,0h503" style="stroke: rgb(224, 224, 224); stroke-opacity: 1; stroke-width: 1px;"/></g></g><g class="zerolinelayer"/><g class="layer-between"><g class="shapelayer"/><g class="imagelayer"/></g><path class="xlines-below"/><path class="ylines-below"/><g class="overlines-below"/><g class="xaxislayer-below"/><g class="yaxislayer-below"/><g class="overaxes-below"/><g class="overplot"><g class="xy" transform="translate(57,60)" clip-path="url(#clip239ad1xyplot)"><g class="scatterlayer mlayer"><g class="trace scatter tracee85dd2" style="stroke-miterlimit: 2; opacity: 1;"><g class="fills"/><g class="errorbars"/><g class="lines"><path class="js-line" d="M31.4,340.5L251.5,172.47L471.6,96.11" style="vector-effect: none; fill: none; stroke: rgb(212, 168, 67); stroke-opacity: 1; stroke-width: 3px; opacity: 1;"/></g><g class="points"><path class="point" transform="translate(31.4,340.5)" d="M5,0A5,5 0 1,1 0,-5A5,5 0 0,1 5,0Z" style="opacity: 1; stroke-width: 0px; fill: rgb(212, 168, 67); fill-opacity: 1;"/><path class="point" transform="translate(251.5,172.47)" d="M5,0A5,5 0 1,1 0,-5A5,5 0 0,1 5,0Z" style="opacity: 1; stroke-width: 0px; fill: rgb(212, 168, 67); fill-opacity: 1;"/><path class="point" transform="translate(471.6,96.11)" d="M5,0A5,5 0 1,1 0,-5A5,5 0 0,1 5,0Z" style="opacity: 1; stroke-width: 0px; fill: rgb(212, 168, 67); fill-opacity: 1;"/></g><g class="text"/></g><g class="trace scatter trace0d7bcd" style="stroke-miterlimit: 2; opacity: 1;"><g class="fills"/><g class="errorbars"/><g class="lines"><path class="js-line" d="M31.4,220.12L251.5,84.69L471.6,32.02" style="vector-effect: none; fill: none; stroke: rgb(16, 163, 127); stroke-opacity: 1; stroke-width: 3px; opacity: 1;"/></g><g class="points"><path class="point" transform="translate(31.4,220.12)" d="M5,0A5,5 0 1,1 0,-5A5,5 0 0,1 5,0Z" style="opacity: 1; stroke-width: 0px; fill: rgb(16, 163, 127); fill-opacity: 1;"/><path class="point" transform="translate(251.5,84.69)" d="M5,0A5,5 0 1,1 0,-5A5,5 0 0,1 5,0Z" style="opacity: 1; stroke-width: 0px; fill: rgb(16, 163, 127); fill-opacity: 1;"/><path class="point" transform="translate(471.6,32.02)" d="M5,0A5,5 0 1,1 0,-5A5,5 0 0,1 5,0Z" style="opacity: 1; stroke-width: 0px; fill: rgb(16, 163, 127); fill-opacity: 1;"/></g><g class="text"/></g><g class="trace scatter tracedf6950" style="stroke-miterlimit: 2; opacity: 1;"><g class="fills"/><g class="errorbars"/><g class="lines"><path class="js-line" d="M31.4,255.23L251.5,89.71L471.6,24.5" style="vector-effect: none; fill: none; stroke: rgb(116, 170, 156); stroke-opacity: 1; stroke-width: 3px; opacity: 1;"/></g><g class="points"><path class="point" transform="translate(31.4,255.23)" d="M5,0A5,5 0 1,1 0,-5A5,5 0 0,1 5,0Z" style="opacity: 1; stroke-width: 0px; fill: rgb(116, 170, 156); fill-opacity: 1;"/><path class="point" transform="translate(251.5,89.71)" d="M5,0A5,5 0 1,1 0,-5A5,5 0 0,1 5,0Z" style="opacity: 1; stroke-width: 0px; fill: rgb(116, 170, 156); fill-opacity: 1;"/><path class="point" transform="translate(471.6,24.5)" d="M5,0A5,5 0 1,1 0,-5A5,5 0 0,1 5,0Z" style="opacity: 1; stroke-width: 0px; fill: rgb(116, 170, 156); fill-opacity: 1;"/></g><g class="text"/></g><g class="trace scatter trace9c25a8" style="stroke-miterlimit: 2; opacity: 1;"><g class="fills"/><g class="errorbars"/><g class="lines"><path class="js-line" d="M31.4,277.72L251.5,108.34L471.6,33.53" style="vector-effect: none; fill: none; stroke: rgb(66, 133, 244); stroke-opacity: 1; stroke-width: 3px; opacity: 1;"/></g><g class="points"><path class="point" transform="translate(31.4,277.72)" d="M5,0A5,5 0 1,1 0,-5A5,5 0 0,1 5,0Z" style="opacity: 1; stroke-width: 0px; fill: rgb(66, 133, 244); fill-opacity: 1;"/><path class="point" transform="translate(251.5,108.34)" d="M5,0A5,5 0 1,1 0,-5A5,5 0 0,1 5,0Z" style="opacity: 1; stroke-width: 0px; fill: rgb(66, 133, 244); fill-opacity: 1;"/><path class="point" transform="translate(471.6,33.53)" d="M5,0A5,5 0 1,1 0,-5A5,5 0 0,1 5,0Z" style="opacity: 1; stroke-width: 0px; fill: rgb(66, 133, 244); fill-opacity: 1;"/></g><g class="text"/></g></g></g></g><path class="xlines-above crisp" d="M0,0" style="fill: none;"/><path class="ylines-above crisp" d="M0,0" style="fill: none;"/><g class="overlines-above"/><g class="xaxislayer-above"><g class="xtick"><text text-anchor="middle" x="0" y="439" transform="translate(88.4,0)" style="font-family: Inter, Arial; font-size: 13px; fill: rgb(26, 26, 46); fill-opacity: 1; white-space: pre; opacity: 1;">2</text></g><g class="xtick"><text text-anchor="middle" x="0" y="439" style="font-family: Inter, Arial; font-size: 13px; fill: rgb(26, 26, 46); fill-opacity: 1; white-space: pre; opacity: 1;" transform="translate(198.45,0)">4</text></g><g class="xtick"><text text-anchor="middle" x="0" y="439" style="font-family: Inter, Arial; font-size: 13px; fill: rgb(26, 26, 46); fill-opacity: 1; white-space: pre; opacity: 1;" transform="translate(308.5,0)">6</text></g><g class="xtick"><text text-anchor="middle" x="0" y="439" style="font-family: Inter, Arial; font-size: 13px; fill: rgb(26, 26, 46); fill-opacity: 1; white-space: pre; opacity: 1;" transform="translate(418.55,0)">8</text></g><g class="xtick"><text text-anchor="middle" x="0" y="439" style="font-family: Inter, Arial; font-size: 13px; fill: rgb(26, 26, 46); fill-opacity: 1; white-space: pre; opacity: 1;" transform="translate(528.6,0)">10</text></g></g><g class="yaxislayer-above"><g class="ytick"><text text-anchor="end" x="56" y="4.55" transform="translate(0,415.55)" style="font-family: Inter, Arial; font-size: 13px; fill: rgb(26, 26, 46); fill-opacity: 1; white-space: pre; opacity: 1;">4.5</text></g><g class="ytick"><text text-anchor="end" x="56" y="4.55" style="font-family: Inter, Arial; font-size: 13px; fill: rgb(26, 26, 46); fill-opacity: 1; white-space: pre; opacity: 1;" transform="translate(0,340.31)">5</text></g><g class="ytick"><text text-anchor="end" x="56" y="4.55" style="font-family: Inter, Arial; font-size: 13px; fill: rgb(26, 26, 46); fill-opacity: 1; white-space: pre; opacity: 1;" transform="translate(0,265.07)">5.5</text></g><g class="ytick"><text text-anchor="end" x="56" y="4.55" style="font-family: Inter, Arial; font-size: 13px; fill: rgb(26, 26, 46); fill-opacity: 1; white-space: pre; opacity: 1;" transform="translate(0,189.83)">6</text></g><g class="ytick"><text text-anchor="end" x="56" y="4.55" style="font-family: Inter, Arial; font-size: 13px; fill: rgb(26, 26, 46); fill-opacity: 1; white-space: pre; opacity: 1;" transform="translate(0,114.6)">6.5</text></g></g><g class="overaxes-above"/></g></g><g class="polarlayer"/><g class="smithlayer"/><g class="ternarylayer"/><g class="geolayer"/><g class="funnelarealayer"/><g class="pielayer"/><g class="iciclelayer"/><g class="treemaplayer"/><g class="sunburstlayer"/><g class="glimages"/><defs id="topdefs-239ad1"><g class="clips"/><clipPath id="legend239ad1"><rect width="118" height="103" x="0" y="0"/></clipPath></defs><g class="layer-above"><g class="imagelayer"/><g class="shapelayer"/></g><g class="infolayer"><g class="legend" pointer-events="all" transform="translate(570.0600000000001,60)"><rect class="bg" shape-rendering="crispEdges" style="stroke: rgb(68, 68, 68); stroke-opacity: 1; fill: rgb(255, 255, 255); fill-opacity: 1; stroke-width: 0px;" width="118" height="103" x="0" y="0"/><g class="scrollbox" transform="" clip-path="url(#legend239ad1)"><text class="legendtitletext" text-anchor="start" x="2" y="16.900000000000002" style="font-family: Inter, Arial; font-size: 13px; fill: rgb(26, 26, 46); fill-opacity: 1; white-space: pre;">sm</text><g class="groups" transform=""><g class="traces" transform="translate(0,31.400000000000002)" style="opacity: 1;"><text class="legendtext" text-anchor="start" x="40" y="4.29" style="font-family: Inter, Arial; font-size: 11px; fill: rgb(26, 26, 46); fill-opacity: 1; white-space: pre;">Claude Sonnet</text><g class="layers" style="opacity: 1;"><g class="legendfill"/><g class="legendlines"><path class="js-line" d="M5,0h30" style="fill: none; stroke: rgb(212, 168, 67); stroke-opacity: 1; stroke-width: 3px;"/></g><g class="legendsymbols"><g class="legendpoints"><path class="scatterpts" transform="translate(20,0)" d="M5,0A5,5 0 1,1 0,-5A5,5 0 0,1 5,0Z" style="opacity: 1; stroke-width: 0px; fill: rgb(212, 168, 67); fill-opacity: 1;"/></g></g></g><rect class="legendtoggle" x="0" y="-9.5" width="112.78125" height="19" style="fill: rgb(0, 0, 0); fill-opacity: 0;"/></g></g><g class="groups" transform=""><g class="traces" transform="translate(0,50.400000000000006)" style="opacity: 1;"><text class="legendtext" text-anchor="start" x="40" y="4.29" style="font-family: Inter, Arial; font-size: 11px; fill: rgb(26, 26, 46); fill-opacity: 1; white-space: pre;">GPT-4o</text><g class="layers" style="opacity: 1;"><g class="legendfill"/><g class="legendlines"><path class="js-line" d="M5,0h30" style="fill: none; stroke: rgb(16, 163, 127); stroke-opacity: 1; stroke-width: 3px;"/></g><g class="legendsymbols"><g class="legendpoints"><path class="scatterpts" transform="translate(20,0)" d="M5,0A5,5 0 1,1 0,-5A5,5 0 0,1 5,0Z" style="opacity: 1; stroke-width: 0px; fill: rgb(16, 163, 127); fill-opacity: 1;"/></g></g></g><rect class="legendtoggle" x="0" y="-9.5" width="112.78125" height="19" style="fill: rgb(0, 0, 0); fill-opacity: 0;"/></g></g><g class="groups" transform=""><g class="traces" transform="translate(0,69.4)" style="opacity: 1;"><text class="legendtext" text-anchor="start" x="40" y="4.29" style="font-family: Inter, Arial; font-size: 11px; fill: rgb(26, 26, 46); fill-opacity: 1; white-space: pre;">GPT-4o-mini</text><g class="layers" style="opacity: 1;"><g class="legendfill"/><g class="legendlines"><path class="js-line" d="M5,0h30" style="fill: none; stroke: rgb(116, 170, 156); stroke-opacity: 1; stroke-width: 3px;"/></g><g class="legendsymbols"><g class="legendpoints"><path class="scatterpts" transform="translate(20,0)" d="M5,0A5,5 0 1,1 0,-5A5,5 0 0,1 5,0Z" style="opacity: 1; stroke-width: 0px; fill: rgb(116, 170, 156); fill-opacity: 1;"/></g></g></g><rect class="legendtoggle" x="0" y="-9.5" width="112.78125" height="19" style="fill: rgb(0, 0, 0); fill-opacity: 0;"/></g></g><g class="groups" transform=""><g class="traces" transform="translate(0,88.4)" style="opacity: 1;"><text class="legendtext" text-anchor="start" x="40" y="4.29" style="font-family: Inter, Arial; font-size: 11px; fill: rgb(26, 26, 46); fill-opacity: 1; white-space: pre;">Gemini Flash</text><g class="layers" style="opacity: 1;"><g class="legendfill"/><g class="legendlines"><path class="js-line" d="M5,0h30" style="fill: none; stroke: rgb(66, 133, 244); stroke-opacity: 1; stroke-width: 3px;"/></g><g class="legendsymbols"><g class="legendpoints"><path class="scatterpts" transform="translate(20,0)" d="M5,0A5,5 0 1,1 0,-5A5,5 0 0,1 5,0Z" style="opacity: 1; stroke-width: 0px; fill: rgb(66, 133, 244); fill-opacity: 1;"/></g></g></g><rect class="legendtoggle" x="0" y="-9.5" width="112.78125" height="19" style="fill: rgb(0, 0, 0); fill-opacity: 0;"/></g></g></g><rect class="scrollbar" rx="20" ry="3" width="0" height="0" x="0" y="0" style="fill: rgb(128, 139, 164); fill-opacity: 1;"/></g><g class="g-gtitle"><text class="gtitle" x="35" y="30" text-anchor="start" dy="0em" style="opacity: 1; font-family: Inter, Arial; font-size: 18px; fill: rgb(26, 26, 46); fill-opacity: 1; white-space: pre;">Spreader Diversity ~ Model x Turns — Interaction Plot</text></g><g class="g-xtitle"><text class="xtitle" x="308.5" y="467.7" text-anchor="middle" style="opacity: 1; font-family: Inter, Arial; font-size: 16px; fill: rgb(26, 26, 46); fill-opacity: 1; white-space: pre;">turns</text></g><g class="g-ytitle"><text class="ytitle" transform="rotate(-90,17.821875,242.5)" x="17.821875" y="242.5" text-anchor="middle" style="opacity: 1; font-family: Inter, Arial; font-size: 16px; fill: rgb(26, 26, 46); fill-opacity: 1; white-space: pre;">spr_cnt</text></g></g></svg>